<svg xmlns="http://www.w3.org/2000/svg" xmlns:xlink="http://www.w3.org/1999/xlink" version="1.1" x="0px" y="0px" width="400px" height="350.9px" viewBox="0 0 400 350.9" enable-background="new 0 0 400 350.9" xml:space="preserve"><g><path fill="#FFFFFF" d="M175.7 350.9c93.5 0 175.4-85.5 175.7-190.5H0C0.3 265.4 82.2 350.9 175.7 350.9z M172.8 311.5 c-7.4-0.2-13.2-5.5-12.9-13.5c0.2-8 6.3-13.1 13.7-12.9c7.7 0.2 13.3 5.7 13.1 13.7C186.4 306.8 180.5 311.7 172.8 311.5z M152.5 200.6c5.8-3.7 13-5.6 21.5-5.6c11.2 0 20.4 2.7 27.8 8c7.4 5.3 11.1 13.2 11.1 23.7c0 6.4-2.2 11.8-5.4 16.2 c-1.9 2.7-6.1 6.1-11.4 10.2l-5.9 4.1c-2.9 2.2-5.4 4.8-6.3 7.8c-0.5 1.6-0.8 3-0.9 5.7c0 0.5-0.4 1.8-2 1.8s-14.8 0-16.6 0 c-1.9 0-2.1-1.1-2-1.7c0.3-7.4 0.5-12.7 3.5-16.1c5.1-6 16.7-13.4 16.7-13.4c1.8-1.3 3.2-2.8 4.3-4.4c2-2.7 3.6-5.7 3.6-8.9 c0-3.7-1.1-7.2-3.3-10.2c-2.2-3.1-6.2-4.6-12-4.6c-5.7 0-9.8 1.8-12.1 5.6c-2.4 3.8-3.6 4.8-3.6 11.8h-21.4 C138.3 216.4 143.2 206.5 152.5 200.6z"/><path fill="#FFFFFF" d="M394.7 14.7c0 0-11.1-12.8-31.5-14.6c-20.4-1.7-34.4 16.3-39.7 24.5c-5.2 8.2-19.8 45.1-26.8 60.9 c-5.5 12.3-33.2 46.9-68.8 67.9h89.8c0 0 15.2-38.1 36.7-57.4c21.6-19.2 46.1-37.1 45.5-65.7C399.4 21.5 394.7 14.7 394.7 14.7z"/></g></svg>