<svg xmlns="http://www.w3.org/2000/svg" xmlns:xlink="http://www.w3.org/1999/xlink" version="1.1" x="0px" y="0px" width="411.4px" height="411.4px" viewBox="0 0 411.4 411.4" enable-background="new 0 0 411.4 411.4" xml:space="preserve"><g><g opacity="0.49"><path fill="#022411" d="M395.7 405.7h-380c-5.5 0-10-4.5-10-10v-380c0-5.5 4.5-10 10-10h380c5.5 0 10 4.5 10 10v380 C405.7 401.2 401.2 405.7 395.7 405.7z"/><path fill="none" stroke="#FFFFFF" stroke-width="11.4286" stroke-miterlimit="10" d="M395.7 405.7h-380c-5.5 0-10-4.5-10-10v-380 c0-5.5 4.5-10 10-10h380c5.5 0 10 4.5 10 10v380C405.7 401.2 401.2 405.7 395.7 405.7z"/></g><g><path fill="#FFFFFF" d="M282.2 302.9c-6-3.8-13.2-11.6-21.6-23.2l-18.7-24.9l16.9-22.6c9.3-12.5 16.6-20.6 22-24.3 c3.9-2.6 8.6-4.1 13.9-4.4v-6.1h-54.2v6.1c4.2 0 7.2 0.8 9 2.4c1.9 1.6 2.8 3.5 2.8 5.8c0 2.8-3.9 9.7-11.8 20.5l-6.3 8.7 l-1.4 1.8l-39.1-52.1c14.9-3.3 25.9-9 33-17c7.1-8 10.6-17.5 10.6-28.3c0-10.2-3.1-19-9.3-26.3c-6.2-7.4-13.8-12.4-22.7-15.2 c-8.9-2.7-22.8-4.1-41.6-4.1H99.2v4.8h6.7c6.7 0 11.8 1.9 15.2 5.7c2.4 2.7 3.7 9.6 3.7 20.8v114.4c0 10.1-0.9 16.5-2.7 19.2 c-3.2 4.9-8.6 7.3-16.1 7.3h-6.7v4.8H175v-4.8h-6.9c-6.6 0-11.6-1.9-14.9-5.7c-2.4-2.7-3.7-9.6-3.7-20.8v-51.5 c1.4 0.1 2.7 0.2 4 0.2c1.3 0 2.5 0.1 3.7 0.1c2.8 0 6.4-0.1 10.8-0.3l50.4 67.7l-14.4 19.1c-9.8 13-16.8 21.1-21 24.3 c-3 2.2-6.4 3.6-10.3 4.1v5.9h52.4v-5.9c-4.9-0.2-8.6-1.4-11.1-3.5c-2.5-2.1-3.7-4.5-3.7-7.1c0-1.9 3.7-7.8 11.2-17.7l5.6-7.5 l31.1 41.8h47.3v-4.8C296 309.1 288.2 306.7 282.2 302.9z M156.9 185.8c-0.8 0-1.8 0-3-0.1c-1.2 0-2.7-0.1-4.3-0.1V112 c8.6-1.7 15.5-2.5 20.5-2.5c11.4 0 20.6 3.5 27.5 10.4c6.9 6.9 10.4 15.9 10.4 27c0 11.3-4.3 20.6-12.9 27.9 C186.5 182.2 173.8 185.8 156.9 185.8z"/></g></g></svg>