<svg xmlns="http://www.w3.org/2000/svg" xmlns:xlink="http://www.w3.org/1999/xlink" version="1.1" x="0px" y="0px" width="401.1px" height="501.4px" viewBox="-791.9 202.4 401.1 501.4" enable-background="new -791.9 202.4 401.1 501.4" xml:space="preserve"><path fill="#F8F8F8" stroke="#CCCCCC" stroke-width="1.2365" stroke-miterlimit="10" d="M-404.7 634.2h-110l-80 68.8l-80.4-68.8 H-778c-7.4 0-13.3-5.1-13.3-11.5V214.5c0-6.3 6-11.5 13.3-11.5h373.3c7.4 0 13.3 5.1 13.3 11.5v408.3 C-391.4 629.1-397.4 634.2-404.7 634.2z"/><g><path fill="#A65A26" d="M-687.4 280.7h12.7l2.3 7.1h7.8l-12.2-34.5h-8.2l-12.3 34.5h7.6L-687.4 280.7z M-680.9 261.2l4.4 13.6h-8.9 L-680.9 261.2z"/><path fill="#A65A26" d="M-646.8 283c-0.8 0.4-1.8 0.6-3.1 0.6c-2.2 0-3.8-0.4-4.6-1.3c-0.5-0.5-0.8-1.3-0.9-2.5h-6.8 c0 2.6 1 4.8 2.9 6.5c1.9 1.7 4.9 2.5 8.9 2.5c3.9 0 6.9-0.8 8.7-2.4c1.8-1.6 2.8-3.7 2.8-6.2c0-1.9-0.7-3.5-2-4.8 c-1.3-1.3-3.3-2.2-6-2.8c-4-0.9-6.3-1.5-7-1.9c-0.7-0.3-1-0.9-1-1.7c0-0.6 0.3-1.1 0.9-1.6c0.6-0.5 1.7-0.7 3.1-0.7 c1.8 0 3 0.5 3.8 1.4c0.4 0.5 0.6 1.2 0.7 2h6.7c-0.3-3.1-1.5-5.3-3.5-6.6c-2-1.3-4.6-1.9-7.8-1.9c-3.4 0-6 0.8-7.8 2.5 s-2.8 3.7-2.8 6.1c0 2 0.6 3.5 1.8 4.6c1.2 1.1 3.2 2 6.1 2.7c4 1 6.4 1.6 7 2c0.6 0.4 0.9 1 0.9 1.7 C-645.7 282-646.1 282.6-646.8 283z"/><path fill="#A65A26" d="M-620.1 283c-0.8 0.4-1.8 0.6-3.1 0.6c-2.2 0-3.8-0.4-4.6-1.3c-0.5-0.5-0.8-1.3-0.9-2.5h-6.8 c0 2.6 1 4.8 2.9 6.5c1.9 1.7 4.9 2.5 8.9 2.5c3.9 0 6.9-0.8 8.7-2.4c1.8-1.6 2.8-3.7 2.8-6.2c0-1.9-0.7-3.5-2-4.8 c-1.3-1.3-3.3-2.2-6-2.8c-4-0.9-6.3-1.5-7-1.9c-0.7-0.3-1-0.9-1-1.7c0-0.6 0.3-1.1 0.9-1.6c0.6-0.5 1.7-0.7 3.1-0.7 c1.8 0 3 0.5 3.8 1.4c0.4 0.5 0.6 1.2 0.7 2h6.7c-0.3-3.1-1.5-5.3-3.5-6.6c-2-1.3-4.6-1.9-7.8-1.9c-3.4 0-6 0.8-7.8 2.5 s-2.8 3.7-2.8 6.1c0 2 0.6 3.5 1.8 4.6c1.2 1.1 3.2 2 6.1 2.7c4 1 6.4 1.6 7 2c0.6 0.4 0.9 1 0.9 1.7 C-619 282-619.4 282.6-620.1 283z"/><rect x="-607.2" y="253.1" fill="#A65A26" width="6.8" height="6.2"/><rect x="-607.2" y="262.3" fill="#A65A26" width="6.8" height="25.5"/><path fill="#A65A26" d="M-584.7 288c2.1 0 3.9-0.5 5.2-1.5c0.7-0.5 1.4-1.4 2.1-2.5v1.6c0 2.4-0.3 4.2-0.8 5.2 c-0.8 1.6-2.4 2.4-4.8 2.4c-1.7 0-2.9-0.3-3.6-0.9c-0.4-0.3-0.7-0.9-0.9-1.7h-7.3c0.2 2.5 1.4 4.5 3.4 5.7s4.7 1.9 8 1.9 c5.4 0 9.1-1.4 11-4.3c1.1-1.7 1.7-4.2 1.7-7.5v-24.2h-6.5v3.7c-1-1.8-2.3-3-3.9-3.7c-1-0.4-2.1-0.6-3.3-0.6c-3.5 0-6.1 1.3-8 3.9 c-1.9 2.6-2.8 5.8-2.8 9.6c0 3.9 1 7.1 2.9 9.4C-590.4 286.8-588 288-584.7 288z M-587.9 270.9c0.9-2.2 2.5-3.3 4.8-3.3 c1.7 0 3.1 0.6 4.1 1.9s1.5 3.1 1.5 5.5c0 2.6-0.5 4.5-1.6 5.6c-1.1 1.2-2.4 1.8-3.9 1.8c-2.3 0-4-1.1-4.9-3.2 c-0.5-1.2-0.7-2.5-0.7-4C-588.6 273.5-588.4 272-587.9 270.9z"/><path fill="#A65A26" d="M-558 274.1L-558 274.1c0.1-1.6 0.3-2.9 0.8-3.9c0.8-1.9 2.4-2.9 4.6-2.9c1.8 0 3.1 0.7 3.7 2 c0.4 0.7 0.5 1.8 0.5 3.1v15.5h6.8v-17.2c0-3.2-0.8-5.5-2.5-6.9c-1.7-1.4-3.8-2.1-6.5-2.1c-2.1 0-3.8 0.5-5.2 1.5 c-0.8 0.6-1.6 1.5-2.4 2.8v-3.7h-6.5v25.5h6.7V274.1z"/><path fill="#A65A26" d="M-533.4 285.6c2.6 2.1 5.6 3.1 9 3.1c4.1 0 7.3-1.2 9.6-3.7c1.5-1.6 2.3-3.1 2.5-4.6h-6.8 c-0.4 0.8-0.9 1.3-1.4 1.8c-1 0.8-2.2 1.2-3.7 1.2c-1.4 0-2.7-0.3-3.7-1c-1.7-1-2.6-2.8-2.7-5.4h18.6c0-2.2 0-3.9-0.2-5.1 c-0.3-2-1-3.8-2-5.3c-1.2-1.7-2.6-3-4.4-3.8s-3.8-1.2-6-1.2c-3.7 0-6.8 1.2-9.1 3.5c-2.3 2.4-3.5 5.8-3.5 10.2 C-537.3 280.1-536 283.5-533.4 285.6z M-528.7 268.6c0.9-1 2.3-1.5 4-1.5c1.6 0 2.9 0.5 4 1.4c1.1 0.9 1.7 2.3 1.8 4h-11.5 C-530.2 270.9-529.6 269.6-528.7 268.6z"/><path fill="#A65A26" d="M-499.7 288.7c1.8 0 3.3-0.3 4.5-1c1.2-0.7 2.3-1.8 3.3-3.3v3.5h6.5v-34.5h-6.8v12.2 c-0.8-1.2-1.7-2.1-2.9-2.8c-1.2-0.7-2.6-1-4.1-1c-3.4 0-6 1.2-8.1 3.8c-2.1 2.6-3 5.9-3 10.3c0 3.8 1 6.9 3.1 9.3 C-505.1 287.6-502.7 288.7-499.7 288.7z M-502 269.8c0.9-1.5 2.3-2.2 4.3-2.2c1.3 0 2.4 0.4 3.4 1.2c1.6 1.3 2.4 3.6 2.4 6.7 c0 2.2-0.5 4.1-1.5 5.5c-1 1.4-2.4 2.1-4.3 2.1c-1.9 0-3.3-0.7-4.2-2.1c-0.9-1.4-1.4-3.3-1.4-5.7 C-503.4 273.1-502.9 271.3-502 269.8z"/><rect x="-651.9" y="468.8" fill="#A65A26" width="40" height="14"/><rect x="-651.9" y="442.8" fill="#A65A26" width="48" height="13"/><path fill="#A65A26" d="M-551.9 528.2c0 3.7-2.4 8.5-6.1 8.5h-106.9c-3.7 0-8-4.9-8-8.5V415.8h40v-41h74.9c3.7 0 6.1 2.7 6.1 6.4 v12.4l21-19.9v-5.9c0-7.4-6.3-12.1-13.7-12.1h-93.6l-53.7 52.2v133.6c0 7.4 6.3 14.2 13.6 14.2h133.7c7.4 0 13.7-6.8 13.7-14.2 v-67.9l-21 19.9V528.2z"/><rect x="-651.9" y="495.8" fill="#A65A26" width="80" height="13"/><path fill="#A65A26" d="M-563.4 468.4l5 5l-21.3 6.3l-8.4-8.4l6.3-21.3l4.6 4.6l55.9-55.9l-8.7-8.7l-56.1 55.6l0.2 0.2 c-0.2 0.2-0.3 0.5-0.4 0.7l-11.6 39.6c-0.3 0.9 0 1.9 0.7 2.6c0.5 0.5 1.2 0.8 1.8 0.8c0.2 0 0.5 0 0.7-0.1l39.6-11.6 c0.3-0.1 0.5-0.2 0.7-0.4l0.2 0.2l56.1-55.6l-9.5-9.5L-563.4 468.4z"/><polygon fill="#A65A26" points="-565.6,465.5 -510.1,410.1 -519.3,400.8 -574.8,456.3 -566.8,458.1"/><polygon fill="#A65A26" points="-526.4,383.1 -491.6,417.9 -483.6,410.5 -518.4,375.7"/><path fill="#A65A26" d="M-474.5 382.6l-16.7-16.7c-4.6-4.6-12-4.6-16.6-0.1l-5.1 5.2l33.3 33.4l5.1-5.2 C-469.8 394.7-469.9 387.2-474.5 382.6z"/></g></svg>