<svg xmlns="http://www.w3.org/2000/svg" xmlns:xlink="http://www.w3.org/1999/xlink" version="1.1" x="0px" y="0px" width="401.1px" height="431.1px" viewBox="0 0 401.1 431.1" enable-background="new 0 0 401.1 431.1" xml:space="preserve"><filter><feGaussianBlur stdDeviation="4"/></filter><g><path fill="#0B4F78" d="M387.2 430.6H13.9c-7.4 0-13.3-5.1-13.3-11.4V12c0-6.3 6-11.4 13.3-11.4h373.3c7.4 0 13.3 5.1 13.3 11.4 v407.1C400.6 425.5 394.6 430.6 387.2 430.6z"/><path fill="none" stroke="#000000" stroke-width="1.1432" stroke-miterlimit="10" d="M387.2 430.6H13.9c-7.4 0-13.3-5.1-13.3-11.4 V12c0-6.3 6-11.4 13.3-11.4h373.3c7.4 0 13.3 5.1 13.3 11.4v407.1C400.6 425.5 394.6 430.6 387.2 430.6z"/></g><g filter="url(#AI_GaussianBlur_4)"><path fill="#333333" d="M198.2 152.5c-54.5 0-98.8 44.2-98.8 98.8c0 54.6 44.2 98.8 98.8 98.8c54.5 0 98.8-44.2 98.8-98.8 C297 196.8 252.8 152.5 198.2 152.5z M198.2 332.6c-44.8 0-81.2-36.5-81.2-81.3c0-44.8 36.4-81.3 81.2-81.3 c44.8 0 81.2 36.5 81.2 81.3C279.4 296.2 243 332.6 198.2 332.6z"/><polygon fill="#333333" points="182.7,257.9 164.1,239.3 145.8,257.6 164.3,276.2 182.6,294.6 250.7,226.4 232.4,208.1"/><path fill="#333333" d="M120.8 63.2c1.1-2 1.6-4.9 1.6-8.6V33.5h-7v21.1c0 2.4-0.4 4.1-0.9 5.2c-0.9 1.9-2.8 2.9-5.7 2.9 c-2.9 0-4.7-1-5.6-2.9c-0.6-1.1-0.8-2.8-0.8-5.2V33.5h-8v21.1c0 3.7 0.8 6.5 1.9 8.6c2.1 3.8 6.3 5.6 12.2 5.6 C114.6 68.8 118.7 67 120.8 63.2z"/><path fill="#333333" d="M135.4 64.7c1 1.1 1.4 1.9 2.2 2.5c1.4 1 3.1 1.5 5.1 1.5c3.2 0 5.8-1.2 7.9-3.5c2-2.4 3.1-5.8 3.1-10.3 c0-4.3-1-7.5-3.1-9.7c-2.1-2.2-4.6-3.3-7.6-3.3c-2.1 0-3.7 0.6-5.2 1.7c-0.8 0.6-1.2 1.5-2.2 2.6v-3.7h-7v36h7V64.7z M135.9 51.1 c0.9-2.3 2.6-3.4 5-3.4c2 0 3.5 0.8 4.4 2.3c0.9 1.5 1.4 3.3 1.4 5.2c0 2.4-0.5 4.3-1.5 5.7c-1 1.4-2.4 2.2-4.3 2.2 c-1.3 0-2.4-0.4-3.4-1.1c-1.6-1.2-2.4-3.3-2.4-6.3C135.2 53.9 135.4 52.3 135.9 51.1z"/><rect x="158.4" y="33.5" fill="#333333" width="7" height="34"/><path fill="#333333" d="M183.2 68.8c4.4 0 7.7-1.3 9.8-4c2.2-2.7 3.2-5.9 3.2-9.6c0-3.7-1.1-6.9-3.2-9.6s-5.4-4.1-9.8-4.1 s-7.7 1.4-9.8 4.1s-3.2 5.9-3.2 9.6c0 3.7 1.1 7 3.2 9.6C175.5 67.5 178.8 68.8 183.2 68.8z M178.6 49.3c1.1-1.4 2.6-2.1 4.5-2.1 s3.5 0.7 4.5 2.1c1 1.4 1.6 3.4 1.6 5.9s-0.5 4.5-1.6 5.9c-1 1.4-2.5 2.1-4.5 2.1s-3.5-0.7-4.5-2.1c-1.1-1.4-1.6-3.4-1.6-5.9 S177.6 50.7 178.6 49.3z"/><path fill="#333333" d="M213.8 51.8c-0.5 0.2-1.4 0.4-2.7 0.6l-2.3 0.3c-2.6 0.3-4.6 0.9-5.9 1.6c-2.4 1.4-3.7 3.7-3.7 6.8 c0 2.4 0.8 4.3 2.3 5.6c1.5 1.3 3.4 2 5.8 2c1.8 0 3.5-0.4 4.9-1.2c1.2-0.7 2.3-1.6 3.2-2.6c0 0.6 0.1 0.9 0.2 1.3 c0.1 0.5 0.2 1.2 0.4 1.2h7.4V67c-1-0.2-0.8-0.5-1.1-0.8s-0.6-0.9-0.6-1.8c0-1.2-0.3-2.1-0.3-3V49.7c0-3.1-0.9-5.2-3.1-6.3 c-2.2-1.1-4.6-1.7-7.4-1.7c-4.3 0-7.3 1-9.1 3.3c-1.1 1.4-1.7 3.4-1.8 5.4h6.4c0.2-1 0.5-1.7 1-2.3c0.7-0.8 1.8-1.1 3.4-1.1 c1.4 0 2.5 0.2 3.2 0.6c0.7 0.4 1.1 1.1 1.1 2.2C215.2 50.8 214.7 51.4 213.8 51.8z M215.4 58c0 2.2-0.8 3.8-2 4.6 s-2.6 1.3-4.1 1.3c-0.9 0-1.7-0.3-2.4-0.8c-0.6-0.5-1-1.3-1-2.5c0-1.3 0.5-2.2 1.6-2.8c0.6-0.4 1.6-0.7 3.1-0.9l1.5-0.3 c0.8-0.1 1.5-0.3 1.9-0.5c0.4-0.2 0.4-0.4 1.4-0.6V58z"/><path fill="#333333" d="M236.6 68.8c1.8 0 3.3-0.3 4.5-1c1.2-0.7 2.3-1.8 3.3-3.3v3.1h6v-34h-6v12.1c-1-1.2-1.9-2.1-3.1-2.8 s-2.6-1-4.2-1c-3.4 0-6.1 1.3-8.1 3.8c-2 2.5-3 5.9-3 10.3c0 3.8 1 6.9 3.1 9.3S233.7 68.8 236.6 68.8z M234.3 49.8 c0.9-1.5 2.3-2.2 4.3-2.2c1.3 0 2.4 0.4 3.4 1.2c1.6 1.3 2.4 3.6 2.4 6.7c0 2.2-0.5 4.1-1.5 5.5c-1 1.4-2.4 2.1-4.3 2.1 s-3.3-0.7-4.2-2.1s-1.4-3.3-1.4-5.7C232.9 53.1 233.4 51.3 234.3 49.8z"/><path fill="#333333" d="M258.9 65.7c2.6 2.1 5.6 3.1 9 3.1c4.1 0 7.3-1.2 9.6-3.7c1.5-1.6 2.3-3.6 2.5-4.6h-6.8 c-0.4 1-0.9 1.3-1.4 1.7c-1 0.8-2.2 1.2-3.7 1.2c-1.4 0-2.7-0.1-3.7-0.7c-1.7-1-2.6-3.2-2.7-5.2h18.6c0-3 0-4.1-0.2-5.3 c-0.3-2-1-3.9-2-5.4c-1.2-1.7-2.6-3-4.4-3.8s-3.8-1.2-6-1.2c-3.7 0-6.8 1.2-9.1 3.5c-2.3 2.4-3.5 5.8-3.5 10.2 C255 60.2 256.3 63.6 258.9 65.7z M263.7 48.6c0.9-1 2.3-1.4 4-1.4c1.6 0 2.9 0.4 4 1.3c1.1 0.9 1.7 2 1.8 4h-11.5 C262.1 50.5 262.7 49.6 263.7 48.6z"/><path fill="#333333" d="M300.4 33.5v12.1c-1-1.2-1.9-2.1-3.1-2.8s-2.6-1-4.2-1c-3.4 0-6.1 1.3-8.1 3.8c-2 2.5-3 5.9-3 10.3 c0 3.8 1 6.9 3.1 9.3s4.5 3.6 7.5 3.6c1.8 0 3.3-0.3 4.5-1c1.2-0.7 2.2-1.8 3.2-3.3v3.1h7v-34H300.4z M298.9 61 c-1 1.4-2.4 2.1-4.3 2.1s-3.3-0.7-4.2-2.1s-1.4-3.3-1.4-5.7c0-2.2 0.5-4 1.4-5.5s2.3-2.2 4.3-2.2c1.3 0 2.4 0.4 3.4 1.2 c1.6 1.3 2.4 3.6 2.4 6.7C300.4 57.8 299.9 59.6 298.9 61z"/><polygon fill="#333333" points="141.9,125.5 153.7,91.5 146.2,91.5 138.6,117.7 131.1,91.5 123.4,91.5 135.1,125.5"/><rect x="156.4" y="90.5" fill="#333333" width="7" height="6"/><rect x="156.4" y="100.5" fill="#333333" width="7" height="25"/><path fill="#333333" d="M178.9 126.4c1.8 0 3.2-0.3 4.4-1c1.2-0.7 2.1-1.8 3.1-3.3v3.4h7v-34h-7v11.8c-1-1.2-1.7-2.1-2.9-2.8 s-2.6-1-4.1-1c-3.4 0-6 1.3-8.1 3.8c-2 2.5-3 5.9-3 10.3c0 3.8 1 6.9 3.1 9.3S175.9 126.4 178.9 126.4z M176.5 107.5 c0.9-1.5 2.3-2.2 4.3-2.2c1.3 0 2.4 0.4 3.4 1.2c1.6 1.3 2.4 3.6 2.4 6.7c0 2.2-0.5 4.1-1.5 5.5c-1 1.4-2.4 2.1-4.3 2.1 s-3.3-0.7-4.2-2.1s-1.4-3.3-1.4-5.7C175.2 110.8 175.6 109 176.5 107.5z"/><path fill="#333333" d="M201.1 123.3c2.6 2.1 5.6 3.1 9 3.1c4.1 0 7.3-1.1 9.6-3.5c1.5-1.6 2.3-3.4 2.5-4.4h-6.8 c-0.4 0-0.9 1.1-1.4 1.6c-1 0.8-2.2 1.1-3.7 1.1c-1.4 0-2.7-0.5-3.7-1.1c-1.7-1-2.6-2.5-2.7-5.5h18.6c0-2 0-3.8-0.2-5 c-0.3-2-1-3.7-2-5.2c-1.2-1.7-2.6-3-4.4-3.8s-3.8-1.2-6-1.2c-3.7 0-6.8 1.2-9.1 3.6c-2.3 2.4-3.5 5.8-3.5 10.2 C197.2 117.8 198.5 121.2 201.1 123.3z M205.9 106.4c0.9-1 2.3-1.5 4-1.5c1.6 0 2.9 0.5 4 1.5c1.1 0.9 1.7 2.1 1.8 4.1h-11.5 C204.4 108.5 205 107.4 205.9 106.4z"/><path fill="#333333" d="M237.4 126.5c4.4 0 7.7-1.3 9.8-4c2.2-2.7 3.2-5.9 3.2-9.6c0-3.7-1.1-6.9-3.2-9.6s-5.4-4.1-9.8-4.1 s-7.7 1.4-9.8 4.1s-3.2 5.9-3.2 9.6c0 3.7 1.1 7 3.2 9.6C229.8 125.1 233 126.5 237.4 126.5z M232.9 106.9c1.1-1.4 2.6-2.1 4.5-2.1 s3.5 0.7 4.5 2.1c1 1.4 1.6 3.4 1.6 5.9s-0.5 4.5-1.6 5.9c-1 1.4-2.5 2.1-4.5 2.1s-3.5-0.7-4.5-2.1c-1.1-1.4-1.6-3.4-1.6-5.9 S231.8 108.3 232.9 106.9z"/><path fill="#333333" d="M269.1 120.7c-0.8 0.4-1.8 0.6-3.1 0.6c-2.2 0-3.8-0.4-4.6-1.3c-0.5-0.5-0.8-1.5-0.9-2.5h-6.8 c0 3 1 4.8 2.9 6.5c1.9 1.7 4.9 2.5 8.9 2.5c3.9 0 6.9-0.8 8.7-2.4s2.8-3.7 2.8-6.2c0-1.9-0.7-3.5-2-4.8c-1.3-1.3-3.3-2.2-6-2.8 c-4-0.9-6.3-1.5-7-1.9c-0.7-0.3-1-0.9-1-1.7c0-0.6 0.3-1.1 0.9-1.6c0.6-0.5 1.7-0.7 3.1-0.7c1.8 0 3 0.3 3.8 1.2 c0.4 0.5 0.6 0.9 0.7 1.9h6.7c-0.3-3-1.5-5.2-3.5-6.4s-4.6-1.8-7.8-1.8c-3.4 0-6 0.9-7.8 2.6c-1.9 1.7-2.8 3.7-2.8 6.1 c0 2 0.6 3.5 1.8 4.6c1.2 1.1 3.2 2 6.1 2.7c4 1 6.4 1.6 7 2c0.6 0.4 0.9 1 0.9 1.7C270.3 119.7 269.9 120.3 269.1 120.7z"/></g><g><path fill="#FFFFFF" d="M198.2 152.5c-54.5 0-98.8 44.2-98.8 98.8c0 54.6 44.2 98.8 98.8 98.8c54.5 0 98.8-44.2 98.8-98.8 C297 196.8 252.8 152.5 198.2 152.5z M198.2 332.6c-44.8 0-81.2-36.5-81.2-81.3c0-44.8 36.4-81.3 81.2-81.3 c44.8 0 81.2 36.5 81.2 81.3C279.4 296.2 243 332.6 198.2 332.6z"/><polygon fill="#FFFFFF" points="182.7,257.9 164.1,239.3 145.8,257.6 164.3,276.2 182.6,294.6 250.7,226.4 232.4,208.1"/><path fill="#FFFFFF" d="M120.8 63.2c1.1-2 1.6-4.9 1.6-8.6V33.5h-7v21.1c0 2.4-0.4 4.1-0.9 5.2c-0.9 1.9-2.8 2.9-5.7 2.9 c-2.9 0-4.7-1-5.6-2.9c-0.6-1.1-0.8-2.8-0.8-5.2V33.5h-8v21.1c0 3.7 0.8 6.5 1.9 8.6c2.1 3.8 6.3 5.6 12.2 5.6 C114.6 68.8 118.7 67 120.8 63.2z"/><path fill="#FFFFFF" d="M135.4 64.7c1 1.1 1.4 1.9 2.2 2.5c1.4 1 3.1 1.5 5.1 1.5c3.2 0 5.8-1.2 7.9-3.5c2-2.4 3.1-5.8 3.1-10.3 c0-4.3-1-7.5-3.1-9.7c-2.1-2.2-4.6-3.3-7.6-3.3c-2.1 0-3.7 0.6-5.2 1.7c-0.8 0.6-1.2 1.5-2.2 2.6v-3.7h-7v36h7V64.7z M135.9 51.1 c0.9-2.3 2.6-3.4 5-3.4c2 0 3.5 0.8 4.4 2.3c0.9 1.5 1.4 3.3 1.4 5.2c0 2.4-0.5 4.3-1.5 5.7c-1 1.4-2.4 2.2-4.3 2.2 c-1.3 0-2.4-0.4-3.4-1.1c-1.6-1.2-2.4-3.3-2.4-6.3C135.2 53.9 135.4 52.3 135.9 51.1z"/><rect x="158.4" y="33.5" fill="#FFFFFF" width="7" height="34"/><path fill="#FFFFFF" d="M183.2 68.8c4.4 0 7.7-1.3 9.8-4c2.2-2.7 3.2-5.9 3.2-9.6c0-3.7-1.1-6.9-3.2-9.6s-5.4-4.1-9.8-4.1 s-7.7 1.4-9.8 4.1s-3.2 5.9-3.2 9.6c0 3.7 1.1 7 3.2 9.6C175.5 67.5 178.8 68.8 183.2 68.8z M178.6 49.3c1.1-1.4 2.6-2.1 4.5-2.1 s3.5 0.7 4.5 2.1c1 1.4 1.6 3.4 1.6 5.9s-0.5 4.5-1.6 5.9c-1 1.4-2.5 2.1-4.5 2.1s-3.5-0.7-4.5-2.1c-1.1-1.4-1.6-3.4-1.6-5.9 S177.6 50.7 178.6 49.3z"/><path fill="#FFFFFF" d="M213.8 51.8c-0.5 0.2-1.4 0.4-2.7 0.6l-2.3 0.3c-2.6 0.3-4.6 0.9-5.9 1.6c-2.4 1.4-3.7 3.7-3.7 6.8 c0 2.4 0.8 4.3 2.3 5.6c1.5 1.3 3.4 2 5.8 2c1.8 0 3.5-0.4 4.9-1.2c1.2-0.7 2.3-1.6 3.2-2.6c0 0.6 0.1 0.9 0.2 1.3 c0.1 0.5 0.2 1.2 0.4 1.2h7.4V67c-1-0.2-0.8-0.5-1.1-0.8s-0.6-0.9-0.6-1.8c0-1.2-0.3-2.1-0.3-3V49.7c0-3.1-0.9-5.2-3.1-6.3 c-2.2-1.1-4.6-1.7-7.4-1.7c-4.3 0-7.3 1-9.1 3.3c-1.1 1.4-1.7 3.4-1.8 5.4h6.4c0.2-1 0.5-1.7 1-2.3c0.7-0.8 1.8-1.1 3.4-1.1 c1.4 0 2.5 0.2 3.2 0.6c0.7 0.4 1.1 1.1 1.1 2.2C215.2 50.8 214.7 51.4 213.8 51.8z M215.4 58c0 2.2-0.8 3.8-2 4.6 s-2.6 1.3-4.1 1.3c-0.9 0-1.7-0.3-2.4-0.8c-0.6-0.5-1-1.3-1-2.5c0-1.3 0.5-2.2 1.6-2.8c0.6-0.4 1.6-0.7 3.1-0.9l1.5-0.3 c0.8-0.1 1.5-0.3 1.9-0.5c0.4-0.2 0.4-0.4 1.4-0.6V58z"/><path fill="#FFFFFF" d="M236.6 68.8c1.8 0 3.3-0.3 4.5-1c1.2-0.7 2.3-1.8 3.3-3.3v3.1h6v-34h-6v12.1c-1-1.2-1.9-2.1-3.1-2.8 s-2.6-1-4.2-1c-3.4 0-6.1 1.3-8.1 3.8c-2 2.5-3 5.9-3 10.3c0 3.8 1 6.9 3.1 9.3S233.7 68.8 236.6 68.8z M234.3 49.8 c0.9-1.5 2.3-2.2 4.3-2.2c1.3 0 2.4 0.4 3.4 1.2c1.6 1.3 2.4 3.6 2.4 6.7c0 2.2-0.5 4.1-1.5 5.5c-1 1.4-2.4 2.1-4.3 2.1 s-3.3-0.7-4.2-2.1s-1.4-3.3-1.4-5.7C232.9 53.1 233.4 51.3 234.3 49.8z"/><path fill="#FFFFFF" d="M258.9 65.7c2.6 2.1 5.6 3.1 9 3.1c4.1 0 7.3-1.2 9.6-3.7c1.5-1.6 2.3-3.6 2.5-4.6h-6.8 c-0.4 1-0.9 1.3-1.4 1.7c-1 0.8-2.2 1.2-3.7 1.2c-1.4 0-2.7-0.1-3.7-0.7c-1.7-1-2.6-3.2-2.7-5.2h18.6c0-3 0-4.1-0.2-5.3 c-0.3-2-1-3.9-2-5.4c-1.2-1.7-2.6-3-4.4-3.8s-3.8-1.2-6-1.2c-3.7 0-6.8 1.2-9.1 3.5c-2.3 2.4-3.5 5.8-3.5 10.2 C255 60.2 256.3 63.6 258.9 65.7z M263.7 48.6c0.9-1 2.3-1.4 4-1.4c1.6 0 2.9 0.4 4 1.3c1.1 0.9 1.7 2 1.8 4h-11.5 C262.1 50.5 262.7 49.6 263.7 48.6z"/><path fill="#FFFFFF" d="M300.4 33.5v12.1c-1-1.2-1.9-2.1-3.1-2.8s-2.6-1-4.2-1c-3.4 0-6.1 1.3-8.1 3.8c-2 2.5-3 5.9-3 10.3 c0 3.8 1 6.9 3.1 9.3s4.5 3.6 7.5 3.6c1.8 0 3.3-0.3 4.5-1c1.2-0.7 2.2-1.8 3.2-3.3v3.1h7v-34H300.4z M298.9 61 c-1 1.4-2.4 2.1-4.3 2.1s-3.3-0.7-4.2-2.1s-1.4-3.3-1.4-5.7c0-2.2 0.5-4 1.4-5.5s2.3-2.2 4.3-2.2c1.3 0 2.4 0.4 3.4 1.2 c1.6 1.3 2.4 3.6 2.4 6.7C300.4 57.8 299.9 59.6 298.9 61z"/><polygon fill="#FFFFFF" points="141.9,125.5 153.7,91.5 146.2,91.5 138.6,117.7 131.1,91.5 123.4,91.5 135.1,125.5"/><rect x="156.4" y="90.5" fill="#FFFFFF" width="7" height="6"/><rect x="156.4" y="100.5" fill="#FFFFFF" width="7" height="25"/><path fill="#FFFFFF" d="M178.9 126.4c1.8 0 3.2-0.3 4.4-1c1.2-0.7 2.1-1.8 3.1-3.3v3.4h7v-34h-7v11.8c-1-1.2-1.7-2.1-2.9-2.8 s-2.6-1-4.1-1c-3.4 0-6 1.3-8.1 3.8c-2 2.5-3 5.9-3 10.3c0 3.8 1 6.9 3.1 9.3S175.9 126.4 178.9 126.4z M176.5 107.5 c0.9-1.5 2.3-2.2 4.3-2.2c1.3 0 2.4 0.4 3.4 1.2c1.6 1.3 2.4 3.6 2.4 6.7c0 2.2-0.5 4.1-1.5 5.5c-1 1.4-2.4 2.1-4.3 2.1 s-3.3-0.7-4.2-2.1s-1.4-3.3-1.4-5.7C175.2 110.8 175.6 109 176.5 107.5z"/><path fill="#FFFFFF" d="M201.1 123.3c2.6 2.1 5.6 3.1 9 3.1c4.1 0 7.3-1.1 9.6-3.5c1.5-1.6 2.3-3.4 2.5-4.4h-6.8 c-0.4 0-0.9 1.1-1.4 1.6c-1 0.8-2.2 1.1-3.7 1.1c-1.4 0-2.7-0.5-3.7-1.1c-1.7-1-2.6-2.5-2.7-5.5h18.6c0-2 0-3.8-0.2-5 c-0.3-2-1-3.7-2-5.2c-1.2-1.7-2.6-3-4.4-3.8s-3.8-1.2-6-1.2c-3.7 0-6.8 1.2-9.1 3.6c-2.3 2.4-3.5 5.8-3.5 10.2 C197.2 117.8 198.5 121.2 201.1 123.3z M205.9 106.4c0.9-1 2.3-1.5 4-1.5c1.6 0 2.9 0.5 4 1.5c1.1 0.9 1.7 2.1 1.8 4.1h-11.5 C204.4 108.5 205 107.4 205.9 106.4z"/><path fill="#FFFFFF" d="M237.4 126.5c4.4 0 7.7-1.3 9.8-4c2.2-2.7 3.2-5.9 3.2-9.6c0-3.7-1.1-6.9-3.2-9.6s-5.4-4.1-9.8-4.1 s-7.7 1.4-9.8 4.1s-3.2 5.9-3.2 9.6c0 3.7 1.1 7 3.2 9.6C229.8 125.1 233 126.5 237.4 126.5z M232.9 106.9c1.1-1.4 2.6-2.1 4.5-2.1 s3.5 0.7 4.5 2.1c1 1.4 1.6 3.4 1.6 5.9s-0.5 4.5-1.6 5.9c-1 1.4-2.5 2.1-4.5 2.1s-3.5-0.7-4.5-2.1c-1.1-1.4-1.6-3.4-1.6-5.9 S231.8 108.3 232.9 106.9z"/><path fill="#FFFFFF" d="M269.1 120.7c-0.8 0.4-1.8 0.6-3.1 0.6c-2.2 0-3.8-0.4-4.6-1.3c-0.5-0.5-0.8-1.5-0.9-2.5h-6.8 c0 3 1 4.8 2.9 6.5c1.9 1.7 4.9 2.5 8.9 2.5c3.9 0 6.9-0.8 8.7-2.4s2.8-3.7 2.8-6.2c0-1.9-0.7-3.5-2-4.8c-1.3-1.3-3.3-2.2-6-2.8 c-4-0.9-6.3-1.5-7-1.9c-0.7-0.3-1-0.9-1-1.7c0-0.6 0.3-1.1 0.9-1.6c0.6-0.5 1.7-0.7 3.1-0.7c1.8 0 3 0.3 3.8 1.2 c0.4 0.5 0.6 0.9 0.7 1.9h6.7c-0.3-3-1.5-5.2-3.5-6.4s-4.6-1.8-7.8-1.8c-3.4 0-6 0.9-7.8 2.6c-1.9 1.7-2.8 3.7-2.8 6.1 c0 2 0.6 3.5 1.8 4.6c1.2 1.1 3.2 2 6.1 2.7c4 1 6.4 1.6 7 2c0.6 0.4 0.9 1 0.9 1.7C270.3 119.7 269.9 120.3 269.1 120.7z"/></g></svg>