<svg xmlns="http://www.w3.org/2000/svg" xmlns:xlink="http://www.w3.org/1999/xlink" version="1.1" x="0px" y="0px" width="401.1px" height="432.4px" viewBox="0 0 401.1 432.4" enable-background="new 0 0 401.1 432.4" xml:space="preserve"><filter><feGaussianBlur stdDeviation="4"/></filter><path fill="#0B4F78" stroke="#000000" stroke-width="1.2365" stroke-miterlimit="10" d="M387.2 431.8H13.9 c-7.4 0-13.3-5.1-13.3-11.5V12.1c0-6.3 6-11.5 13.3-11.5h373.3c7.4 0 13.3 5.1 13.3 11.5v408.3C400.5 426.7 394.5 431.8 387.2 431.8 z"/><g filter="url(#AI_GaussianBlur_4)"><path fill="#333333" d="M200.5 153c-54.5 0-98.8 44.4-98.8 99.1s44.2 99.1 98.8 99.1c54.6 0 98.8-44.4 98.8-99.1 C299.2 197.4 255 153 200.5 153z M200.5 333.6c-44.8 0-81.2-36.6-81.2-81.5c0-44.9 36.4-81.5 81.2-81.5s81.2 36.6 81.2 81.5 C281.7 297 245.2 333.6 200.5 333.6z"/><polygon fill="#333333" points="184.9,258.6 166.3,240 148,258.4 166.5,277.1 184.9,295.4 252.9,227.1 234.6,208.7"/><path fill="#333333" d="M109 74h-7.2c-0.5 2-1.1 3.1-1.8 4c-1.3 1.7-3.2 2.5-5.7 2.5c-2.4 0-4.4-1-6-2.9c-1.6-1.9-2.4-4.8-2.4-8.7 s0.7-6.9 2.2-9c1.5-2.1 3.5-3.2 6.1-3.2c2.5 0 4.4 0.9 5.7 2.4c0.7 0.8 1.3 1.9 1.8 3.9h7.2c-0.1-2-0.9-4.5-2.4-6.6 c-2.7-3.8-6.9-5.8-12.6-5.8c-4.3 0-7.8 1.4-10.6 4.2c-3.2 3.3-4.8 7.9-4.8 13.9c0 5.6 1.4 10 4.2 13.2c2.8 3.2 6.7 4.8 11.6 4.8 c4 0 7.2-1.2 9.8-3.5C106.8 80.8 108.4 78 109 74z"/><path fill="#333333" d="M125.8 86.6c4.4 0 7.7-1.3 9.8-4c2.2-2.7 3.2-5.9 3.2-9.6c0-3.7-1.1-6.9-3.2-9.6c-2.2-2.7-5.4-4.1-9.8-4.1 c-4.4 0-7.7 1.4-9.8 4.1c-2.2 2.7-3.2 5.9-3.2 9.6c0 3.7 1.1 7 3.2 9.6C118.1 85.3 121.4 86.6 125.8 86.6z M121.3 67.1 c1.1-1.4 2.6-2.1 4.5-2.1s3.5 0.7 4.5 2.1s1.6 3.4 1.6 5.9s-0.5 4.5-1.6 5.9s-2.5 2.1-4.5 2.1s-3.5-0.7-4.5-2.1s-1.6-3.4-1.6-5.9 S120.2 68.5 121.3 67.1z"/><path fill="#333333" d="M149.9 70.4c0-1.4 0.4-2.4 0.7-3.1c0.7-1.2 2-1.9 3.9-1.9c1.6 0 3 0.6 3.6 1.9c0.3 0.7 0.8 1.8 0.8 3.3V86 h6V70.5c0-1.1 0.3-2.1 0.7-2.9c0.7-1.5 2-2.3 3.9-2.3c1.6 0 2.5 0.6 3.1 1.8c0.3 0.6 0.3 1.4 0.3 2.4V86h7.2l0-16.2 c0-1.7-0.1-3-0.2-3.8c-0.2-1.3-0.7-2.4-1.5-3.3c-0.9-1.1-1.9-1.9-3-2.3s-2.2-0.7-3.3-0.7c-1.7 0-3.2 0.3-4.6 1.1 c-1.3 0.7-2.4 1.8-3.3 3.3c-0.5-1.2-1.2-2.3-2.2-3.1c-1.2-0.9-2.8-1.3-4.7-1.3c-2.1 0-3.8 0.5-5.1 1.5c-0.7 0.6-1.4 1.5-2.4 2.8v-4 h-6v26h6V70.4z"/><path fill="#333333" d="M192.9 82.5c1 1.1 1.3 1.9 2.1 2.5c1.4 1 3 1.5 5 1.5c3.2 0 5.8-1.2 7.8-3.5s3-5.8 3-10.3 c0-4.3-1-7.5-3.1-9.7c-2.1-2.2-4.6-3.3-7.6-3.3c-2.1 0-3.6 0.6-5.1 1.7c-0.8 0.6-2.1 1.5-2.1 2.6v-4h-7v36h7V82.5z M193.2 68.9 c0.9-2.3 2.6-3.4 5-3.4c2 0 3.5 0.8 4.4 2.3c0.9 1.5 1.4 3.3 1.4 5.2c0 2.4-0.5 4.3-1.5 5.7c-1 1.4-2.4 2.2-4.3 2.2 c-1.3 0-2.4-0.4-3.4-1.1c-1.6-1.2-2.4-3.3-2.4-6.3C192.5 71.7 192.7 70.1 193.2 68.9z"/><rect x="215.9" y="51" fill="#333333" width="7" height="35"/><path fill="#333333" d="M230.8 83.5c2.6 2.1 5.6 3.1 9 3.1c4.1 0 7.3-1.4 9.6-3.9c1.5-1.6 2.3-2.7 2.5-4.7h-6.8 c-0.4 1-0.9 1.5-1.4 1.9c-1 0.8-2.2 1.2-3.7 1.2c-1.4 0-2.7-0.2-3.7-0.8c-1.7-1-2.6-3.3-2.7-5.3h18.6c0-2 0-4-0.2-5.2 c-0.3-2-1-3.8-2-5.3c-1.2-1.7-2.6-3-4.4-3.8s-3.8-1.2-6-1.2c-3.7 0-6.8 1.2-9.1 3.5c-2.3 2.4-3.5 5.8-3.5 10.2 C227 78 228.3 81.4 230.8 83.5z M235.6 66.3c0.9-1 2.3-1.4 4-1.4c1.6 0 2.9 0.3 4 1.2c1.1 0.9 1.7 2.9 1.8 3.9h-11.5 C234.1 69 234.7 67.2 235.6 66.3z"/><path fill="#333333" d="M256.9 80.9c0 1.6 0.2 2.8 1 3.5c1.2 1.2 3 1.8 6.2 1.6l2.9-0.1v-5c0 0-0.2 0-0.4 0s-0.3 0-0.5 0 c-1.4 0-2.3-0.1-2.5-0.4s-0.5-0.9-0.5-2V65h4v-5h-4v-7h-6v7h-4v5h4V80.9z"/><path fill="#333333" d="M273.5 83.5c2.6 2.1 5.6 3.1 9 3.1c4.1 0 7.3-1.4 9.6-3.9c1.5-1.6 2.3-2.7 2.5-4.7h-6.8 c-0.4 1-0.9 1.5-1.4 1.9c-1 0.8-2.2 1.2-3.7 1.2c-1.4 0-2.7-0.2-3.7-0.8c-1.7-1-2.6-3.3-2.7-5.3H295c0-2 0-4-0.2-5.2 c-0.3-2-1-3.8-2-5.3c-1.2-1.7-2.6-3-4.4-3.8s-3.8-1.2-6-1.2c-3.7 0-6.8 1.2-9.1 3.5c-2.3 2.4-3.5 5.8-3.5 10.2 C269.6 78 270.9 81.4 273.5 83.5z M278.3 66.3c0.9-1 2.3-1.4 4-1.4c1.6 0 2.9 0.3 4 1.2c1.1 0.9 1.7 2.9 1.8 3.9h-11.5 C276.8 69 277.4 67.2 278.3 66.3z"/><path fill="#333333" d="M314.9 51v12.4c-1-1.2-1.8-2.1-3-2.8s-2.6-1-4.2-1c-3.4 0-6.1 1.2-8.1 3.8s-3 5.9-3 10.3 c0 3.8 1 6.9 3.1 9.3s4.5 3.6 7.5 3.6c1.8 0 3.2-0.3 4.5-1s2.2-1.8 3.2-3.3V86h7V51H314.9z M313.5 78.8c-1 1.4-2.4 2.1-4.3 2.1 s-3.3-0.7-4.2-2.1s-1.4-3.3-1.4-5.7c0-2.2 0.5-4 1.4-5.5s2.3-2.2 4.3-2.2c1.3 0 2.4 0.4 3.4 1.2c1.6 1.3 2.4 3.6 2.4 6.7 C315 75.6 314.5 77.4 313.5 78.8z"/></g><g><path fill="#FFFFFF" d="M200.5 153c-54.5 0-98.8 44.4-98.8 99.1s44.2 99.1 98.8 99.1c54.6 0 98.8-44.4 98.8-99.1 C299.2 197.4 255 153 200.5 153z M200.5 333.6c-44.8 0-81.2-36.6-81.2-81.5c0-44.9 36.4-81.5 81.2-81.5s81.2 36.6 81.2 81.5 C281.7 297 245.2 333.6 200.5 333.6z"/><polygon fill="#FFFFFF" points="184.9,258.6 166.3,240 148,258.4 166.5,277.1 184.9,295.4 252.9,227.1 234.6,208.7"/><path fill="#FFFFFF" d="M109 74h-7.2c-0.5 2-1.1 3.1-1.8 4c-1.3 1.7-3.2 2.5-5.7 2.5c-2.4 0-4.4-1-6-2.9c-1.6-1.9-2.4-4.8-2.4-8.7 s0.7-6.9 2.2-9c1.5-2.1 3.5-3.2 6.1-3.2c2.5 0 4.4 0.9 5.7 2.4c0.7 0.8 1.3 1.9 1.8 3.9h7.2c-0.1-2-0.9-4.5-2.4-6.6 c-2.7-3.8-6.9-5.8-12.6-5.8c-4.3 0-7.8 1.4-10.6 4.2c-3.2 3.3-4.8 7.9-4.8 13.9c0 5.6 1.4 10 4.2 13.2c2.8 3.2 6.7 4.8 11.6 4.8 c4 0 7.2-1.2 9.8-3.5C106.8 80.8 108.4 78 109 74z"/><path fill="#FFFFFF" d="M125.8 86.6c4.4 0 7.7-1.3 9.8-4c2.2-2.7 3.2-5.9 3.2-9.6c0-3.7-1.1-6.9-3.2-9.6c-2.2-2.7-5.4-4.1-9.8-4.1 c-4.4 0-7.7 1.4-9.8 4.1c-2.2 2.7-3.2 5.9-3.2 9.6c0 3.7 1.1 7 3.2 9.6C118.1 85.3 121.4 86.6 125.8 86.6z M121.3 67.1 c1.1-1.4 2.6-2.1 4.5-2.1s3.5 0.7 4.5 2.1s1.6 3.4 1.6 5.9s-0.5 4.5-1.6 5.9s-2.5 2.1-4.5 2.1s-3.5-0.7-4.5-2.1s-1.6-3.4-1.6-5.9 S120.2 68.5 121.3 67.1z"/><path fill="#FFFFFF" d="M149.9 70.4c0-1.4 0.4-2.4 0.7-3.1c0.7-1.2 2-1.9 3.9-1.9c1.6 0 3 0.6 3.6 1.9c0.3 0.7 0.8 1.8 0.8 3.3V86 h6V70.5c0-1.1 0.3-2.1 0.7-2.9c0.7-1.5 2-2.3 3.9-2.3c1.6 0 2.5 0.6 3.1 1.8c0.3 0.6 0.3 1.4 0.3 2.4V86h7.2l0-16.2 c0-1.7-0.1-3-0.2-3.8c-0.2-1.3-0.7-2.4-1.5-3.3c-0.9-1.1-1.9-1.9-3-2.3s-2.2-0.7-3.3-0.7c-1.7 0-3.2 0.3-4.6 1.1 c-1.3 0.7-2.4 1.8-3.3 3.3c-0.5-1.2-1.2-2.3-2.2-3.1c-1.2-0.9-2.8-1.3-4.7-1.3c-2.1 0-3.8 0.5-5.1 1.5c-0.7 0.6-1.4 1.5-2.4 2.8v-4 h-6v26h6V70.4z"/><path fill="#FFFFFF" d="M192.9 82.5c1 1.1 1.3 1.9 2.1 2.5c1.4 1 3 1.5 5 1.5c3.2 0 5.8-1.2 7.8-3.5s3-5.8 3-10.3 c0-4.3-1-7.5-3.1-9.7c-2.1-2.2-4.6-3.3-7.6-3.3c-2.1 0-3.6 0.6-5.1 1.7c-0.8 0.6-2.1 1.5-2.1 2.6v-4h-7v36h7V82.5z M193.2 68.9 c0.9-2.3 2.6-3.4 5-3.4c2 0 3.5 0.8 4.4 2.3c0.9 1.5 1.4 3.3 1.4 5.2c0 2.4-0.5 4.3-1.5 5.7c-1 1.4-2.4 2.2-4.3 2.2 c-1.3 0-2.4-0.4-3.4-1.1c-1.6-1.2-2.4-3.3-2.4-6.3C192.5 71.7 192.7 70.1 193.2 68.9z"/><rect x="215.9" y="51" fill="#FFFFFF" width="7" height="35"/><path fill="#FFFFFF" d="M230.8 83.5c2.6 2.1 5.6 3.1 9 3.1c4.1 0 7.3-1.4 9.6-3.9c1.5-1.6 2.3-2.7 2.5-4.7h-6.8 c-0.4 1-0.9 1.5-1.4 1.9c-1 0.8-2.2 1.2-3.7 1.2c-1.4 0-2.7-0.2-3.7-0.8c-1.7-1-2.6-3.3-2.7-5.3h18.6c0-2 0-4-0.2-5.2 c-0.3-2-1-3.8-2-5.3c-1.2-1.7-2.6-3-4.4-3.8s-3.8-1.2-6-1.2c-3.7 0-6.8 1.2-9.1 3.5c-2.3 2.4-3.5 5.8-3.5 10.2 C227 78 228.3 81.4 230.8 83.5z M235.6 66.3c0.9-1 2.3-1.4 4-1.4c1.6 0 2.9 0.3 4 1.2c1.1 0.9 1.7 2.9 1.8 3.9h-11.5 C234.1 69 234.7 67.2 235.6 66.3z"/><path fill="#FFFFFF" d="M256.9 80.9c0 1.6 0.2 2.8 1 3.5c1.2 1.2 3 1.8 6.2 1.6l2.9-0.1v-5c0 0-0.2 0-0.4 0s-0.3 0-0.5 0 c-1.4 0-2.3-0.1-2.5-0.4s-0.5-0.9-0.5-2V65h4v-5h-4v-7h-6v7h-4v5h4V80.9z"/><path fill="#FFFFFF" d="M273.5 83.5c2.6 2.1 5.6 3.1 9 3.1c4.1 0 7.3-1.4 9.6-3.9c1.5-1.6 2.3-2.7 2.5-4.7h-6.8 c-0.4 1-0.9 1.5-1.4 1.9c-1 0.8-2.2 1.2-3.7 1.2c-1.4 0-2.7-0.2-3.7-0.8c-1.7-1-2.6-3.3-2.7-5.3H295c0-2 0-4-0.2-5.2 c-0.3-2-1-3.8-2-5.3c-1.2-1.7-2.6-3-4.4-3.8s-3.8-1.2-6-1.2c-3.7 0-6.8 1.2-9.1 3.5c-2.3 2.4-3.5 5.8-3.5 10.2 C269.6 78 270.9 81.4 273.5 83.5z M278.3 66.3c0.9-1 2.3-1.4 4-1.4c1.6 0 2.9 0.3 4 1.2c1.1 0.9 1.7 2.9 1.8 3.9h-11.5 C276.8 69 277.4 67.2 278.3 66.3z"/><path fill="#FFFFFF" d="M314.9 51v12.4c-1-1.2-1.8-2.1-3-2.8s-2.6-1-4.2-1c-3.4 0-6.1 1.2-8.1 3.8s-3 5.9-3 10.3 c0 3.8 1 6.9 3.1 9.3s4.5 3.6 7.5 3.6c1.8 0 3.2-0.3 4.5-1s2.2-1.8 3.2-3.3V86h7V51H314.9z M313.5 78.8c-1 1.4-2.4 2.1-4.3 2.1 s-3.3-0.7-4.2-2.1s-1.4-3.3-1.4-5.7c0-2.2 0.5-4 1.4-5.5s2.3-2.2 4.3-2.2c1.3 0 2.4 0.4 3.4 1.2c1.6 1.3 2.4 3.6 2.4 6.7 C315 75.6 314.5 77.4 313.5 78.8z"/></g></svg>