<svg xmlns="http://www.w3.org/2000/svg" xmlns:xlink="http://www.w3.org/1999/xlink" version="1.1" x="0px" y="0px" width="401.1px" height="501.4px" viewBox="-395.9 101.2 401.1 501.4" enable-background="new -395.9 101.2 401.1 501.4" xml:space="preserve"><path fill="#F8F8F8" stroke="#CCCCCC" stroke-width="1.2365" stroke-miterlimit="10" d="M-8.7 533h-110l-80 68.8l-80.4-68.8H-382 c-7.4 0-13.3-5.1-13.3-11.5V113.3c0-6.3 6-11.5 13.3-11.5H-8.7c7.4 0 13.3 5.1 13.3 11.5v408.3C4.6 527.9-1.4 533-8.7 533z"/><g display="none"><g display="inline"><path fill="#A65A26" d="M-195.4 254.2c-54.5 0-98.8 44.4-98.8 99.1s44.2 99.1 98.8 99.1s98.8-44.4 98.8-99.1 C-96.7 298.6-140.9 254.2-195.4 254.2z M-195.4 434.8c-44.8 0-81.2-36.6-81.2-81.5s36.4-81.5 81.2-81.5s81.2 36.6 81.2 81.5 S-150.7 434.8-195.4 434.8z"/><polygon fill="#A65A26" points="-211,359.8 -229.6,341.2 -247.9,359.6 -229.4,378.3 -211,396.6 -143,328.3 -161.3,309.9"/></g><g display="inline" enable-background="new    "><path fill="#A65A26" d="M-312.4 156c2.8-2.8 6.3-4.3 10.6-4.3c5.8 0 10 1.9 12.6 5.7c1.5 2.1 2.3 4.3 2.4 6.4h-7.2 c-0.5-1.7-1-2.9-1.8-3.8c-1.3-1.5-3.2-2.2-5.7-2.2c-2.6 0-4.6 1.1-6.1 3.2c-1.5 2.1-2.2 5.1-2.2 9c0 3.9 0.8 6.8 2.4 8.7 c1.6 1.9 3.6 2.9 6 2.9c2.5 0 4.4-0.8 5.7-2.5c0.7-0.9 1.3-2.2 1.8-4h7.2c-0.6 3.8-2.2 6.8-4.7 9.2s-5.8 3.5-9.8 3.5 c-4.9 0-8.8-1.6-11.6-4.8s-4.2-7.6-4.2-13.2C-317.2 163.9-315.6 159.3-312.4 156z"/><path fill="#A65A26" d="M-260.3 183.8c-2.2 2.7-5.4 4-9.8 4c-4.4 0-7.7-1.3-9.8-4c-2.2-2.7-3.2-5.9-3.2-9.6s1.1-6.9 3.2-9.6 c2.2-2.7 5.4-4.1 9.8-4.1c4.4 0 7.7 1.4 9.8 4.1c2.2 2.7 3.2 5.9 3.2 9.6S-258.1 181.1-260.3 183.8z M-265.6 180.1 c1-1.4 1.6-3.4 1.6-5.9s-0.5-4.5-1.6-5.9c-1.1-1.4-2.5-2.1-4.5-2.1s-3.5 0.7-4.5 2.1c-1 1.4-1.6 3.4-1.6 5.9s0.5 4.5 1.6 5.9 c1.1 1.4 2.6 2.1 4.5 2.1C-268.2 182.2-266.7 181.5-265.6 180.1z"/><path fill="#A65A26" d="M-220.4 161.5c1.1 0.4 2.1 1.2 3 2.3c0.7 0.9 1.2 2 1.5 3.3c0.2 0.9 0.2 2.1 0.2 3.8V187h-6.8v-16.3 c0-1-0.2-1.8-0.5-2.4c-0.6-1.2-1.7-1.8-3.3-1.8c-1.8 0-3.1 0.8-3.8 2.3c-0.4 0.8-0.5 1.8-0.5 2.9v15.2h-6.7v-15.2 c0-1.5-0.2-2.6-0.5-3.3c-0.6-1.2-1.7-1.9-3.3-1.9c-1.9 0-3.2 0.6-3.8 1.9c-0.4 0.7-0.5 1.8-0.5 3.1v15.4h-6.8v-25.5h6.5v3.7 c0.8-1.3 1.6-2.3 2.3-2.8c1.3-1 3-1.5 5-1.5s3.5 0.4 4.7 1.3c1 0.8 1.7 1.8 2.2 3.1c0.9-1.5 2-2.6 3.3-3.3 c1.4-0.7 2.9-1.1 4.6-1.1C-222.6 160.8-221.5 161-220.4 161.5z"/><path fill="#A65A26" d="M-188.1 164.1c2.1 2.2 3.1 5.4 3.1 9.7c0 4.5-1 7.9-3.1 10.3s-4.7 3.5-7.9 3.5c-2 0-3.7-0.5-5.1-1.5 c-0.7-0.6-1.5-1.4-2.2-2.5v13.3h-6.6v-35.6h6.4v3.8c0.7-1.1 1.5-2 2.3-2.6c1.5-1.1 3.3-1.7 5.3-1.7 C-192.8 160.8-190.2 161.9-188.1 164.1z M-193.3 168.9c-0.9-1.5-2.4-2.3-4.4-2.3c-2.4 0-4.1 1.1-5 3.4c-0.5 1.2-0.7 2.8-0.7 4.6 c0 3 0.8 5.1 2.4 6.3c0.9 0.7 2.1 1.1 3.4 1.1c1.9 0 3.3-0.7 4.3-2.2c1-1.4 1.5-3.4 1.5-5.7C-191.9 172.2-192.3 170.4-193.3 168.9 z"/><path fill="#A65A26" d="M-173.5 186.9h-6.7v-34.5h6.7V186.9z"/><path fill="#A65A26" d="M-150.3 161.9c1.8 0.8 3.3 2.1 4.4 3.8c1 1.5 1.7 3.3 2 5.3c0.2 1.2 0.3 2.9 0.2 5.1h-18.5 c0.1 2.6 1 4.4 2.7 5.4c1 0.6 2.2 1 3.7 1s2.8-0.4 3.7-1.2c0.5-0.4 1-1 1.4-1.8h6.7c-0.2 1.5-1 3.1-2.5 4.6 c-2.3 2.5-5.5 3.7-9.6 3.7c-3.4 0-6.4-1-9-3.1c-2.6-2.1-3.9-5.5-3.9-10.2c0-4.4 1.2-7.8 3.5-10.2c2.3-2.4 5.4-3.5 9.1-3.5 C-154.1 160.7-152.1 161.1-150.3 161.9z M-160.3 167.7c-0.9 1-1.5 2.3-1.8 4h11.5c-0.1-1.8-0.7-3.1-1.8-4c-1.1-0.9-2.4-1.4-4-1.4 C-158 166.2-159.4 166.7-160.3 167.7z"/><path fill="#A65A26" d="M-142.9 166.4v-4.8h3.6v-7.1h6.6v7.1h4.1v4.8h-4.1v13.5c0 1 0.1 1.7 0.4 2s1.1 0.4 2.4 0.4 c0.2 0 0.4 0 0.6 0s0.4 0 0.7 0v5l-3.2 0.1c-3.2 0.1-5.3-0.4-6.5-1.6c-0.8-0.8-1.1-1.9-1.1-3.5v-15.7h-3.5V166.4z"/><path fill="#A65A26" d="M-107.6 161.9c1.8 0.8 3.3 2.1 4.4 3.8c1 1.5 1.7 3.3 2 5.3c0.2 1.2 0.3 2.9 0.2 5.1h-18.6 c0.1 2.6 1 4.4 2.7 5.4c1 0.6 2.2 1 3.7 1s2.8-0.4 3.7-1.2c0.5-0.4 1-1 1.4-1.8h6.8c-0.2 1.5-1 3.1-2.5 4.6 c-2.3 2.5-5.5 3.7-9.6 3.7c-3.4 0-6.4-1-9-3.1s-3.9-5.5-3.9-10.2c0-4.4 1.2-7.8 3.5-10.2s5.4-3.5 9.1-3.5 C-111.4 160.7-109.4 161.1-107.6 161.9z M-117.6 167.7c-0.9 1-1.5 2.3-1.8 4h11.5c-0.1-1.8-0.7-3.1-1.8-4c-1.1-0.9-2.4-1.4-4-1.4 C-115.3 166.2-116.7 166.7-117.6 167.7z"/><path fill="#A65A26" d="M-84 161.8c1.2 0.7 2.2 1.6 2.9 2.8v-12.2h6.8v34.5h-6.5v-3.5c-1 1.5-2 2.6-3.3 3.3s-2.7 1-4.5 1 c-3 0-5.5-1.2-7.5-3.6s-3.1-5.5-3.1-9.3c0-4.4 1-7.8 3-10.3s4.7-3.8 8.1-3.8C-86.6 160.8-85.2 161.1-84 161.8z M-82.4 180 c1-1.4 1.5-3.2 1.5-5.5c0-3.1-0.8-5.4-2.4-6.7c-1-0.8-2.1-1.2-3.4-1.2c-2 0-3.4 0.7-4.3 2.2s-1.4 3.3-1.4 5.5 c0 2.4 0.5 4.2 1.4 5.7s2.3 2.1 4.2 2.1S-83.4 181.4-82.4 180z"/></g></g><g><path fill="#A65A26" d="M-302.4 152.6h24.6v6.1h-17.5v7.9h15.3v6h-15.3v14.5h-7.2V152.6z"/><path fill="#A65A26" d="M-257 162.1c1.8 0.8 3.3 2.1 4.4 3.8c1 1.5 1.7 3.3 2 5.3c0.2 1.2 0.3 2.9 0.2 5.1h-18.6 c0.1 2.6 1 4.4 2.7 5.4c1 0.6 2.2 1 3.7 1c1.5 0 2.8-0.4 3.7-1.2c0.5-0.4 1-1 1.4-1.8h6.8c-0.2 1.5-1 3.1-2.5 4.6 c-2.3 2.5-5.5 3.7-9.6 3.7c-3.4 0-6.4-1-9-3.1c-2.6-2.1-3.9-5.5-3.9-10.2c0-4.4 1.2-7.8 3.5-10.2c2.3-2.4 5.4-3.5 9.1-3.5 C-260.8 160.9-258.8 161.3-257 162.1z M-267 167.8c-0.9 1-1.5 2.3-1.8 4h11.5c-0.1-1.8-0.7-3.1-1.8-4c-1.1-0.9-2.4-1.4-4-1.4 C-264.7 166.4-266.1 166.9-267 167.8z"/><path fill="#A65A26" d="M-230.3 162.1c1.8 0.8 3.3 2.1 4.4 3.8c1 1.5 1.7 3.3 2 5.3c0.2 1.2 0.3 2.9 0.2 5.1h-18.6 c0.1 2.6 1 4.4 2.7 5.4c1 0.6 2.2 1 3.7 1c1.5 0 2.8-0.4 3.7-1.2c0.5-0.4 1-1 1.4-1.8h6.8c-0.2 1.5-1 3.1-2.5 4.6 c-2.3 2.5-5.5 3.7-9.6 3.7c-3.4 0-6.4-1-9-3.1c-2.6-2.1-3.9-5.5-3.9-10.2c0-4.4 1.2-7.8 3.5-10.2c2.3-2.4 5.4-3.5 9.1-3.5 C-234.1 160.9-232.1 161.3-230.3 162.1z M-240.3 167.8c-0.9 1-1.5 2.3-1.8 4h11.5c-0.1-1.8-0.7-3.1-1.8-4c-1.1-0.9-2.4-1.4-4-1.4 C-238 166.4-239.4 166.9-240.3 167.8z"/><path fill="#A65A26" d="M-206.7 162c1.2 0.7 2.2 1.6 2.9 2.8v-12.2h6.8v34.5h-6.5v-3.5c-1 1.5-2 2.6-3.3 3.3s-2.7 1-4.5 1 c-3 0-5.5-1.2-7.5-3.6s-3.1-5.5-3.1-9.3c0-4.4 1-7.8 3-10.3s4.7-3.8 8.1-3.8C-209.3 160.9-207.9 161.3-206.7 162z M-205.1 180.2 c1-1.4 1.5-3.2 1.5-5.5c0-3.1-0.8-5.4-2.4-6.7c-1-0.8-2.1-1.2-3.4-1.2c-2 0-3.4 0.7-4.3 2.2s-1.4 3.3-1.4 5.5 c0 2.4 0.5 4.2 1.4 5.7s2.3 2.1 4.2 2.1S-206.1 181.6-205.1 180.2z"/><path fill="#A65A26" d="M-169.1 164.6c1.9 2.4 2.9 5.5 2.9 9.4c0 4-0.9 7.3-2.8 9.9s-4.5 3.9-7.9 3.9c-2.1 0-3.8-0.4-5.1-1.3 c-0.8-0.5-1.6-1.4-2.5-2.6v3.2h-6.6v-34.5h6.7v12.3c0.8-1.2 1.8-2.1 2.8-2.7c1.2-0.8 2.8-1.2 4.6-1.2 C-173.7 161-171 162.2-169.1 164.6z M-174.7 180.2c1-1.4 1.4-3.2 1.4-5.5c0-1.8-0.2-3.3-0.7-4.5c-0.9-2.2-2.6-3.4-5-3.4 c-2.4 0-4.1 1.1-5 3.3c-0.5 1.2-0.7 2.7-0.7 4.5c0 2.2 0.5 4 1.5 5.4s2.5 2.2 4.5 2.2C-177 182.3-175.7 181.6-174.7 180.2z"/><path fill="#A65A26" d="M-151.5 171.6c1.2-0.2 2.1-0.4 2.7-0.6c1-0.4 1.4-1 1.4-1.9c0-1-0.4-1.8-1.1-2.2c-0.7-0.4-1.8-0.6-3.2-0.6 c-1.6 0-2.7 0.4-3.4 1.2c-0.5 0.6-0.8 1.4-1 2.3h-6.4c0.1-2.2 0.8-4.1 1.9-5.5c1.8-2.2 4.8-3.4 9.1-3.4c2.8 0 5.3 0.6 7.5 1.7 c2.2 1.1 3.3 3.2 3.3 6.3v11.7c0 0.8 0 1.8 0 3c0 0.9 0.2 1.5 0.4 1.8s0.5 0.6 1 0.8v1h-7.3c-0.2-0.5-0.3-1-0.4-1.5s-0.1-1-0.2-1.5 c-0.9 1-2 1.9-3.2 2.6c-1.4 0.8-3.1 1.2-4.9 1.2c-2.3 0-4.2-0.7-5.8-2c-1.5-1.3-2.3-3.2-2.3-5.6c0-3.1 1.2-5.4 3.7-6.8 c1.3-0.8 3.3-1.3 5.9-1.6L-151.5 171.6z M-147.4 174.7c-0.4 0.3-0.9 0.5-1.3 0.6c-0.4 0.2-1 0.3-1.8 0.5l-1.5 0.3 c-1.4 0.2-2.4 0.6-3.1 0.9c-1.1 0.6-1.6 1.6-1.6 2.8c0 1.1 0.3 2 1 2.5s1.4 0.8 2.3 0.8c1.5 0 2.8-0.4 4-1.3s1.9-2.4 1.9-4.6V174.7 z"/><path fill="#A65A26" d="M-119.6 170.7c-0.1-1-0.4-1.8-1-2.6c-0.8-1-1.9-1.5-3.5-1.5c-2.3 0-3.8 1.1-4.6 3.4 c-0.4 1.2-0.7 2.8-0.7 4.7c0 1.9 0.2 3.4 0.7 4.5c0.8 2.1 2.3 3.2 4.5 3.2c1.6 0 2.7-0.4 3.3-1.3s1.1-1.9 1.2-3.3h6.8 c-0.2 2-0.9 4-2.2 5.8c-2.1 2.9-5.2 4.4-9.3 4.4c-4.1 0-7.1-1.2-9.1-3.7s-2.9-5.6-2.9-9.5c0-4.4 1.1-7.8 3.2-10.2s5.1-3.7 8.9-3.7 c3.2 0 5.8 0.7 7.9 2.2s3.2 4 3.6 7.6H-119.6z"/><path fill="#A65A26" d="M-108.3 152.7h6.6v18.6l8.4-9.6h8.3l-9.2 9.5l9.5 15.9h-8.1l-6.2-10.9l-2.8 2.9v8h-6.6V152.7z"/></g><g><path fill="#A65A26" d="M-118.2 262.5h-154.3c-18.4 0-33.4 15-33.4 33.4v85.7c0 18.4 15 33.4 33.4 33.4h20.5l15.2 38 c1.2 2.9 4 4.9 7.2 4.9s6-1.9 7.2-4.9l15.2-38h89.1c18.4 0 33.4-15 33.4-33.4v-85.7C-84.8 277.5-99.8 262.5-118.2 262.5z M-100.2 381.6c0 9.9-8.1 18-18 18h-94.3c-3.2 0-6 1.9-7.2 4.9l-10 24.9l-10-24.9c-1.2-2.9-4-4.9-7.2-4.9h-25.7 c-9.9 0-18-8.1-18-18v-85.7c0-9.9 8.1-18 18-18h154.3c9.9 0 18 8.1 18 18V381.6z"/><path fill="#A65A26" d="M-143.9 313.9h-102.9c-4.3 0-7.7 3.4-7.7 7.7c0 4.3 3.4 7.7 7.7 7.7h102.9c4.3 0 7.7-3.4 7.7-7.7 C-136.2 317.3-139.7 313.9-143.9 313.9z"/><path fill="#A65A26" d="M-161.1 348.2h-85.7c-4.3 0-7.7 3.4-7.7 7.7s3.4 7.7 7.7 7.7h85.7c4.3 0 7.7-3.4 7.7-7.7 S-156.8 348.2-161.1 348.2z"/></g></svg>