<svg xmlns="http://www.w3.org/2000/svg" xmlns:xlink="http://www.w3.org/1999/xlink" version="1.1" x="0px" y="0px" width="401.2px" height="501.4px" viewBox="0 0 401.2 501.4" enable-background="new 0 0 401.2 501.4" xml:space="preserve"><g><path fill="#F8F8F8" stroke="#CCCCCC" stroke-width="1.2365" stroke-miterlimit="10" d="M387.3 431.8h-110l-80 68.8l-80.4-68.8H14 c-7.4 0-13.3-5.1-13.3-11.5V12.1c0-6.3 6-11.5 13.3-11.5h373.3c7.4 0 13.3 5.1 13.3 11.5v408.3 C400.6 426.7 394.6 431.8 387.3 431.8z"/><g><path fill="#A65A26" d="M200.6 153c-54.5 0-98.8 44.4-98.8 99.1c0 54.7 44.2 99.1 98.8 99.1s98.8-44.4 98.8-99.1 C299.3 197.4 255.1 153 200.6 153z M200.6 333.6c-44.8 0-81.2-36.6-81.2-81.5c0-44.9 36.4-81.5 81.2-81.5 c44.8 0 81.2 36.6 81.2 81.5C281.8 297 245.3 333.6 200.6 333.6z"/><polygon fill="#A65A26" points="185,258.6 166.4,240 148.1,258.4 166.6,277.1 185,295.4 253,227.1 234.7,208.7"/><path fill="#A65A26" d="M120.9 63.4c1.1-2.1 1.6-4.9 1.6-8.6V34.5h-7v20.3c0 2.4-0.4 4.1-0.9 5.2c-0.9 1.9-2.8 2.9-5.7 2.9 c-2.9 0-4.7-1-5.6-2.9c-0.6-1.1-0.8-2.8-0.8-5.2V34.5h-7v20.3c0 3.7 0.3 6.6 1.4 8.6c2.1 3.8 6 5.6 12 5.6 C114.9 69.1 118.7 67.2 120.9 63.4z"/><path fill="#A65A26" d="M135.5 64.9c1 1.1 1.4 1.9 2.2 2.5c1.4 1 3.1 1.5 5.1 1.5c3.2 0 5.8-1.2 7.9-3.6c2-2.4 3.1-5.8 3.1-10.3 c0-4.3-1-7.5-3.1-9.7c-2.1-2.2-4.6-3.3-7.6-3.3c-2.1 0-3.7 0.6-5.2 1.7c-0.8 0.6-1.2 1.5-2.2 2.6v-2.8h-7v36h7V64.9z M136 51.3 c0.9-2.3 2.6-3.5 5-3.5c2 0 3.5 0.8 4.4 2.3c0.9 1.5 1.4 3.3 1.4 5.2c0 2.4-0.5 4.3-1.5 5.8c-1 1.4-2.4 2.2-4.3 2.2 c-1.3 0-2.4-0.4-3.4-1.1c-1.6-1.2-2.4-3.3-2.4-6.3C135.3 54.1 135.5 52.5 136 51.3z"/><rect x="158.5" y="34.5" fill="#A65A26" width="7" height="34"/><path fill="#A65A26" d="M183.2 69.1c4.4 0 7.7-1.3 9.8-4s3.2-5.9 3.2-9.6c0-3.7-1.1-6.9-3.2-9.6c-2.2-2.7-5.4-4.1-9.8-4.1 s-7.7 1.4-9.8 4.1c-2.2 2.7-3.2 5.9-3.2 9.6c0 3.8 1.1 7 3.2 9.6S178.8 69.1 183.2 69.1z M178.7 49.5c1.1-1.4 2.6-2.1 4.5-2.1 s3.5 0.7 4.5 2.1s1.6 3.4 1.6 5.9c0 2.6-0.5 4.5-1.6 5.9c-1 1.4-2.5 2.1-4.5 2.1s-3.5-0.7-4.5-2.1c-1.1-1.4-1.6-3.4-1.6-5.9 C177.1 52.8 177.6 50.9 178.7 49.5z"/><path fill="#A65A26" d="M213.8 52c-0.5 0.2-1.4 0.4-2.7 0.6l-2.3 0.3c-2.6 0.3-4.6 0.9-5.9 1.6c-2.4 1.4-3.7 3.7-3.7 6.8 c0 2.4 0.8 4.3 2.3 5.6c1.5 1.3 3.4 2 5.8 2c1.8 0 3.5-0.4 4.9-1.2c1.2-0.7 2.3-1.6 3.2-2.6c0 0.6 0.1 1.3 0.2 1.7 c0.1 0.5 0.2 1.6 0.4 1.6h7.4v-1.3c0-0.2-0.8-0.5-1.1-0.8s-0.1-0.9-0.1-1.8c0-1.2 0.2-2.1 0.2-3V49.9c0-3.1-1.4-5.2-3.6-6.3 c-2.2-1.1-4.8-1.7-7.6-1.7c-4.3 0-7.4 1.5-9.2 3.7c-1.1 1.4-1.8 3.9-2 5.9h6.4c0.2-1 0.5-2.1 1-2.7c0.7-0.8 1.8-1.3 3.4-1.3 c1.4 0 2.5 0.1 3.2 0.5c0.7 0.4 1.1 1.1 1.1 2.1C215.3 51 214.8 51.6 213.8 52z M215.5 58.2c0 2.2-0.8 3.8-2 4.6 c-1.2 0.8-2.6 1.3-4.1 1.3c-0.9 0-1.7-0.3-2.4-0.8c-0.6-0.5-1-1.3-1-2.5c0-1.3 0.5-2.2 1.6-2.8c0.6-0.4 1.6-0.7 3.1-0.9l1.5-0.3 c0.8-0.1 1.5-0.3 1.9-0.5c0.4-0.2 1.4-0.4 1.4-0.6V58.2z"/><path fill="#A65A26" d="M236.7 69c1.8 0 3.8-0.3 5-1s1.8-1.8 3.8-3.3v3.9h5v-34h-7v11.3c0-1.2-1.4-2.2-2.6-2.8s-2.4-1-3.9-1 c-3.4 0-6 1.3-8 3.8c-2 2.5-3 6-3 10.3c0 3.8 1 6.9 3.1 9.3C231.2 67.8 233.7 69 236.7 69z M234.4 50c0.9-1.5 2.3-2.2 4.3-2.2 c1.3 0 2.4 0.4 3.4 1.2c1.6 1.3 2.4 3.6 2.4 6.7c0 2.2-0.5 4.1-1.5 5.5c-1 1.4-2.4 2.1-4.3 2.1s-3.3-0.7-4.2-2.1s-1.4-3.3-1.4-5.7 C233 53.3 233.4 51.5 234.4 50z"/><path fill="#A65A26" d="M258.9 65.9c2.6 2.1 5.6 3.2 9 3.2c4.1 0 7.3-1.3 9.6-3.8c1.5-1.6 2.3-1.7 2.5-4.7h-6.8 c-0.4 1-0.9 1.4-1.4 1.8c-1 0.8-2.2 1.2-3.7 1.2c-1.4 0-2.7-0.2-3.7-0.8c-1.7-1-2.6-2.2-2.7-5.2h18.6c0-1 0-4.1-0.2-5.2 c-0.3-2-1-3.8-2-5.4c-1.2-1.7-2.6-3-4.4-3.8c-1.8-0.8-3.8-1.2-6-1.2c-3.7 0-6.8 1.2-9.1 3.5c-2.3 2.4-3.5 5.8-3.5 10.2 C255 60.4 256.3 63.8 258.9 65.9z M263.7 49.2c0.9-1 2.3-1.6 4-1.6c1.6 0 2.9 0.7 4 1.6c1.1 0.9 1.7 2.3 1.8 4.3h-11.5 C262.2 51.5 262.8 50.2 263.7 49.2z"/><path fill="#A65A26" d="M299.5 34.5v11.3c0-1.2-1.4-2.2-2.6-2.8s-2.4-1-3.9-1c-3.4 0-6 1.3-8 3.8c-2 2.5-3 6-3 10.3 c0 3.8 1 6.9 3.1 9.3c2 2.4 4.6 3.6 7.5 3.6c1.8 0 3.8-0.3 5-1s1.8-1.8 3.8-3.3v3.9h5v-34H299.5z M298.9 61.2 c-1 1.4-2.4 2.1-4.3 2.1s-3.3-0.7-4.2-2.1s-1.4-3.3-1.4-5.7c0-2.2 0.5-4 1.4-5.5c0.9-1.5 2.3-2.2 4.3-2.2c1.3 0 2.4 0.4 3.4 1.2 c1.6 1.3 2.4 3.6 2.4 6.7C300.4 58 299.9 59.8 298.9 61.2z"/><polygon fill="#A65A26" points="141.9,125.5 153.7,91.5 146.2,91.5 138.6,117.9 131.1,91.5 123.4,91.5 135.1,125.5"/><rect x="157.5" y="100.5" fill="#A65A26" width="6" height="25"/><rect x="157.5" y="91.5" fill="#A65A26" width="6" height="6"/><path fill="#A65A26" d="M178.9 126.8c1.8 0 3.2-0.3 4.4-1s2.1-1.8 3.1-3.3v3.1h7v-34h-7v12.1c-1-1.2-1.7-2.2-2.9-2.8 c-1.2-0.7-2.6-1-4.1-1c-3.4 0-6 1.3-8.1 3.8s-3 6-3 10.3c0 3.8 1 6.9 3.1 9.3C173.4 125.6 175.9 126.8 178.9 126.8z M176.6 107.8 c0.9-1.5 2.3-2.2 4.3-2.2c1.3 0 2.4 0.4 3.4 1.2c1.6 1.3 2.4 3.6 2.4 6.7c0 2.2-0.5 4.1-1.5 5.5c-1 1.4-2.4 2.1-4.3 2.1 s-3.3-0.7-4.2-2.1c-0.9-1.4-1.4-3.3-1.4-5.7C175.2 111.1 175.7 109.3 176.6 107.8z"/><path fill="#A65A26" d="M201.2 123.7c2.6 2.1 5.6 3.2 9 3.2c4.1 0 7.3-0.7 9.6-3.2c1.5-1.6 2.3-3.1 2.5-4.1h-6.8 c-0.4 1-0.9 0.8-1.4 1.2c-1 0.8-2.2 0.9-3.7 0.9c-1.4 0-2.7-0.2-3.7-0.9c-1.7-1-2.6-3.3-2.7-5.3h18.6c0-2 0-4.2-0.2-5.3 c-0.3-2-1-3.9-2-5.4c-1.2-1.7-2.6-3.1-4.4-3.9c-1.8-0.8-3.8-1.2-6-1.2c-3.7 0-6.8 1.2-9.1 3.5c-2.3 2.4-3.5 5.8-3.5 10.2 C197.3 118.2 198.6 121.6 201.2 123.7z M205.9 107.1c0.9-1 2.3-1.7 4-1.7c1.6 0 2.9 0.8 4 1.7c1.1 0.9 1.7 1.4 1.8 4.4h-11.5 C204.4 109.5 205 108.1 205.9 107.1z"/><path fill="#A65A26" d="M237.5 126.9c4.4 0 7.7-1.3 9.8-4c2.2-2.7 3.2-5.9 3.2-9.6c0-3.7-1.1-6.9-3.2-9.6s-5.4-4.1-9.8-4.1 s-7.7 1.4-9.8 4.1s-3.2 5.9-3.2 9.6c0 3.8 1.1 7 3.2 9.6C229.8 125.5 233.1 126.9 237.5 126.9z M232.9 107.3 c1.1-1.4 2.6-2.1 4.5-2.1s3.5 0.7 4.5 2.1s1.6 3.4 1.6 5.9c0 2.6-0.5 4.5-1.6 5.9c-1 1.4-2.5 2.1-4.5 2.1s-3.5-0.7-4.5-2.1 c-1.1-1.4-1.6-3.4-1.6-5.9C231.4 110.6 231.9 108.7 232.9 107.3z"/><path fill="#A65A26" d="M269.2 121.1c-0.8 0.4-1.8 0.6-3.1 0.6c-2.2 0-3.8-0.6-4.6-1.5c-0.5-0.5-0.8-0.7-0.9-2.7h-6.8 c0 4 1 4.9 2.9 6.6c1.9 1.7 4.9 2.6 8.9 2.6c3.9 0 6.9-0.8 8.7-2.4c1.9-1.6 2.8-3.7 2.8-6.2c0-1.9-0.7-3.5-2-4.8 c-1.3-1.3-3.3-2.2-6-2.8c-4-0.9-6.3-1.5-7-1.9c-0.7-0.3-1-0.9-1-1.7c0-0.6 0.3-1.1 0.9-1.6c0.6-0.5 1.7-0.7 3.1-0.7 c1.8 0 3 0.6 3.8 1.6c0.4 0.5 0.6 1.2 0.7 2.2h6.7c-0.3-3-1.5-5.5-3.5-6.8c-2-1.3-4.6-2-7.8-2c-3.4 0-6 0.8-7.8 2.5 c-1.9 1.7-2.8 3.7-2.8 6.1c0 2 0.6 3.5 1.8 4.6c1.2 1.1 3.2 2 6.1 2.7c4 1 6.4 1.6 7 2c0.6 0.4 0.9 1 0.9 1.7 C270.3 120.1 269.9 120.7 269.2 121.1z"/></g></g></svg>