<svg xmlns="http://www.w3.org/2000/svg" xmlns:xlink="http://www.w3.org/1999/xlink" version="1.1" x="0px" y="0px" width="401.1px" height="432.4px" viewBox="0 0 401.1 432.4" enable-background="new 0 0 401.1 432.4" xml:space="preserve"><filter><feGaussianBlur stdDeviation="4"/></filter><path fill="#0B4F78" stroke="#000000" stroke-width="1.2365" stroke-miterlimit="10" d="M387.2 431.8H13.9 c-7.4 0-13.3-5.1-13.3-11.5V12.1c0-6.3 6-11.5 13.3-11.5h373.3c7.4 0 13.3 5.1 13.3 11.5v408.3C400.5 426.7 394.5 431.8 387.2 431.8 z"/><g filter="url(#AI_GaussianBlur_4)"><path fill="#333333" d="M104.5 78h12.7l2.3 8h7.8l-12.2-35H107L94.6 86h7.6L104.5 78z M111 58.4l4.4 13.6h-8.9L111 58.4z"/><path fill="#333333" d="M145.1 80.6c-0.8 0.4-1.8 0.6-3.1 0.6c-2.2 0-3.8-0.6-4.6-1.5c-0.5-0.5-0.8-0.7-0.9-2.7h-6.8 c0 3 1 5 2.9 6.7c1.9 1.7 4.9 2.6 8.9 2.6c3.9 0 6.9-0.8 8.7-2.4c1.8-1.6 2.8-3.6 2.8-6.2c0-1.9-0.7-3.5-2-4.8s-3.3-2.2-6-2.8 c-4-0.9-6.3-1.5-7-1.8c-0.7-0.3-1-0.9-1-1.7c0-0.6 0.3-1.1 0.9-1.6c0.6-0.5 1.7-0.7 3.1-0.7c1.8 0 3 0.6 3.8 1.5 c0.4 0.5 0.6 1.2 0.7 2.2h6.7c-0.3-3-1.5-5.5-3.5-6.7c-2-1.3-4.6-2-7.8-2c-3.4 0-6 0.8-7.8 2.5c-1.8 1.7-2.8 3.7-2.8 6.1 c0 2 0.6 3.5 1.8 4.6c1.2 1.1 3.2 2 6.1 2.7c4 1 6.4 1.6 7 2c0.6 0.4 0.9 1 0.9 1.7C146.2 79.6 145.9 80.2 145.1 80.6z"/><path fill="#333333" d="M171.8 80.6c-0.8 0.4-1.8 0.6-3.1 0.6c-2.2 0-3.8-0.6-4.6-1.5c-0.5-0.5-0.8-0.7-0.9-2.7h-6.8 c0 3 1 5 2.9 6.7c1.9 1.7 4.9 2.6 8.9 2.6c3.9 0 6.9-0.8 8.7-2.4c1.8-1.6 2.8-3.6 2.8-6.2c0-1.9-0.7-3.5-2-4.8 c-1.3-1.3-3.3-2.2-6-2.8c-4-0.9-6.3-1.5-7-1.8c-0.7-0.3-1-0.9-1-1.7c0-0.6 0.3-1.1 0.9-1.6c0.6-0.5 1.7-0.7 3.1-0.7 c1.8 0 3 0.6 3.8 1.5c0.4 0.5 0.6 1.2 0.7 2.2h6.7c-0.3-3-1.5-5.5-3.5-6.7c-2-1.3-4.6-2-7.8-2c-3.4 0-6 0.8-7.8 2.5 c-1.8 1.7-2.8 3.7-2.8 6.1c0 2 0.6 3.5 1.8 4.6c1.2 1.1 3.2 2 6.1 2.7c4 1 6.4 1.6 7 2c0.6 0.4 0.9 1 0.9 1.7 C172.9 79.6 172.6 80.2 171.8 80.6z"/><rect x="185" y="60" fill="#333333" width="6" height="26"/><rect x="185" y="51" fill="#333333" width="6" height="6"/><path fill="#333333" d="M207.2 85.6c2.1 0 3.6-0.5 5-1.5c0.7-0.5 1.8-1.4 1.8-2.5v1.6c0 2.4-0.1 4.2-0.6 5.2 c-0.8 1.6-2.3 2.4-4.7 2.4c-1.7 0-2.9-0.4-3.6-1.1c-0.4-0.3-0.7-0.8-0.9-1.8H197c0.2 3 1.4 4.6 3.4 5.9c2 1.3 4.7 2 8 2 c5.4 0 9-1.4 11-4.3c1.1-1.7 1.6-4.1 1.6-7.4V60h-6v3.6c-1-1.8-2.5-3-4.2-3.7c-1-0.4-2.2-0.6-3.5-0.6c-3.5 0-6.2 1.3-8.1 3.9 c-1.9 2.6-2.9 5.8-2.9 9.6c0 3.9 1 7.1 2.9 9.4C201.1 84.5 203.9 85.6 207.2 85.6z M204 68.5c0.9-2.2 2.5-3.3 4.8-3.3 c1.7 0 3.1 0.6 4.1 1.9s1.5 3.1 1.5 5.5c0 2.6-0.5 4.5-1.6 5.6c-1.1 1.2-2.4 1.8-3.9 1.8c-2.3 0-4-1.1-4.9-3.2 c-0.5-1.2-0.7-2.5-0.7-4C203.3 71.1 203.5 69.7 204 68.5z"/><path fill="#333333" d="M234 71.7c0-1.6 0.2-2.9 0.6-3.9c0.8-1.9 2.4-2.9 4.6-2.9c1.8 0 3.3 0.7 4 2c0.4 0.7 0.8 1.8 0.8 3.1v16h6 V68.3c0-3.2-0.6-5.5-2.3-6.9s-3.7-2.1-6.4-2.1c-2.1 0-3.7 0.5-5 1.5c-0.8 0.6-1.3 1.5-2.3 2.8V60h-7v26h7V71.7z"/><path fill="#333333" d="M258.5 83.2c2.6 2.1 5.6 3.1 9 3.1c4.1 0 7.3-1.3 9.6-3.7c1.5-1.6 2.3-2.6 2.5-4.6h-6.8 c-0.4 1-0.9 1.3-1.4 1.8c-1 0.8-2.2 1.2-3.7 1.2c-1.4 0-2.7-0.1-3.7-0.8c-1.7-1-2.6-3.2-2.7-5.2h18.6c0-3 0-4.1-0.2-5.3 c-0.3-2-1-3.9-2-5.4c-1.2-1.7-2.6-3-4.4-3.8c-1.8-0.8-3.8-1.2-6-1.2c-3.7 0-6.8 1.2-9.1 3.5c-2.3 2.4-3.5 5.7-3.5 10.2 C254.6 77.7 255.9 81.1 258.5 83.2z M263.2 66.1c0.9-1 2.3-1.4 4-1.4c1.6 0 2.9 0.4 4 1.3c1.1 0.9 1.7 2 1.8 4h-11.5 C261.7 69 262.3 67.1 263.2 66.1z"/><path fill="#333333" d="M292.2 86.3c1.8 0 3.3-0.3 4.5-1c1.2-0.7 2.2-1.8 3.2-3.3v4h7V51h-7v12.2c-1-1.2-1.8-2.1-3-2.8 s-2.6-1-4.2-1c-3.4 0-6.1 1.2-8.1 3.8c-2 2.5-3 5.9-3 10.3c0 3.8 1 6.9 3.1 9.3C286.8 85.2 289.3 86.3 292.2 86.3z M289.9 67.4 c0.9-1.5 2.3-2.2 4.3-2.2c1.3 0 2.4 0.4 3.4 1.2c1.6 1.3 2.4 3.6 2.4 6.7c0 2.2-0.5 4.1-1.5 5.5c-1 1.4-2.4 2.1-4.3 2.1 c-1.9 0-3.3-0.7-4.2-2.1c-0.9-1.4-1.4-3.3-1.4-5.7C288.5 70.7 289 68.9 289.9 67.4z"/><rect x="140" y="266.4" fill="#333333" width="40" height="14"/><rect x="140" y="240.4" fill="#333333" width="48" height="13"/><path fill="#333333" d="M240 325.9c0 3.7-2.4 8.5-6.1 8.5H127c-3.7 0-8-4.9-8-8.5V213.4h40v-41H234c3.7 0 6.1 2.7 6.1 6.4v12.4 l21-19.9v-5.9c0-7.4-6.3-12.1-13.7-12.1h-93.6L100 205.6v133.6c0 7.4 6.3 14.2 13.6 14.2h133.7c7.4 0 13.7-6.8 13.7-14.2v-67.9 l-21 19.9V325.9z"/><rect x="140" y="293.4" fill="#333333" width="80" height="13"/><path fill="#333333" d="M228.5 266.1l5 5l-21.3 6.3l-8.4-8.4l6.3-21.3l4.6 4.6l55.9-55.9l-8.7-8.7l-56.1 55.6l0.2 0.2 c-0.2 0.2-0.3 0.5-0.4 0.7L194 283.9c-0.3 0.9 0 1.9 0.7 2.6c0.5 0.5 1.2 0.8 1.8 0.8c0.2 0 0.5 0 0.7-0.1l39.6-11.6 c0.3-0.1 0.5-0.2 0.7-0.4l0.2 0.2l56.1-55.6l-9.5-9.5L228.5 266.1z"/><polygon fill="#333333" points="226.3,263.1 281.8,207.7 272.6,198.5 217.1,253.9 225.2,255.7"/><polygon fill="#333333" points="265.5,180.8 300.3,215.6 308.3,208.1 273.5,173.3"/><path fill="#333333" d="M317.4 180.3l-16.7-16.7c-4.6-4.6-12-4.6-16.6-0.1l-5.1 5.2l33.3 33.4l5.1-5.2 C322.1 192.3 322 184.9 317.4 180.3z"/></g><g><path fill="#FFFFFF" d="M104.5 78h12.7l2.3 8h7.8l-12.2-35H107L94.6 86h7.6L104.5 78z M111 58.4l4.4 13.6h-8.9L111 58.4z"/><path fill="#FFFFFF" d="M145.1 80.6c-0.8 0.4-1.8 0.6-3.1 0.6c-2.2 0-3.8-0.6-4.6-1.5c-0.5-0.5-0.8-0.7-0.9-2.7h-6.8 c0 3 1 5 2.9 6.7c1.9 1.7 4.9 2.6 8.9 2.6c3.9 0 6.9-0.8 8.7-2.4c1.8-1.6 2.8-3.6 2.8-6.2c0-1.9-0.7-3.5-2-4.8s-3.3-2.2-6-2.8 c-4-0.9-6.3-1.5-7-1.8c-0.7-0.3-1-0.9-1-1.7c0-0.6 0.3-1.1 0.9-1.6c0.6-0.5 1.7-0.7 3.1-0.7c1.8 0 3 0.6 3.8 1.5 c0.4 0.5 0.6 1.2 0.7 2.2h6.7c-0.3-3-1.5-5.5-3.5-6.7c-2-1.3-4.6-2-7.8-2c-3.4 0-6 0.8-7.8 2.5c-1.8 1.7-2.8 3.7-2.8 6.1 c0 2 0.6 3.5 1.8 4.6c1.2 1.1 3.2 2 6.1 2.7c4 1 6.4 1.6 7 2c0.6 0.4 0.9 1 0.9 1.7C146.2 79.6 145.9 80.2 145.1 80.6z"/><path fill="#FFFFFF" d="M171.8 80.6c-0.8 0.4-1.8 0.6-3.1 0.6c-2.2 0-3.8-0.6-4.6-1.5c-0.5-0.5-0.8-0.7-0.9-2.7h-6.8 c0 3 1 5 2.9 6.7c1.9 1.7 4.9 2.6 8.9 2.6c3.9 0 6.9-0.8 8.7-2.4c1.8-1.6 2.8-3.6 2.8-6.2c0-1.9-0.7-3.5-2-4.8 c-1.3-1.3-3.3-2.2-6-2.8c-4-0.9-6.3-1.5-7-1.8c-0.7-0.3-1-0.9-1-1.7c0-0.6 0.3-1.1 0.9-1.6c0.6-0.5 1.7-0.7 3.1-0.7 c1.8 0 3 0.6 3.8 1.5c0.4 0.5 0.6 1.2 0.7 2.2h6.7c-0.3-3-1.5-5.5-3.5-6.7c-2-1.3-4.6-2-7.8-2c-3.4 0-6 0.8-7.8 2.5 c-1.8 1.7-2.8 3.7-2.8 6.1c0 2 0.6 3.5 1.8 4.6c1.2 1.1 3.2 2 6.1 2.7c4 1 6.4 1.6 7 2c0.6 0.4 0.9 1 0.9 1.7 C172.9 79.6 172.6 80.2 171.8 80.6z"/><rect x="185" y="60" fill="#FFFFFF" width="6" height="26"/><rect x="185" y="51" fill="#FFFFFF" width="6" height="6"/><path fill="#FFFFFF" d="M207.2 85.6c2.1 0 3.6-0.5 5-1.5c0.7-0.5 1.8-1.4 1.8-2.5v1.6c0 2.4-0.1 4.2-0.6 5.2 c-0.8 1.6-2.3 2.4-4.7 2.4c-1.7 0-2.9-0.4-3.6-1.1c-0.4-0.3-0.7-0.8-0.9-1.8H197c0.2 3 1.4 4.6 3.4 5.9c2 1.3 4.7 2 8 2 c5.4 0 9-1.4 11-4.3c1.1-1.7 1.6-4.1 1.6-7.4V60h-6v3.6c-1-1.8-2.5-3-4.2-3.7c-1-0.4-2.2-0.6-3.5-0.6c-3.5 0-6.2 1.3-8.1 3.9 c-1.9 2.6-2.9 5.8-2.9 9.6c0 3.9 1 7.1 2.9 9.4C201.1 84.5 203.9 85.6 207.2 85.6z M204 68.5c0.9-2.2 2.5-3.3 4.8-3.3 c1.7 0 3.1 0.6 4.1 1.9s1.5 3.1 1.5 5.5c0 2.6-0.5 4.5-1.6 5.6c-1.1 1.2-2.4 1.8-3.9 1.8c-2.3 0-4-1.1-4.9-3.2 c-0.5-1.2-0.7-2.5-0.7-4C203.3 71.1 203.5 69.7 204 68.5z"/><path fill="#FFFFFF" d="M234 71.7c0-1.6 0.2-2.9 0.6-3.9c0.8-1.9 2.4-2.9 4.6-2.9c1.8 0 3.3 0.7 4 2c0.4 0.7 0.8 1.8 0.8 3.1v16h6 V68.3c0-3.2-0.6-5.5-2.3-6.9s-3.7-2.1-6.4-2.1c-2.1 0-3.7 0.5-5 1.5c-0.8 0.6-1.3 1.5-2.3 2.8V60h-7v26h7V71.7z"/><path fill="#FFFFFF" d="M258.5 83.2c2.6 2.1 5.6 3.1 9 3.1c4.1 0 7.3-1.3 9.6-3.7c1.5-1.6 2.3-2.6 2.5-4.6h-6.8 c-0.4 1-0.9 1.3-1.4 1.8c-1 0.8-2.2 1.2-3.7 1.2c-1.4 0-2.7-0.1-3.7-0.8c-1.7-1-2.6-3.2-2.7-5.2h18.6c0-3 0-4.1-0.2-5.3 c-0.3-2-1-3.9-2-5.4c-1.2-1.7-2.6-3-4.4-3.8c-1.8-0.8-3.8-1.2-6-1.2c-3.7 0-6.8 1.2-9.1 3.5c-2.3 2.4-3.5 5.7-3.5 10.2 C254.6 77.7 255.9 81.1 258.5 83.2z M263.2 66.1c0.9-1 2.3-1.4 4-1.4c1.6 0 2.9 0.4 4 1.3c1.1 0.9 1.7 2 1.8 4h-11.5 C261.7 69 262.3 67.1 263.2 66.1z"/><path fill="#FFFFFF" d="M292.2 86.3c1.8 0 3.3-0.3 4.5-1c1.2-0.7 2.2-1.8 3.2-3.3v4h7V51h-7v12.2c-1-1.2-1.8-2.1-3-2.8 s-2.6-1-4.2-1c-3.4 0-6.1 1.2-8.1 3.8c-2 2.5-3 5.9-3 10.3c0 3.8 1 6.9 3.1 9.3C286.8 85.2 289.3 86.3 292.2 86.3z M289.9 67.4 c0.9-1.5 2.3-2.2 4.3-2.2c1.3 0 2.4 0.4 3.4 1.2c1.6 1.3 2.4 3.6 2.4 6.7c0 2.2-0.5 4.1-1.5 5.5c-1 1.4-2.4 2.1-4.3 2.1 c-1.9 0-3.3-0.7-4.2-2.1c-0.9-1.4-1.4-3.3-1.4-5.7C288.5 70.7 289 68.9 289.9 67.4z"/><rect x="140" y="266.4" fill="#FFFFFF" width="40" height="14"/><rect x="140" y="240.4" fill="#FFFFFF" width="48" height="13"/><path fill="#FFFFFF" d="M240 325.9c0 3.7-2.4 8.5-6.1 8.5H127c-3.7 0-8-4.9-8-8.5V213.4h40v-41H234c3.7 0 6.1 2.7 6.1 6.4v12.4 l21-19.9v-5.9c0-7.4-6.3-12.1-13.7-12.1h-93.6L100 205.6v133.6c0 7.4 6.3 14.2 13.6 14.2h133.7c7.4 0 13.7-6.8 13.7-14.2v-67.9 l-21 19.9V325.9z"/><rect x="140" y="293.4" fill="#FFFFFF" width="80" height="13"/><path fill="#FFFFFF" d="M228.5 266.1l5 5l-21.3 6.3l-8.4-8.4l6.3-21.3l4.6 4.6l55.9-55.9l-8.7-8.7l-56.1 55.6l0.2 0.2 c-0.2 0.2-0.3 0.5-0.4 0.7L194 283.9c-0.3 0.9 0 1.9 0.7 2.6c0.5 0.5 1.2 0.8 1.8 0.8c0.2 0 0.5 0 0.7-0.1l39.6-11.6 c0.3-0.1 0.5-0.2 0.7-0.4l0.2 0.2l56.1-55.6l-9.5-9.5L228.5 266.1z"/><polygon fill="#FFFFFF" points="226.3,263.1 281.8,207.7 272.6,198.5 217.1,253.9 225.2,255.7"/><polygon fill="#FFFFFF" points="265.5,180.8 300.3,215.6 308.3,208.1 273.5,173.3"/><path fill="#FFFFFF" d="M317.4 180.3l-16.7-16.7c-4.6-4.6-12-4.6-16.6-0.1l-5.1 5.2l33.3 33.4l5.1-5.2 C322.1 192.3 322 184.9 317.4 180.3z"/></g></svg>