<svg xmlns="http://www.w3.org/2000/svg" xmlns:xlink="http://www.w3.org/1999/xlink" version="1.1" x="0px" y="0px" width="401.2px" height="501.4px" viewBox="0 0 401.2 501.4" enable-background="new 0 0 401.2 501.4" xml:space="preserve"><path fill="#F8F8F8" stroke="#CCCCCC" stroke-width="1.2365" stroke-miterlimit="10" d="M387.3 431.8h-110l-80 68.8l-80.4-68.8H14 c-7.4 0-13.3-5.1-13.3-11.5V12.1c0-6.3 6-11.5 13.3-11.5h373.3c7.4 0 13.3 5.1 13.3 11.5v408.3C400.6 426.7 394.6 431.8 387.3 431.8 z"/><g><path fill="#A65A26" d="M206.9 170.7c-1.3-2.4-3.9-3.8-6.6-3.8c-2.7 0-5.2 1.5-6.6 3.8L96.6 341.8c-1.3 2.3-1.3 5.5 0.1 7.7 c1.4 2.3 3.8 4 6.5 4h194.3c2.7 0 5.2-1.7 6.5-4c1.4-2.3 1.4-5.4 0.1-7.7L206.9 170.7z M239.5 289.5h-30v29h-19v-29h-29v-20h29v-28 h19v28h30V289.5z"/><polygon fill="#A65A26" points="161.5,43.6 175.6,68.5 182.5,68.5 182.5,33.5 176.5,33.5 176.5,57.7 162.4,33.5 154.5,33.5 154.5,68.5 161.5,68.5"/><path fill="#A65A26" d="M190.9 65.9c2.6 2.1 5.6 3.2 9 3.2c4.1 0 7.3-1.3 9.6-3.8c1.5-1.6 2.3-2.7 2.5-4.7h-6.8 c-0.4 1-0.9 1.4-1.4 1.8c-1 0.8-2.2 1.2-3.7 1.2c-1.4 0-2.7-0.2-3.7-0.8c-1.7-1-2.6-3.2-2.7-5.2h18.6c0-3 0-4.1-0.2-5.2 c-0.3-2-1-3.8-2-5.4c-1.2-1.7-2.6-3-4.4-3.8c-1.8-0.8-3.8-1.2-6-1.2c-3.7 0-6.8 1.2-9.1 3.5c-2.3 2.4-3.5 5.8-3.5 10.2 C187 60.4 188.3 63.8 190.9 65.9z M195.7 48.7c0.9-1 2.3-1.4 4-1.4c1.6 0 2.9 0.4 4 1.3c1.1 0.9 1.7 2.9 1.8 3.9h-11.5 C194.2 51.5 194.8 49.7 195.7 48.7z"/><polygon fill="#A65A26" points="227.1,68.5 231.1,49.9 235.1,68.5 242,68.5 249.4,42.5 242.4,42.5 238.5,61 234.6,42.5 227.8,42.5 224.1,60.9 220.1,42.5 213,42.5 220.1,68.5"/><path fill="#A65A26" d="M103.5 112.5h7c2 0 3.4 0.3 4.1 1c0.7 0.7 1.1 2.2 1.1 4.4l0 3.2c0 1 0.1 1.8 0.3 2.8 c0.1 0.5 0.2 1.6 0.5 1.6h7.9v-0.4c-1-0.4-0.9-1.1-1.1-2c-0.1-0.6 0.1-1.6 0.1-3.2v-2.3c0-2.4-0.6-4.2-1.2-5.4 c-0.7-1.2-1.9-2.1-3.5-2.7c1.9-0.7 3.2-1.8 4-3.4c0.8-1.6 1.2-3.2 1.2-4.9c0-1.4-0.2-2.6-0.7-3.6c-0.4-1.1-1-2-1.7-2.9 c-0.9-1.1-2-1.8-3.2-2.3c-1.3-0.5-3.1-0.8-5.5-0.8H96.5v34h7V112.5z M103.5 97.5h7.9c1.5 0 2.6 0.1 3.3 0.5c1.3 0.7 2 2.1 2 4.2 c0 1.9-0.7 3.2-2 3.8c-0.8 0.4-1.9 0.5-3.5 0.5h-7.7V97.5z"/><path fill="#A65A26" d="M132.2 123.7c2.6 2.1 5.6 3.2 9 3.2c4.1 0 7.3-1.2 9.6-3.7c1.5-1.6 2.3-3.6 2.5-4.6h-6.8 c-0.4 1-0.9 1.3-1.4 1.7c-1 0.8-2.2 1.2-3.7 1.2c-1.4 0-2.7-0.1-3.7-0.7c-1.7-1-2.6-3.2-2.7-5.2h18.6c0-3 0-4.2-0.2-5.3 c-0.3-2-1-3.9-2-5.4c-1.2-1.7-2.6-3.1-4.4-3.9c-1.8-0.8-3.8-1.2-6-1.2c-3.7 0-6.8 1.2-9.1 3.5c-2.3 2.4-3.5 5.8-3.5 10.2 C128.3 118.2 129.6 121.6 132.2 123.7z M137 106.6c0.9-1 2.3-1.4 4-1.4c1.6 0 2.9 0.4 4 1.3c1.1 0.9 1.7 2 1.8 4h-11.5 C135.5 108.5 136.1 107.6 137 106.6z"/><path fill="#A65A26" d="M180.5 136.5v-36h-7v3.7c-1-1.4-1.5-2.3-2.2-2.9c-1.3-1.1-3-1.6-5.1-1.6c-3.1 0-5.6 1.3-7.7 3.8 s-3.1 6-3.1 10.2c0 4 1 7.1 3.1 9.5c2.1 2.4 4.6 3.6 7.6 3.6c2.1 0 3.7-0.4 4.9-1.2c1.2-0.8 2.5-1.7 2.5-2.8v13.7H180.5z M172.8 118.1c-1 2-2.6 3-4.9 3c-2.4 0-4-1.1-4.9-3.2c-0.5-1.1-0.7-2.6-0.7-4.4c0-2.7 0.5-4.6 1.5-5.9c1-1.3 2.4-2 4.1-2 c2.4 0 4.1 1.1 5 3.3c0.5 1.2 0.8 2.6 0.8 4.2C173.7 115.1 173.4 116.8 172.8 118.1z"/><path fill="#A65A26" d="M194.9 126.5c1.3 0 2.5-0.2 3.4-0.5c1-0.3 2-1 3-1.9c0.3-0.3 0.5-0.6 0.8-1c0.2-0.4 0.4-0.6 0.4-0.7v3.2h7 v-25h-7v13.8c0 1.6-0.2 3-0.7 4c-0.8 1.9-2.4 2.8-4.7 2.8c-1.8 0-2.7-0.7-3.4-2c-0.3-0.7-0.3-1.8-0.3-3.3v-15.3h-7v15.3 c0 2.9 0.2 5.2 1 6.7C188.7 125.2 191.1 126.5 194.9 126.5z"/><path fill="#A65A26" d="M238.8 110.2c-0.3-2-1-3.9-2-5.4c-1.2-1.7-2.6-3.1-4.4-3.9c-1.8-0.8-3.8-1.2-6-1.2c-3.7 0-6.8 1.2-9.1 3.5 c-2.3 2.4-3.5 5.8-3.5 10.2c0 4.7 1.3 8.2 3.9 10.3c2.6 2.1 5.6 3.2 9 3.2c4.1 0 7.3-1.2 9.6-3.7c1.5-1.6 2.3-3.6 2.5-4.6h-6.8 c-0.4 1-0.9 1.3-1.4 1.7c-1 0.8-2.2 1.2-3.7 1.2c-1.4 0-2.7-0.1-3.7-0.7c-1.7-1-2.6-3.2-2.7-5.2H239 C239.1 112.5 239 111.4 238.8 110.2z M220.6 110.5c0.2-2 0.8-2.9 1.8-3.9c0.9-1 2.3-1.4 4-1.4c1.6 0 2.9 0.4 4 1.3 c1.1 0.9 1.7 2 1.8 4H220.6z"/><path fill="#A65A26" d="M241.6 108.3c0 2 0.6 3.5 1.8 4.6c1.2 1.1 3.2 2 6.1 2.7c4 1 6.4 1.6 7 2c0.6 0.4 0.9 1 0.9 1.7 c0 0.8-0.4 1.4-1.2 1.8c-0.8 0.4-1.8 0.6-3.1 0.6c-2.2 0-3.8-0.6-4.6-1.5c-0.5-0.5-0.8-1.7-0.9-2.7h-6.8c0 3 1 4.9 2.9 6.6 c1.9 1.7 4.9 2.6 8.9 2.6c3.9 0 6.9-0.8 8.7-2.4c1.9-1.6 2.8-3.7 2.8-6.2c0-1.9-0.7-3.5-2-4.8c-1.3-1.3-3.3-2.2-6-2.8 c-4-0.9-6.3-1.5-7-1.9c-0.7-0.3-1-0.9-1-1.7c0-0.6 0.3-1.1 0.9-1.6c0.6-0.5 1.7-0.7 3.1-0.7c1.8 0 3 0.6 3.8 1.6 c0.4 0.5 0.6 1.2 0.7 2.2h6.7c-0.3-4-1.5-5.5-3.5-6.8c-2-1.3-4.6-2-7.8-2c-3.4 0-6 0.8-7.8 2.5 C242.5 103.9 241.6 105.9 241.6 108.3z"/><path fill="#A65A26" d="M270.5 121.1c0 1.6 0.1 2.8 0.9 3.6c1.2 1.2 3 1.8 6.2 1.6l2.9-0.1v-5c0 0-0.3 0-0.5 0c-0.2 0-0.4 0-0.6 0 c-1.4 0-2.2-0.1-2.5-0.4c-0.3-0.3-0.4-0.9-0.4-2v-13.4h4v-5h-4v-7h-6v7h-4v5h4V121.1z"/><path fill="#A65A26" d="M298.9 121.1c-0.8 0.4-1.8 0.6-3.1 0.6c-2.2 0-3.8-0.6-4.6-1.5c-0.5-0.5-0.8-1.7-0.9-2.7h-6.8 c0 3 1 4.9 2.9 6.6c1.9 1.7 4.9 2.6 8.9 2.6c3.9 0 6.9-0.8 8.7-2.4c1.9-1.6 2.8-3.7 2.8-6.2c0-1.9-0.7-3.5-2-4.8 c-1.3-1.3-3.3-2.2-6-2.8c-4-0.9-6.3-1.5-7-1.9c-0.7-0.3-1-0.9-1-1.7c0-0.6 0.3-1.1 0.9-1.6c0.6-0.5 1.7-0.7 3.1-0.7 c1.8 0 3 0.6 3.8 1.6c0.4 0.5 0.6 1.2 0.7 2.2h6.7c-0.3-4-1.5-5.5-3.5-6.8c-2-1.3-4.6-2-7.8-2c-3.4 0-6 0.8-7.8 2.5 c-1.9 1.7-2.8 3.7-2.8 6.1c0 2 0.6 3.5 1.8 4.6c1.2 1.1 3.2 2 6.1 2.7c4 1 6.4 1.6 7 2c0.6 0.4 0.9 1 0.9 1.7 C300.1 120.1 299.7 120.7 298.9 121.1z"/></g></svg>