<svg xmlns="http://www.w3.org/2000/svg" xmlns:xlink="http://www.w3.org/1999/xlink" version="1.1" x="0px" y="0px" width="373.5px" height="465.2px" viewBox="0 0 373.5 465.2" enable-background="new 0 0 373.5 465.2" xml:space="preserve"><g><path fill="#F8F8F8" d="M360.5 400.6H258.2l-74.5 63.8l-74.9-63.8H13c-6.9 0-12.4-4.8-12.4-10.6V11.2C0.6 5.3 6.1 0.6 13 0.6h347.5 c6.9 0 12.4 4.8 12.4 10.6v378.7C372.9 395.8 367.4 400.6 360.5 400.6z"/><path fill="none" stroke="#CCCCCC" stroke-miterlimit="10" d="M360.5 400.6H258.2l-74.5 63.8l-74.9-63.8H13 c-6.9 0-12.4-4.8-12.4-10.6V11.2C0.6 5.3 6.1 0.6 13 0.6h347.5c6.9 0 12.4 4.8 12.4 10.6v378.7 C372.9 395.8 367.4 400.6 360.5 400.6z"/></g></svg>