<svg xmlns="http://www.w3.org/2000/svg" xmlns:xlink="http://www.w3.org/1999/xlink" version="1.1" x="0px" y="0px" width="399.6px" height="400px" viewBox="0 0 399.6 400" enable-background="new 0 0 399.6 400" xml:space="preserve"><g><path fill="#0B4F78" d="M58.8 395l214.9-214.9c33.2 12.3 72 5.4 98.6-21.2c26.8-26.8 33.9-65.7 21.4-98.8l-68 68 c-3.5 3.5-9.2 3.5-12.7 0l-41.3-41.3c-3.5-3.5-3.5-9.2 0-12.7l68.1-68c-33.3-12.6-72.5-5.8-99.3 21c-26.9 26.9-33.8 66-21.3 99.1 L4.5 340.7c-5.8 5.8-6.1 16.4-0.3 22.2l33.3 33.3C43.3 402 53 400.8 58.8 395z M34.5 366.3c-9-9-9-23.6 0-32.6c9-9 23.6-9 32.6 0 c9 9 9 23.6 0 32.6C58.1 375.3 43.5 375.3 34.5 366.3z"/></g></svg>