<svg xmlns="http://www.w3.org/2000/svg" xmlns:xlink="http://www.w3.org/1999/xlink" version="1.1" x="0px" y="0px" width="410px" height="305px" viewBox="0 0 410 305" enable-background="new 0 0 410 305" xml:space="preserve"><g><path fill-rule="evenodd" clip-rule="evenodd" fill="#0B4F78" d="M130 235c-13.8 0-25 11.2-25 25v15c0 13.8 11.2 25 25 25h250 c13.8 0 25-11.2 25-25v-15c0-13.8-11.2-25-25-25H130z M130 120c-13.8 0-25 11.2-25 25v15c0 13.8 11.2 25 25 25h250 c13.8 0 25-11.2 25-25v-15c0-13.8-11.2-25-25-25H130z M130 5c-13.8 0-25 11.2-25 25v15c0 13.8 11.2 25 25 25h250 c13.8 0 25-11.2 25-25V30c0-13.8-11.2-25-25-25H130z M30 235c-13.8 0-25 11.2-25 25v15c0 13.8 11.2 25 25 25h25 c13.8 0 25-11.2 25-25v-15c0-13.8-11.2-25-25-25H30z M30 120c-13.8 0-25 11.2-25 25v15c0 13.8 11.2 25 25 25h25 c13.8 0 25-11.2 25-25v-15c0-13.8-11.2-25-25-25H30z M30 5C16.2 5 5 16.2 5 30v15c0 13.8 11.2 25 25 25h25c13.8 0 25-11.2 25-25V30 C80 16.2 68.8 5 55 5H30z"/><path fill="none" stroke="#0B4F78" stroke-width="10" stroke-miterlimit="10" d="M130 235c-13.8 0-25 11.2-25 25v15 c0 13.8 11.2 25 25 25h250c13.8 0 25-11.2 25-25v-15c0-13.8-11.2-25-25-25H130z M130 120c-13.8 0-25 11.2-25 25v15 c0 13.8 11.2 25 25 25h250c13.8 0 25-11.2 25-25v-15c0-13.8-11.2-25-25-25H130z M130 5c-13.8 0-25 11.2-25 25v15 c0 13.8 11.2 25 25 25h250c13.8 0 25-11.2 25-25V30c0-13.8-11.2-25-25-25H130z M30 235c-13.8 0-25 11.2-25 25v15 c0 13.8 11.2 25 25 25h25c13.8 0 25-11.2 25-25v-15c0-13.8-11.2-25-25-25H30z M30 120c-13.8 0-25 11.2-25 25v15 c0 13.8 11.2 25 25 25h25c13.8 0 25-11.2 25-25v-15c0-13.8-11.2-25-25-25H30z M30 5C16.2 5 5 16.2 5 30v15c0 13.8 11.2 25 25 25h25 c13.8 0 25-11.2 25-25V30C80 16.2 68.8 5 55 5H30z"/></g></svg>