<svg xmlns="http://www.w3.org/2000/svg" xmlns:xlink="http://www.w3.org/1999/xlink" version="1.1" x="0px" y="0px" viewBox="0 0 400 301.5" enable-background="new 0 0 400 301.5" xml:space="preserve"><g><path fill-rule="evenodd" clip-rule="evenodd" fill="#0B4F78" d="M396.4 163.7c-6.1-7.9-19.7-14.4-47.3 1.9 c2.6-11.5-6.6-18.6-17.3-18.6c-9.5 0-20.7 2.5-29.6 11.5c-12.7-16.8-25.8-14.8-51.3 1c-9.7 6-18.3 11.2-24.6 14.8 c-1.7 1-3.1 1.7-4.4 2.4c2.5 0.5 5 1 7.8 1c35.8 0 64 0 64 31c0 23.8-27.7 30.7-42.3 31H185c-27.3 0-54-28.5-54-28.5 s31.6 12.9 54 12.9h66.1c0.1 0 27-1.1 27-15.5c0-13.2-7.3-15.5-48.5-15.5c-26.9 0-54.1-15.9-54.1-15.9s-27.2-19.9-35.6-25.1 c-19.8-12.4-35.6-24.1-70.2-10.5C47.8 150.3 0 172.6 0 172.6l44.1 97.9l22.5-14.6c12.4-7.9 19.3-9.3 35.4-1 c15.6 8 63.4 32.9 75.4 38.7c36.8 17.8 52.5 1.9 70.3-8.4c15.2-8.7 122.4-79.8 133.7-87.7C398.9 184.9 404.4 174.1 396.4 163.7z"/><polygon fill-rule="evenodd" clip-rule="evenodd" fill="#0B4F78" points="178,138 224,138 224,92 269.9,92 269.9,46 224,46 224,0 178,0 178,46 132,46 132,92 178,92"/></g></svg>