<svg xmlns="http://www.w3.org/2000/svg" xmlns:xlink="http://www.w3.org/1999/xlink" version="1.1" x="0px" y="0px" viewBox="0 0 400 400" enable-background="new 0 0 400 400" xml:space="preserve"><g><path fill="#4CA8D1" d="M197.3 0C86.9 1.5-1.5 92.2 0 202.7C1.5 313.1 92.2 401.5 202.7 400c110.4-1.5 198.8-92.2 197.3-202.7 C398.5 86.9 307.8-1.5 197.3 0z"/><g><path fill="#FFFFFF" d="M219.4 67.8c20.3 0 26.3 11.8 26.3 25.3c0 16.9-13.5 32.4-36.5 32.4c-19.3 0-28.4-9.7-27.9-25.7 C181.3 86.3 192.6 67.8 219.4 67.8z"/><path fill="#FFFFFF" d="M167.2 326.1c-13.9 0-24.1-8.4-14.4-45.5l15.9-65.8c2.8-10.5 3.2-14.7 0-14.7c-4.2 0-22.2 7.3-32.9 14.4 l-6.9-11.4c33.8-28.2 72.7-44.8 89.3-44.8c13.9 0 16.2 16.4 9.3 41.7l-18.3 69.1c-3.2 12.2-1.8 16.4 1.4 16.4 c4.2 0 17.8-5.1 31.2-15.6l7.9 10.5C217 313.5 181.1 326.1 167.2 326.1z"/></g></g></svg>