<svg xmlns="http://www.w3.org/2000/svg" xmlns:xlink="http://www.w3.org/1999/xlink" version="1.1" x="0px" y="0px" width="400px" height="347.8px" viewBox="0 0 400 347.8" enable-background="new 0 0 400 347.8" xml:space="preserve"><g><path fill="#0B4F78" d="M226.1 0C131.5 0 54.6 76.3 52.3 171.3H0l78.3 87.2l78.3-87.2H95.8c2.3-70 59.7-127.7 130.3-127.7 c72 0 130.4 58 130.4 130.3c0 72.3-58.4 130.6-130.4 130.6c-28.9 0-55.6-9.6-77.2-25.5L119 310.8c29.5 23.2 66.7 37 107.1 37 c96.1 0 173.9-77.5 173.9-173.9S322.1 0 226.1 0z"/><polygon fill="#0B4F78" points="200,86.3 200,190.1 274.3,244.2 286.3,222 225,179.1 225,86.3"/></g><g></g><g></g><g></g><g></g><g></g><g></g><g></g><g></g><g></g><g></g><g></g><g></g><g></g><g></g><g></g></svg>