<svg xmlns="http://www.w3.org/2000/svg" xmlns:xlink="http://www.w3.org/1999/xlink" version="1.1" x="0px" y="0px" width="289.4px" height="400px" viewBox="0 0 289.4 400" enable-background="new 0 0 289.4 400" xml:space="preserve"><g><path fill="#0B4F78" d="M282.2 99.6L96.1 3.7C70.7-9.7 20.4 16.2 6 39c-6.4 10.2-6 17.6-6 21.7l2.3 216.6 c0.2 4.6 5.9 10.8 10.9 13.8c10.3 6.3 166.6 103.9 171.1 106.7c2.4 1.5 5.2 2.2 8 2.2c2.4 0 4.7-0.5 6.9-1.6 c4.7-2.3 7.6-6.8 7.6-11.7V159.3c0-4.7-2.8-9.1-7.3-11.5L30.4 53.4c1.9-3.7 9.4-11.6 23.3-18.8c14.6-7.6 25.5-4.7 28-3.8 c0 0 162.3 86.9 167.3 89.4c4.9 2.6 5 3 5 7.4c0 4.4 0 215.8 0 215.8c0 10.8 10.9 15.2 19 15.2c8 0 16.6-7.9 16.6-15.2V111.1 C289.4 106.3 286.7 101.9 282.2 99.6z"/></g></svg>