<svg xmlns="http://www.w3.org/2000/svg" xmlns:xlink="http://www.w3.org/1999/xlink" version="1.1" x="0px" y="0px" width="409.1px" height="375.1px" viewBox="0 0 409.1 375.1" enable-background="new 0 0 409.1 375.1" xml:space="preserve"><g><g><g><path fill="#0B4F78" d="M368.5 49.8h-18.3v40.7h-65.1V49.8H167.2v40.7h-65.1V49.8H83.9c-22.4 0-40.7 18.3-40.7 40.7v244 c0 22.4 18.3 40.7 40.7 40.7h284.6c22.4 0 40.7-18.3 40.7-40.7v-244C409.1 68.1 390.9 49.8 368.5 49.8z M368.5 334.4H83.9V171.8 h284.6V334.4z M148.9 9.1h-28.5v69.1h28.5V9.1z M331.9 9.1h-28.5v69.1h28.5V9.1z"/></g></g><g><circle fill-rule="evenodd" clip-rule="evenodd" fill="#0B4F78" stroke="#FFFFFF" stroke-width="18.2975" stroke-miterlimit="10" cx="123.5" cy="123.5" r="114.4"/><path fill-rule="evenodd" clip-rule="evenodd" fill="#FFFFFF" d="M179 88.7l-9.2-9.1c-3.4-3.3-8.9-3.3-12.3 0L105.2 131 l-15.7-15.4c-3.4-3.3-8.9-3.3-12.3 0l-9.2 9.1c-3.4 3.3-3.4 8.8 0 12.1l21.2 20.9l0.5 0.6l9.2 9.1c3.4 3.3 8.9 3.3 12.3 0 l67.6-66.6C182.4 97.5 182.4 92 179 88.7z"/></g></g></svg>