<svg xmlns="http://www.w3.org/2000/svg" xmlns:xlink="http://www.w3.org/1999/xlink" version="1.1" x="0px" y="0px" width="365px" height="408.9px" viewBox="0 0 365 408.9" enable-background="new 0 0 365 408.9" xml:space="preserve"><g><g><path fill="#0B4F78" d="M357.7 108.5l-186-95.9C146.2-0.9 96 25.1 81.5 47.9c-6.4 10.2-6 17.6-6 21.7l2.3 216.6 c0.2 4.6 5.9 10.8 10.9 13.8c10.3 6.3 166.6 103.9 171.1 106.7c2.4 1.5 5.2 2.2 8 2.2c2.4 0 4.7-0.5 6.9-1.6 c4.7-2.3 7.6-6.8 7.6-11.7V168.2c0-4.7-2.8-9.1-7.3-11.5L105.9 62.3c1.9-3.7 9.4-11.6 23.3-18.8c14.6-7.6 25.5-4.7 28-3.8 c0 0 162.3 86.9 167.3 89.4c4.9 2.6 5 3 5 7.4c0 4.4 0 215.8 0 215.8c0 10.8 10.9 15.2 19 15.2c8 0 16.6-7.9 16.6-15.2V119.9 C365 115.2 362.2 110.8 357.7 108.5z"/></g><g><circle fill-rule="evenodd" clip-rule="evenodd" fill="#0B4F78" stroke="#FFFFFF" stroke-width="17.7778" stroke-miterlimit="10" cx="120" cy="120" r="111.1"/><path fill-rule="evenodd" clip-rule="evenodd" fill="#FFFFFF" d="M173.9 86.2l-9-8.8c-3.3-3.2-8.6-3.2-11.9 0l-50.7 50l-15.2-15 c-3.3-3.2-8.6-3.2-11.9 0l-9 8.8c-3.3 3.2-3.3 8.5 0 11.8l20.6 20.3l0.5 0.6l9 8.8c3.3 3.2 8.6 3.2 11.9 0l65.7-64.7 C177.2 94.7 177.2 89.4 173.9 86.2z"/></g></g></svg>