<svg xmlns="http://www.w3.org/2000/svg" xmlns:xlink="http://www.w3.org/1999/xlink" version="1.1" x="0px" y="0px" viewBox="0 0 400 400" enable-background="new 0 0 400 400" xml:space="preserve"><path fill="#0B4F78" d="M370.3 29.7c-39.6-39.6-103.9-39.6-143.5 0l-95.1 95.1l0 0l-102 102c-39.6 39.6-39.6 103.9 0 143.5l0 0 c19.8 19.8 45.8 29.7 71.8 29.7s51.9-9.9 71.8-29.7l102-102l0 0l95.1-95.1C409.9 133.6 409.9 69.4 370.3 29.7z M150.6 347.6 C137.5 360.7 120 368 101.5 368c-18.5 0-36-7.2-49.1-20.3C39.3 334.5 32 317.1 32 298.5s7.2-36 20.3-49.1l79.3-79.3l98.2 98.2 L150.6 347.6z M261.5 183.7l-0.4 0c-1.4 0.1-2.8-0.1-4.2-0.6c-6.1-2.1-9.4-9.1-7.4-15.7l19-63c0.5-1.5-0.3-3.2-1.7-3.7 c-1.4-0.5-4.2 1.3-6.5 3.9l-5 5.8l-6.5 8c-0.3-2.3-0.7-5.7-0.7-7.2c8.6-13 18.6-23.7 33.2-23.7c0.1 0 3 0.2 4.4 0.6 c6.1 2.1 9.4 9.1 7.4 15.7l-19.2 63.3c-0.3 1.4 0.5 2.9 1.8 3.3c1.4 0.5 4.4-1.3 6.7-3.9l5-5.8l6.5-8c0.3 2.3 0.7 5.7 0.7 7.2 C286 173 276 183.7 261.5 183.7z M291.1 78.4c-7.3 0-13.2-5.3-13.2-13.1c0-7.8 5.9-13.1 13.2-13.1c7.3 0 13.2 5.3 13.2 13.1 C304.3 73.1 298.4 78.4 291.1 78.4z"/></svg>