<svg xmlns="http://www.w3.org/2000/svg" xmlns:xlink="http://www.w3.org/1999/xlink" version="1.1" x="0px" y="0px" width="400px" height="400px" viewBox="0 0 400 400" enable-background="new 0 0 400 400" xml:space="preserve"><g><path fill="#557630" d="M200 0C89.7 0 0 89.7 0 200s89.7 200 200 200c110.3 0 200-89.7 200-200S310.3 0 200 0z M200 364.4 c-90.8 0-164.4-73.6-164.4-164.4c0-90.8 73.6-164.4 164.4-164.4S364.4 109.2 364.4 200C364.4 290.8 290.8 364.4 200 364.4z"/><circle fill="#557630" cx="138.6" cy="163.8" r="30.3"/><circle fill="#557630" cx="263" cy="163.8" r="30.3"/><path fill="#557630" d="M279.7 255.9c-0.2 0.2-24.3 24.2-77.3 24.2c-51.5 0-82.6-24.7-82.9-25c-4.1-3.4-10.3-2.8-13.7 1.3 c-3.4 4.1-2.8 10.3 1.3 13.7c1.5 1.2 36.4 29.4 95.2 29.4c61.1 0 90-28.9 91.2-30.1c3.7-3.8 3.7-10-0.2-13.7 C289.6 252 283.5 252.1 279.7 255.9z"/></g></svg>