<svg xmlns="http://www.w3.org/2000/svg" xmlns:xlink="http://www.w3.org/1999/xlink" version="1.1" x="0px" y="0px" viewBox="0 0 397.3 400.2" enable-background="new 0 0 397.3 400.2" xml:space="preserve"><g><path fill="#0B4F78" d="M69.3 312.9c2 1.4 4.3 2.1 6.5 2.1c4 0 8-2.3 10.3-6.4l94.1-166.5l65.6 47.4c5.5 4 12.9 2.3 16.6-3.7 L330 76.1c3.8-6.2 2.4-14.8-3.1-19.1c-5.6-4.3-13.2-2.7-17 3.5l-60.8 98.8l-66-47.7c-2.7-2-6.1-2.6-9.2-1.9c-3.2 0.8-5.9 3-7.7 6 L65.5 293.9C61.9 300.3 63.6 308.8 69.3 312.9z"/><path fill="#0B4F78" d="M311.8 208.9l-59.9 60.8l-70.5-61.5c-1.3-1.2-2.9-2-4.5-2.5l-9.4-2.6l-13.8 24.4l14.8 4.1l76.5 66.8 c2.2 1.9 4.9 2.9 7.5 2.9c2.9 0 5.9-1.2 8.2-3.5l67.5-68.5c5-5.1 5.4-13.7 0.9-19.4C324.5 204.2 316.8 203.8 311.8 208.9z"/><path fill="#0B4F78" d="M72.8 204.9l18.3 5.1l13.8-24.4l-26.2-7.3c-6.6-1.8-13.2 2.6-14.8 10C62.3 195.7 66.3 203.1 72.8 204.9z"/><path fill="#0B4F78" d="M378.3 360.2H35V19C35 8.5 28 0 17.5 0C7 0 0 8.5 0 19v381.3h378.3c10.5 0 19-9.5 19-20 C397.3 369.7 388.8 360.2 378.3 360.2z"/></g></svg>