<svg xmlns="http://www.w3.org/2000/svg" xmlns:xlink="http://www.w3.org/1999/xlink" version="1.1" x="0px" y="0px" width="400px" height="355.8px" viewBox="0 0 400 355.8" enable-background="new 0 0 400 355.8" xml:space="preserve"><g><path fill="#0B4F78" d="M62.1 115.4c18.7-14.6 34.3-4.5 55 19.5c2.3 2.7 5.5-0.5 7.2-2c1.8-1.6 29.2-26.2 30.5-27.3 c1.3-1.2 2.9-3.4 0.8-5.8c-2.1-2.5-9.9-12.5-14.9-19.1C104.5 33.2 240.1 1 219.3 0.4c-10.6-0.3-53.1-0.8-59.5-0.1 c-25.8 2.7-58.1 26.8-74.4 38C64.1 53 56.1 61.5 54.8 62.7c-6 5.3-1 17.4-11.9 27C31.4 99.8 24.2 92.1 17.5 98 c-3.3 2.9-12.6 9.9-15.3 12.2c-2.7 2.3-3.1 6.3-0.4 9.5c0 0 25.4 28 27.5 30.5c2.1 2.5 7.8 4.6 11.4 1.4 c3.6-3.1 12.7-11.1 14.2-12.5C56.5 137.8 53.9 121.8 62.1 115.4z"/><path fill="#0B4F78" d="M398.9 45.1c-1.5-9.9-6.6-7.8-9.3-3.6c-2.7 4.2-14.5 22.1-19.3 30.2c-4.8 8.1-16.7 23.9-38.8 8.3 c-23.1-16.3-15-27.7-11-35.3c4-7.7 16.4-29.2 18.2-31.9c1.8-2.7-0.3-10.6-7.4-7.3C324 8.8 280.5 26 274.4 50.8 c-6.2 25.2 5.2 47.8-17.1 70.2l-27 28.1l27.1 31.5l33.2-31.5c7.9-8 24.8-15.7 40.1-12.2c32.8 7.4 50.7-4.9 61.5-25.2 C402 93.4 400.4 55.1 398.9 45.1z"/><path fill="#0B4F78" d="M54.2 319.5c-4.2 4.2-4.2 11 0 15.2l19.1 18.7c4.2 4.2 10.8 2.4 15-1.8l98.6-96.9l-30.2-34.4L54.2 319.5z"/><path fill="#0B4F78" d="M176.8 125.8c-2.4-2.8-5.4-2.8-8-0.6L140 150.4c-2.3 2-2.6 5.7-0.5 8L306 348c3.9 4.5 10.6 5 15.1 1.1 l19.5-16.3c4.4-3.9 4.9-10.7 1-15.2L176.8 125.8z"/></g></svg>