<svg xmlns="http://www.w3.org/2000/svg" xmlns:xlink="http://www.w3.org/1999/xlink" version="1.1" x="0px" y="0px" viewBox="0 0 400 346.9" enable-background="new 0 0 400 346.9" xml:space="preserve"><g><path fill="#0B4F78" d="M392.9 161l-6.8-0.6c-12.2-0.5-76.1-20.4-96.5-25.1c-10.2-2.4-20.6-4.7-31.3-6.4c-5.4-0.9-10.7-1.5-16.4-2 l-4.3-0.3l-3.9-0.1c-3-0.1-5.8 0-8.6 0.1c-11.3 0.6-22.2 2.7-32.6 5.8c-5.2 1.5-10.3 3.3-15.3 5.4c-2.5 1-5 2.1-7.3 3.2 c-1.3 0.6-2.5 1.3-3.7 1.9c0.8-1 1.6-2.1 2.4-3.1c2.4-2.7 4.4-5.9 6.8-8.6c2.3-2.8 4.5-5.8 6.9-8.5c2.3-2.9 4.8-5.5 7.2-8.3 c2.5-2.5 5-5.3 7.8-7.6c2.6-2.5 5.5-4.6 8.4-6.5c1.4-0.9 3-2 4.3-2.6c1.4-0.7 2.5-1.4 4.6-2.1l2.8-1l0.2-0.1l0.1 0l0 0 c0.5-0.1-0.6 0.1-0.5 0.1l0.3-0.1l0.7-0.1l1.3-0.3c1.7-0.4 3.6-0.7 5.4-1c3.7-0.6 7.4-1 11.2-1.2c3.8-0.1 7.6-0.1 11.5 0 c3.8 0.2 7.8 0.5 11.4 1.1l6.1 1l2-8l0 0c1.5-5.2 1.6-10.4 1.3-15.6l-0.1-1.3l-0.1-0.3c-0.7-2.4-1.4-4.8-2.4-7.1 c-1-2.3-2.1-4.4-3.4-6.5c-1.2-2.1-2.7-3.9-4.2-5.8c-1.5-1.8-3.1-3.5-4.7-5.2c-3.2-3.3-6.7-6.1-10.2-8.8c-3.5-2.7-6.9-5.3-10.5-7.8 c-3.5-2.5-7.1-4.9-10.6-7.4c-3.5-2.5-7.1-4.9-10.8-7.2c-3.7-2.3-7.4-4.5-11.2-6.6c-3.8-2-7.8-3.8-11.9-5.3L187.8 1L187.2 1 c-8.9-1-17.5-1-26.1-1l-12.8 0.3l-12.6 0.4l-0.4 0l-0.1 0c-7.4 0.8-13.9 3.1-20.3 5.6c-6.3 2.6-12.3 5.5-18.2 8.7 c-11.7 6.3-23 13.4-33.9 20.8c-11 7.4-21.7 15-32.1 23.2C20.3 67 10.1 75.3 0 83.8l3.5 4.3c10.3-8 20.8-15.9 31.4-23.5 c10.7-7.5 21.4-15.1 32.3-22.2c10.9-7.1 22-13.9 33.5-19.9c5.7-3 11.6-5.7 17.5-8.1c5.9-2.3 11.9-4.2 17.8-4.8l12.5-0.2l12.6-0.1 c8.2 0.1 16.5 0.2 24.4 1.2c2.1 0.7 4.2 1.6 6.3 2.4c-1-0.1-2.1-0.2-3.2-0.2c0 0-20.3 2.8-30 11.1c2.8 5.5 2.8 5.5 2.8 5.5 l59.5 0.5c0 0-3-4-8.3-8.1c2.2 1.1 4.5 2.2 6.6 3.5c3.6 2.1 7 4.5 10.3 7c3.2 2.6 6.2 5.4 9.1 8.4c1.4 1.5 2.7 3.1 4 4.7 c1.3 1.6 2.4 3.2 3.5 4.9c1 1.7 2 3.5 2.8 5.3c0.8 1.8 1.6 3.6 2.2 5.4c1 3.2 1.6 6.5 1.8 9.7c-0.2 1.4-0.5 2.7-0.7 4.1 c-1.1 0-2.3 0-3.4 0.1c-4.2 0-8.4 0.2-12.6 0.5c-4.2 0.2-8.4 0.5-12.7 1c-2.1 0.2-4.3 0.5-6.5 0.8l-1.6 0.3l-0.8 0.1l-0.4 0.1 l-0.9 0.2l-2.9 0.7c-1.8 0.3-4.3 1.2-6.6 2c-2.4 0.8-4.2 1.7-6.4 2.5c-2.1 0.8-4 1.9-6 2.8c-2 0.9-3.9 2-5.8 3.1 c-3.8 2.1-7.4 4.5-11 6.9c-3.4 2.6-6.9 5-10.1 7.8c-3.3 2.7-6.5 5.5-9.4 8.5c-3.1 2.9-5.8 6.1-8.6 9.3c-2.6 3.2-5.3 6.5-7.7 9.9 c-2.2 3.5-4.8 6.8-6.7 10.6c-1.9 3.7-4 7.3-5.6 11.1c-1.6 3.8-3.3 7.6-4.8 11.4c-1.4 3.9-3 7.7-4.2 11.6c-1.2 3.9-2.2 8-2.7 12.1 l-1.5 10.3l5.4-6.8l0 0c5.2-2.3 9.6-5.4 13.8-8.6c4.2-3.1 8.3-6.2 12.4-9.1c4.1-2.9 8.1-5.7 12.2-8.1c4.2-2.3 8.3-4.5 12.5-6.1 c2.1-0.8 4.2-1.5 6.4-2.1l7.1-2c4.6-1.2 9.3-2.2 14-3c9.4-1.4 18.7-2.3 27.7-1.7c2.2 0.2 4.6 0.4 6.5 0.6l3.8 0.5l3.2 0.6 c4.4 0.8 9.1 1.9 13.7 3.2c4.6 1.2 9.4 2.6 14.1 4c4.7 1.4 9.5 3.1 14.3 4.5l29.2 9.2l14.9 4.2c5 1.4 13 4.7 14 5.4 c2.1 1.5 3.8 2.5 5.4 3.3c3.2 1.6 5.9 2.7 8.6 3.7c5.4 2 10.4 3.5 15.4 4.9c5 1.4 10 2.6 14.9 3.7l7.4 1.6l3.7 0.8l5.7 0.7v-40.1 L392.9 161z"/><polygon fill="#0B4F78" points="290.9,82.2 311.6,71.3 332.3,82.2 328.3,59.1 345.1,42.8 321.9,39.4 311.6,18.5 301.2,39.4 278.1,42.8 294.8,59.1"/><path fill="#0B4F78" d="M103.2 225.2l-12.7 40.5c-3.9 13.5-8 29.6-11.3 43.7h-0.5c-2.7-14.3-6.4-29.4-10.1-43.5l-11.7-40.6H20.9 l-7.6 121.7h25l2.1-46.2c0.9-15.2 1.4-34 2.1-50.4h0.4c2.8 15.9 6.9 33.2 10.8 47.5l12.7 47.1h21.1l14.5-47.5 c4.6-14.3 9.6-31.6 13.3-47.1h0.5c0 17.7 0.5 35.4 1.1 50l1.8 46.6H145l-6.6-121.7H103.2z"/><polygon fill="#0B4F78" points="237.2,272 192.8,272 192.8,225.2 165.7,225.2 165.7,346.9 192.8,346.9 192.8,296 237.2,296 237.2,346.9 264.2,346.9 264.2,225.2 237.2,225.2"/><path fill="#0B4F78" d="M343.6 277.2c-4.1 13.9-7.8 28.4-10.8 43h-0.5c-2.8-15.2-6.5-29.1-10.6-43.5l-14.5-51.5h-29.6l38.2 121.7 h31.5l40.2-121.7h-28.7L343.6 277.2z"/></g></svg>