<svg xmlns="http://www.w3.org/2000/svg" xmlns:xlink="http://www.w3.org/1999/xlink" version="1.1" x="0px" y="0px" viewBox="0 0 400 400" enable-background="new 0 0 400 400" xml:space="preserve"><g><g><g><path fill="#B86125" d="M371.5 396.3H28.7c-2.8 0-25-2.2-25-31V32.5C3 19 26.9 3.5 29.7 3.5h338.9c2.8 0 28 22.2 28 25v340.9 C396.5 372.1 374.3 396.3 371.5 396.3z"/><path fill="#5C3113" d="M360.8 399.9H39.4c-21.7 0-39.3-17.6-39.3-39.3V39.2c0-21.7 17.6-39.3 39.3-39.3h321.4 c21.7 0 39.3 17.6 39.3 39.3v321.4C400.1 382.3 382.5 399.9 360.8 399.9z M39.4 7.1C21.6 7.1 7.2 21.5 7.2 39.2v321.4 c0 17.7 14.4 32.1 32.1 32.1h321.4c17.7 0 32.1-14.4 32.1-32.1V39.2c0-17.7-14.4-32.1-32.1-32.1H39.4z"/></g></g><path fill-rule="evenodd" clip-rule="evenodd" fill="#FFFFFF" d="M166.7 101h91.7c4.6 0 8.3 3.7 8.3 8.3v183.3 c0 4.6-3.7 8.3-8.3 8.3H125.1c-4.6 0-8.3-3.7-8.3-8.3V151h50V101z M91.7 142.7v166.7c0 9.2 7.5 16.7 16.7 16.7h166.7 c9.2 0 16.7-7.5 16.7-16.7V92.7c0-9.2-7.5-16.7-16.7-16.7H158.4L91.7 142.7z M141.7 217.7v16.7h50v-16.7H141.7z M141.7 251v16.7 h100V251H141.7z M141.7 184.3V201h83.3v-16.7H141.7z"/></g></svg>