<svg xmlns="http://www.w3.org/2000/svg" xmlns:xlink="http://www.w3.org/1999/xlink" version="1.1" x="0px" y="0px" width="361.5px" height="400px" viewBox="0 0 361.5 400" enable-background="new 0 0 361.5 400" xml:space="preserve"><g><path fill="#FFFFFF" d="M285.8 166.4c-51.5-110.9-78.3-153-162.5-151.2c-30 0.6-22.8-21.7-45.6-13.2C54.9 10.4 74.5 22.8 51.1 42 C-14.5 95.8-8.4 145.6 22 264.3c12.8 50-30.9 52.4-13.6 100.9c12.6 35.3 105.7 50.1 203.9 13.7c98.2-36.4 160.2-108.8 147.6-144.1 C342.6 186.3 307.6 213.1 285.8 166.4z M201.6 349c-87.7 32.5-159.8 13.4-162.9 4.9c-5.3-14.7 28.3-63.6 128.6-100.8 c100.3-37.2 156.2-23.4 162.1-7C332.9 255.7 289.4 316.5 201.6 349z M173.5 270.1c-45.9 17-77.7 36.5-98.3 54 c14.5 13.2 41.7 16.4 68.8 6.3c34.5-12.8 55.7-42.2 47.3-65.6c-0.1-0.3-0.2-0.5-0.4-0.8C185.2 265.8 179.4 267.9 173.5 270.1z"/></g></svg>