<svg xmlns="http://www.w3.org/2000/svg" xmlns:xlink="http://www.w3.org/1999/xlink" version="1.1" x="0px" y="0px" width="400px" height="400px" viewBox="0 0 400 400" enable-background="new 0 0 400 400" xml:space="preserve"><g><path fill="#0B4F78" d="M390.5 72.3h-49.3L366.5 47c3.7-3.7 3.7-9.7 0-13.4c-3.7-3.7-9.7-3.7-13.4 0l-25.3 25.4V9.5 c0-5.2-4.2-9.5-9.5-9.5c-5.2 0-9.5 4.2-9.5 9.5v49.4l-25.3-25.4c-3.7-3.7-9.7-3.7-13.4 0c-3.7 3.7-3.7 9.7 0 13.4l25.3 25.4h-49.3 c-5.2 0-9.5 4.2-9.5 9.5c0 5.2 4.2 9.5 9.5 9.5h49.3l-25.3 25.4c-3.7 3.7-3.7 9.7 0 13.4c1.9 1.9 4.3 2.8 6.7 2.8 c2.4 0 4.8-0.9 6.7-2.8l25.3-25.4v49.4c0 5.2 4.2 9.5 9.5 9.5c5.2 0 9.5-4.3 9.5-9.5v-49.4l25.3 25.4c1.9 1.9 4.3 2.8 6.7 2.8 c2.4 0 4.8-0.9 6.7-2.8c3.7-3.7 3.7-9.7 0-13.4l-25.3-25.4h49.3c5.2 0 9.5-4.2 9.5-9.5C400 76.6 395.8 72.3 390.5 72.3z"/><path fill="#0B4F78" d="M300.7 249.9c-10.7 0-21.5-1.2-32.1-3.5c-38.9-8.6-72.1-31.8-93.6-65.4c-21.5-33.6-28.6-73.6-20-112.6 c1.3-6.1 3.2-12.4 5.4-18.7L176.5 5l-44.9 15.4C66.7 42.7 19.2 96.1 4.5 163.2c-23 105 43.5 209.2 148.3 232.3 c13.8 3 27.9 4.6 41.9 4.6c81.7 0 155.1-51.8 182.8-128.8l16.1-44.8l-44.9 15.4C333.2 247.2 317 249.9 300.7 249.9z"/></g></svg>