<svg xmlns="http://www.w3.org/2000/svg" xmlns:xlink="http://www.w3.org/1999/xlink" version="1.1" x="0px" y="0px" width="400px" height="355.3px" viewBox="0 0 400 355.3" enable-background="new 0 0 400 355.3" xml:space="preserve"><path fill="#A65A26" d="M398.2 332.9L212.6 7.3C210 2.8 205.2 0 200 0c-5.2 0-10 2.8-12.6 7.3L1.9 332.9c-2.5 4.4-2.5 10.4 0.1 14.7 c2.6 4.4 7.3 7.6 12.5 7.6h371.1c5.1 0 9.9-3.3 12.5-7.6C400.6 343.3 400.7 337.3 398.2 332.9z M274.1 233.3h-56v55h-38v-55h-54v-37 h54v-55h38v55h56V233.3z"/></svg>