<svg xmlns="http://www.w3.org/2000/svg" xmlns:xlink="http://www.w3.org/1999/xlink" version="1.1" x="0px" y="0px" width="410px" height="305px" viewBox="5 48 410 305" enable-background="new 5 48 410 305" xml:space="preserve"><g><path fill="#FFFFFF" stroke="#FFFFFF" stroke-miterlimit="10" d="M135 283c-13.8 0-25 11.2-25 25v15c0 13.8 11.2 25 25 25h250 c13.8 0 25-11.2 25-25v-15c0-13.8-11.2-25-25-25H135z M135 168c-13.8 0-25 11.2-25 25v15c0 13.8 11.2 25 25 25h250 c13.8 0 25-11.2 25-25v-15c0-13.8-11.2-25-25-25H135z M135 53c-13.8 0-25 11.2-25 25v15c0 13.8 11.2 25 25 25h250 c13.8 0 25-11.2 25-25V78c0-13.8-11.2-25-25-25H135z M35 283c-13.8 0-25 11.2-25 25v15c0 13.8 11.2 25 25 25h25 c13.8 0 25-11.2 25-25v-15c0-13.8-11.2-25-25-25H35z M35 168c-13.8 0-25 11.2-25 25v15c0 13.8 11.2 25 25 25h25 c13.8 0 25-11.2 25-25v-15c0-13.8-11.2-25-25-25H35z M35 53c-13.8 0-25 11.2-25 25v15c0 13.8 11.2 25 25 25h25 c13.8 0 25-11.2 25-25V78c0-13.8-11.2-25-25-25H35z"/><path fill="#FFFFFF" stroke="#FFFFFF" stroke-width="10" stroke-miterlimit="10" d="M135 283c-13.8 0-25 11.2-25 25v15 c0 13.8 11.2 25 25 25h250c13.8 0 25-11.2 25-25v-15c0-13.8-11.2-25-25-25H135z M135 168c-13.8 0-25 11.2-25 25v15 c0 13.8 11.2 25 25 25h250c13.8 0 25-11.2 25-25v-15c0-13.8-11.2-25-25-25H135z M135 53c-13.8 0-25 11.2-25 25v15 c0 13.8 11.2 25 25 25h250c13.8 0 25-11.2 25-25V78c0-13.8-11.2-25-25-25H135z M35 283c-13.8 0-25 11.2-25 25v15 c0 13.8 11.2 25 25 25h25c13.8 0 25-11.2 25-25v-15c0-13.8-11.2-25-25-25H35z M35 168c-13.8 0-25 11.2-25 25v15 c0 13.8 11.2 25 25 25h25c13.8 0 25-11.2 25-25v-15c0-13.8-11.2-25-25-25H35z M35 53c-13.8 0-25 11.2-25 25v15 c0 13.8 11.2 25 25 25h25c13.8 0 25-11.2 25-25V78c0-13.8-11.2-25-25-25H35z"/></g></svg>