<svg xmlns="http://www.w3.org/2000/svg" xmlns:xlink="http://www.w3.org/1999/xlink" version="1.1" x="0px" y="0px" width="400px" height="284.5px" viewBox="0 0 400 284.5" enable-background="new 0 0 400 284.5" xml:space="preserve"><g><path fill="#0B4F78" d="M100 214.1c-19.6 0-35.6 15.8-35.6 35.2c0 19.5 16 35.2 35.6 35.2c19.7 0 35.6-15.8 35.6-35.2 C135.6 229.9 119.7 214.1 100 214.1z"/><path fill="#0B4F78" d="M315.4 214.1c-19.7 0-35.6 15.8-35.6 35.2c0 19.5 15.9 35.2 35.6 35.2c19.6 0 35.6-15.8 35.6-35.2 C351 229.9 335 214.1 315.4 214.1z"/><path fill="#0B4F78" d="M388.2 119.6l-34.4-44.9c-7-8.4-11.8-14.7-23.1-14.7h-69.2c-8.5 0-16.5 5.8-16.5 14.2v152.3 c0 8.4 7.4 15.2 15.9 15.2c3.8-26.2 26.7-47.4 54.2-47.4c27.5 0 50.5 20.7 54.2 45.7h15.3c8.5 0 15.4-5.1 15.4-13.5 c0 0 0-61.7 0-76.1C400 135.9 388.2 119.6 388.2 119.6z M290 150V90h39.9c2.5 0 5.9 3.3 5.9 3.3l32.4 44.1c2.9 4.2 6 7.6 6 12.6 H290z"/><path fill="#0B4F78" d="M215.4 0h-200C6.9 0 0 4.9 0 13.3v213.2c0 8.4 6.9 13.5 15.4 13.5h30.7c3.8-25 26.4-46.5 53.9-46.5 c27.6 0 50.2 21.5 53.9 46.5h61.5c8.5 0 14.6-5.1 14.6-13.5V13.3C230 4.9 223.9 0 215.4 0z"/></g><g></g><g></g><g></g><g></g><g></g><g></g><g></g><g></g><g></g><g></g><g></g><g></g><g></g><g></g><g></g></svg>