<svg xmlns="http://www.w3.org/2000/svg" xmlns:xlink="http://www.w3.org/1999/xlink" version="1.1" x="0px" y="0px" width="400px" height="178.6px" viewBox="0 0 400 178.6" enable-background="new 0 0 400 178.6" xml:space="preserve"><path fill="#0B4F78" d="M395.4 80.3C351.4 30 278.4 0 200 0C121.7 0 48.6 30 4.6 80.2c-8.2 9.4-5.1 22.2 7.1 28.6 c4.6 2.4 9.7 3.6 14.9 3.6c8.5 0 16.9-3.2 22-9c1.7-1.9 3.5-3.8 5.2-5.6c20.8 47 78.4 80.9 146.2 80.9c67.8 0 125.4-33.8 146.2-80.9 c1.8 1.8 3.5 3.7 5.2 5.6c8.2 9.4 24.7 11.8 36.9 5.5C400.5 102.4 403.7 89.7 395.4 80.3z M200 163.3c-63.3 0-116.5-33.9-130.9-79.4 c19.5-15.5 43.2-27.2 69.2-34.4c-8.5 9.4-13.5 20.8-13.5 33.2c0 32.1 33.6 58.1 75.1 58.1s75.1-26 75.1-58.1 c0-12.4-5-23.8-13.5-33.2c26 7.2 49.8 18.9 69.3 34.4C316.5 129.4 263.3 163.3 200 163.3z"/></svg>