<svg xmlns="http://www.w3.org/2000/svg" xmlns:xlink="http://www.w3.org/1999/xlink" version="1.1" x="0px" y="0px" viewBox="0 0 400 304.3" enable-background="new 0 0 400 304.3" xml:space="preserve"><g><path fill-rule="evenodd" clip-rule="evenodd" fill="#0B4F78" d="M400 201.1V59.3l-111.6 70.9L400 201.1z M62.2 241.6 c4.9 11 16.2 18.7 29.2 18.7h276.6c13 0 24.2-7.6 29.2-18.6c1.8-3.9 2.7-8.2 2.7-12.8l-133.6-84.8l-36.6 23.2l-36.6-23.2L59.5 229 C59.5 233.5 60.5 237.7 62.2 241.6z M59.5 59.3v141.8l111.6-70.9L59.5 59.3z M91.5 0C78.4 0 67.2 7.7 62.2 18.7 c-1.7 3.9-2.7 8.1-2.7 12.6l170.2 108.1L400 31.4c0-4.5-1-8.9-2.7-12.8c-5-11-16.2-18.6-29.2-18.6H91.5z"/><g><g><path fill="#0B4F78" d="M152.9 163c-1.9-43-18.7-76.6-63.3-76.6c-40.1 0-60.9 33.7-63.2 76.8c-12.2 2-21.6 12.5-21.6 25.2v85.5 c0 14.2 11.5 25.6 25.7 25.6h119.8c14.2 0 25.7-11.5 25.7-25.6v-85.5C176 175.1 165.8 164.4 152.9 163z M88.2 115.8 c21.3 0 29.1 14.2 34.1 47H56.7C61.7 130 66.9 115.8 88.2 115.8z"/><path fill="#FFFFFF" d="M150.3 304.3H30.4C13.7 304.3 0 290.6 0 273.9v-85.5c0-13.7 9-25.3 21.9-29.1c3.7-48 29.5-77.7 67.7-77.7 c41.2 0 64.6 26.7 67.8 77.3c13.5 3.2 23.3 15.2 23.3 29.4v85.5C180.7 290.6 167.1 304.3 150.3 304.3z M89.6 91.2 c-34.2 0-56 27-58.5 72.3l-0.2 3.8l-3.8 0.6c-10.2 1.6-17.6 10.3-17.6 20.5v85.5c0 11.5 9.4 20.9 20.9 20.9h119.8 c11.5 0 20.9-9.4 20.9-20.9v-85.5c0-10.7-8.1-19.6-18.8-20.7l-4.1-0.4l-0.2-4.1C146 115.4 126.3 91.2 89.6 91.2z M127.9 167.5 H51.2l0.8-5.5c4.7-30.8 9.8-51 36.2-51c25.8 0 34 19.5 38.8 51L127.9 167.5z M62.3 158h54.5c-5-28.2-12.3-37.5-28.5-37.5 C72.8 120.6 67.3 128.1 62.3 158z"/></g></g><path fill="#FFFFFF" d="M98 238.5v20.9c0 5.1-4.1 9.2-9.2 9.2s-9.2-4.1-9.2-9.2v-20.9c-5.5-3.2-9.2-9-9.2-15.8 c0-10.1 8.2-18.3 18.4-18.3c10.1 0 18.4 8.2 18.4 18.3C107.2 229.5 103.5 235.3 98 238.5z"/></g></svg>