<svg xmlns="http://www.w3.org/2000/svg" xmlns:xlink="http://www.w3.org/1999/xlink" version="1.1" x="0px" y="0px" width="400px" height="328.9px" viewBox="0 0 400 328.9" enable-background="new 0 0 400 328.9" xml:space="preserve"><g><g><path fill="#FFFFFF" d="M16.2 190l13.7 2.5c0.2 0.6 0.4 1.3 0.6 1.8L23 205.1c-2.2 3.2-1.4 7.7 1.8 9.9l0.4 0.3 c3.2 2.2 7.7 1.4 9.9-1.8l8.2-11.9l1 0c0.2 0 0.4-0.1 0.6-0.1l10.2 10.2c2.8 2.8 7.5 2.8 10.3 0L66 211c2.8-2.8 2.8-7.5 0-10.3 l-9.7-9.7c0.1-0.5 0.1-1.1 0.1-1.6l12.8-7.9c3.3-2 4.3-6.3 2.3-9.6l-0.1-0.2c-2-3.3-6.3-4.3-9.6-2.3L49 177.2 c-0.4-0.2-0.8-0.3-1.1-0.4l-0.7-14c-0.2-3.8-3.5-6.8-7.3-6.6l-0.3 0c-3.8 0.2-6.8 3.5-6.6 7.3l0.7 14.2l-14.8-2.7 c-3.9-0.7-7.7 1.9-8.4 5.8l-0.1 0.7C9.7 185.5 12.3 189.3 16.2 190z M42.1 179.1c4.4-0.1 8.1 3.5 8.2 7.9c0.1 4.4-3.5 8.1-7.9 8.2 c-4.4 0.1-8.1-3.5-8.2-7.9C34.1 182.9 37.7 179.2 42.1 179.1z"/></g><g><path fill="#FFFFFF" d="M237.1 133l-7.5 14.6l-13.3-11.3c-3.5-3-8.7-2.5-11.7 1L204 138c-3 3.5-2.5 8.7 1 11.7l12.2 10.4 c-0.2 0.7-0.4 1.5-0.4 2.2l-13.7 6.5c-4.1 1.9-5.9 6.8-3.9 10.9l0.3 0.6c1.9 4.1 6.8 5.9 10.9 3.9l15.1-7.1l1 0.6 c0.2 0.1 0.4 0.2 0.6 0.3l4.3 16.1c1.2 4.5 5.8 7.1 10.3 6l1-0.3c4.5-1.2 7.1-5.8 6-10.3l-4.1-15.4c0.4-0.5 0.7-1 1.1-1.5 l17.4-0.5c4.5-0.1 8-3.8 7.8-8.3l0-0.3c-0.1-4.5-3.8-8-8.3-7.8l-17.3 0.5c-0.3-0.4-0.6-0.7-0.9-1.1l7.4-14.4c2-4 0.5-8.8-3.5-10.9 l-0.3-0.1C244 127.4 239.1 129 237.1 133z M240.9 166.5c-2.5 4.5-8.2 6.1-12.7 3.7c-4.5-2.5-6.1-8.2-3.7-12.7 c2.5-4.5 8.2-6.1 12.7-3.7C241.7 156.3 243.3 162 240.9 166.5z"/></g><g><path fill="#FFFFFF" d="M22.2 109.2c2.2 5.7 8.5 8.5 14.2 6.4l20.8-7.9l1.3 0.9c0.3 0.2 0.6 0.3 0.8 0.4l4.1 21.9 c1.1 6.1 7 10.1 13.1 9l1.3-0.2c6.1-1.1 10.1-7 9-13.1L83 105.5c0.6-0.6 1.1-1.3 1.6-1.9l23.3 1.1c6 0.3 11-4.3 11.3-10.2l0-0.4 c0.3-6-4.3-11-10.2-11.3l-23.1-1.1c-0.3-0.5-0.7-1-1.1-1.5l11.4-18.4c3.1-5.1 1.5-11.7-3.5-14.8l-0.4-0.2 c-5.1-3.1-11.7-1.5-14.8 3.5L65.8 68.8L49.3 52.4c-4.4-4.3-11.4-4.3-15.7 0.1l-0.8 0.8c-4.3 4.4-4.3 11.4 0.1 15.7l15.2 15.1 c-0.3 1-0.6 1.9-0.8 2.9l-18.9 7.2c-5.7 2.2-8.5 8.5-6.4 14.2L22.2 109.2z M58.1 81.5c3.8-5.7 11.5-7.3 17.3-3.6 s7.3 11.5 3.6 17.3c-3.8 5.7-11.5 7.3-17.3 3.6S54.3 87.2 58.1 81.5z"/></g><g><path fill="#FFFFFF" d="M173 137.6l-0.2-0.3c-3.2-4.5-9.4-5.7-13.9-2.5L141.2 147c-0.5-0.2-1.1-0.4-1.7-0.5l-2.1-20 c-0.6-5.5-5.5-9.5-11-8.9l-0.4 0c-5.5 0.6-9.5 5.5-8.9 11l2.1 20.3l-21.4-2.7c-5.7-0.7-10.8 3.3-11.5 9l-0.1 1.1 c-0.7 5.7 3.3 10.8 9 11.5l19.8 2.5c0.3 0.9 0.6 1.8 1 2.6l-9.8 16c-2.9 4.8-1.4 11.1 3.4 14l0.7 0.4c4.8 2.9 11.1 1.4 14-3.4 l10.8-17.6l1.4-0.1c0.3 0 0.6-0.1 0.9-0.2l15.4 13.8c4.3 3.8 10.9 3.5 14.8-0.8l0.8-0.9c3.8-4.3 3.5-10.9-0.8-14.8l-14.7-13.2 c0.1-0.8 0.1-1.5 0.1-2.3l17.8-12.4C175 148.4 176.1 142.2 173 137.6z M133.1 173.4c-6.3 0.5-11.9-4.3-12.4-10.7 c-0.5-6.3 4.3-11.9 10.7-12.4c6.3-0.5 11.9 4.3 12.4 10.7C144.3 167.3 139.5 172.9 133.1 173.4z"/></g><g><path fill="#FFFFFF" d="M187.6 73.9l-20.3-0.4c-5.4-0.1-9.8 4.2-9.9 9.5l0 1c-0.1 5.4 4.2 9.8 9.5 9.9l18.7 0.4 c0.4 0.8 0.7 1.6 1.2 2.3l-7.6 15.9c-2.3 4.8-0.3 10.5 4.5 12.8l0.6 0.3c4.8 2.3 10.5 0.3 12.8-4.5l8.4-17.5l1.3-0.2 c0.3 0 0.5-0.2 0.8-0.2l15.7 11.3c4.4 3.2 10.5 2.2 13.7-2.2l0.7-1c3.2-4.4 2.2-10.5-2.2-13.7l-15-10.8c0-0.7-0.1-1.4-0.2-2.2 l15.4-13.3c3.9-3.4 4.4-9.3 1-13.3l-0.2-0.3c-3.4-3.9-9.3-4.4-13.3-1l-15.2 13.2c-0.5-0.1-1.1-0.2-1.6-0.3l-3.9-18.5 c-1.1-5.1-6.1-8.3-11.2-7.2l-0.4 0.1c-5.1 1.1-8.3 6.1-7.2 11.2L187.6 73.9z M199.1 73.9c5.9-1.1 11.6 2.9 12.6 8.7 c1.1 5.9-2.9 11.6-8.7 12.6c-5.9 1.1-11.6-2.9-12.6-8.7C189.3 80.6 193.2 75 199.1 73.9z"/></g><g><path fill="#FFFFFF" d="M257.5 72.5l12.7 6.9c0 0.4 0.1 0.8 0.2 1.2l-11.4 7.3c-3.1 2-4.1 6.2-2.1 9.3l0.1 0.2 c2 3.1 6.2 4.1 9.3 2.1l11.6-7.4l4.8 13.7c1.3 3.6 5.2 5.5 8.9 4.2l0.7-0.2c3.6-1.3 5.5-5.2 4.2-8.9L292 88.2 c0.4-0.4 0.9-0.9 1.2-1.4l12.6 1.1c3.8 0.3 7.1-2.5 7.4-6.2l0-0.5c0.3-3.8-2.5-7.1-6.2-7.4l-13.8-1.2l-0.5-0.8 c-0.1-0.2-0.2-0.3-0.3-0.5l3.7-13.4c1-3.7-1.2-7.6-4.9-8.6l-0.8-0.2c-3.7-1-7.6 1.2-8.6 4.9l-3.5 12.8c-0.5 0.2-1 0.4-1.4 0.7 l-12.8-7c-3.3-1.8-7.3-0.6-9.1 2.7l-0.1 0.2C253 66.6 254.2 70.7 257.5 72.5z M277.7 73.6c3.7-2.2 8.5-1 10.7 2.7s1 8.5-2.7 10.7 c-3.7 2.2-8.5 1-10.7-2.7C272.8 80.6 274 75.8 277.7 73.6z"/></g><g><path fill="#FFFFFF" d="M116.2 42.6l15.6 0l-3.8 16c-1 4.2 1.6 8.5 5.9 9.5l0.8 0.2c4.2 1 8.5-1.6 9.5-5.9l3.5-14.8 c0.7-0.2 1.4-0.3 2-0.6l11.4 8.8c3.4 2.6 8.3 2 10.9-1.4l0.4-0.5c2.6-3.4 2-8.3-1.4-10.9l-12.5-9.6l0-1.1c0-0.2 0-0.4 0-0.7 l11.7-10.5c3.3-2.9 3.5-8 0.6-11.2L170 9.1c-2.9-3.3-8-3.5-11.2-0.6l-11.2 10.1c-0.6-0.1-1.2-0.2-1.8-0.2L137.9 4 c-2-3.7-6.7-5-10.4-3l-0.3 0.1c-3.7 2-5 6.7-3 10.4l7.9 14.3c-0.2 0.4-0.4 0.8-0.5 1.2l-15.3 0c-4.2 0-7.6 3.4-7.6 7.6l0 0.3 C108.6 39.1 112 42.6 116.2 42.6z M142.9 24.9c4.8 0.1 8.7 4.2 8.5 9.1c-0.1 4.8-4.2 8.7-9.1 8.5c-4.8-0.1-8.7-4.2-8.5-9.1 C133.9 28.6 138 24.8 142.9 24.9z"/></g><g><path fill="#FFFFFF" d="M399.8 148.4l-0.1-0.5c-1.3-6.2-7.4-10.2-13.6-8.9l-24.1 5.1c-0.5-0.5-1-0.9-1.5-1.3l6.7-22.1 c1.9-6.1-1.6-12.5-7.7-14.4l-0.4-0.1c-6.1-1.9-12.5 1.6-14.4 7.7l-6.8 22.5l-21.5-12.4c-5.7-3.3-12.9-1.4-16.2 4.3l-0.6 1.1 c-3.3 5.7-1.4 12.9 4.3 16.2l19.8 11.5c-0.1 1.1-0.2 2.1-0.1 3.2l-17.6 12.6c-5.3 3.8-6.5 11.1-2.7 16.3l0.5 0.7 c3.8 5.3 11.1 6.5 16.3 2.7l19.4-13.8l1.6 0.5c0.3 0.1 0.6 0.1 1 0.2L352 201c2.8 6 10 8.6 16 5.7l1.3-0.6c6-2.8 8.6-10 5.7-16 l-9.7-20.5c0.4-0.8 0.8-1.6 1.1-2.4l24.4-5.1C397.1 160.7 401.1 154.6 399.8 148.4z M358.4 160c-2.3 6.9-9.9 10.7-16.9 8.4 c-6.9-2.3-10.7-9.9-8.4-16.9c2.3-6.9 9.9-10.7 16.9-8.4C357 145.5 360.8 153.1 358.4 160z"/></g><g><path fill="#FFFFFF" d="M280.8 211.7c-19.7 0-48.4 7.2-59.7 8.1c-11.2 0.9-24.2 3.6-34.5 4.9c-10.3 1.3-61.9 2.7-73.6 2.2 c-5.4 1.3-9.9 4.9-2.2 13.9c6.7 4.5-0.9 7.6 57.9 13.9c9 1.3 36.8 2.2 36.8 2.2s4.9-0.4 3.6 3.6c-1.3 4-28.3 12.1-31.4 12.1 s-42.2 1.3-47.5 0s-87-28.7-93.3-30.1c-6.3-1.3-13.4-4-17.5-4c-7.2 0-16.1 4-19.3 7.7c0.5 3.5 0.9 3.7 5.2 6.3 c4.3 2.6 37 13.3 41.9 15.6s67.7 41.3 93.7 47.5c12.1 3.1 30.1 14.8 59.7 13c29.6-1.8 70.9-26.9 75.4-30.1 c4.5-3.1 8.1-6.3 16.1-6.3c8.1 0 18.8 2.2 25.1 5.4c6.3 3.1 39.5 23.3 39.5 23.3l33.2-52.9l-79.4-48 C310.4 220.2 300.5 211.7 280.8 211.7z"/></g></g></svg>