<svg xmlns="http://www.w3.org/2000/svg" xmlns:xlink="http://www.w3.org/1999/xlink" version="1.1" x="0px" y="0px" width="399.9px" height="431.2px" viewBox="0 0 399.9 431.2" enable-background="new 0 0 399.9 431.2" xml:space="preserve"><filter><feGaussianBlur stdDeviation="4"/></filter><path fill="#0B4F78" stroke="#000000" stroke-width="1.2365" stroke-miterlimit="10" d="M387.2 430.8H13.9 c-7.4 0-13.3-5.1-13.3-11.5V11.1c0-6.3 6-11.5 13.3-11.5h373.3c7.4 0 13.3 5.1 13.3 11.5v408.3C400.5 425.7 394.5 430.8 387.2 430.8 z"/><g filter="url(#AI_GaussianBlur_4)"><polygon fill="#333333" points="101,70 116,70 116,64 101,64 101,56 118,56 118,50 93,50 93,85 101,85"/></g><path fill="#333333" filter="url(#AI_GaussianBlur_4)" d="M124.2 82.6c2.6 2.1 5.6 3.1 9 3.1c4.1 0 7.3-1.5 9.6-3.9 c1.5-1.6 2.3-2.8 2.5-4.8h-6.8c-0.4 1-0.9 1.6-1.4 2c-1 0.8-2.2 1.3-3.7 1.3c-1.4 0-2.7-0.3-3.7-0.9c-1.7-1-2.6-2.3-2.7-5.3h18.6 c0-2 0-3.9-0.2-5.1c-0.3-2-1-3.8-2-5.3c-1.2-1.7-2.6-3-4.4-3.8c-1.8-0.8-3.8-1.2-6-1.2c-3.7 0-6.8 1.2-9.1 3.5 c-2.3 2.4-3.5 5.8-3.5 10.2C120.3 77.1 121.6 80.5 124.2 82.6z M128.9 65.9c0.9-1 2.3-1.6 4-1.6c1.6 0 2.9 0.6 4 1.5 c1.1 0.9 1.7 2.2 1.8 4.2h-11.5C127.4 68 128 66.8 128.9 65.9z"/><path fill="#333333" filter="url(#AI_GaussianBlur_4)" d="M150.8 82.6c2.6 2.1 5.6 3.1 9 3.1c4.1 0 7.3-1.5 9.6-3.9 c1.5-1.6 2.3-2.8 2.5-4.8h-6.8c-0.4 1-0.9 1.6-1.4 2c-1 0.8-2.2 1.3-3.7 1.3c-1.4 0-2.7-0.3-3.7-0.9c-1.7-1-2.6-2.3-2.7-5.3h18.6 c0-2 0-3.9-0.2-5.1c-0.3-2-1-3.8-2-5.3c-1.2-1.7-2.6-3-4.4-3.8c-1.8-0.8-3.8-1.2-6-1.2c-3.7 0-6.8 1.2-9.1 3.5 c-2.3 2.4-3.5 5.8-3.5 10.2C146.9 77.1 148.2 80.5 150.8 82.6z M155.6 65.9c0.9-1 2.3-1.6 4-1.6c1.6 0 2.9 0.6 4 1.5 c1.1 0.9 1.7 2.2 1.8 4.2h-11.5C154.1 68 154.7 66.8 155.6 65.9z"/><path fill="#333333" filter="url(#AI_GaussianBlur_4)" d="M184.6 85.7c1.8 0 3.1-0.3 4.3-1s2-1.8 3-3.3V85h7V50h-7v12.6 c-1-1.2-1.7-2.1-2.9-2.8s-2.5-1-4.1-1c-3.4 0-6 1.2-8 3.8s-3 5.9-3 10.3c0 3.8 1 6.9 3.1 9.3S181.6 85.7 184.6 85.7z M182.3 66.8 c0.9-1.5 2.3-2.2 4.3-2.2c1.3 0 2.4 0.4 3.4 1.2c1.6 1.3 2.4 3.6 2.4 6.7c0 2.2-0.5 4.1-1.5 5.5s-2.4 2.1-4.3 2.1s-3.3-0.7-4.2-2.1 s-1.4-3.3-1.4-5.7C180.9 70.1 181.4 68.3 182.3 66.8z"/><path fill="#333333" filter="url(#AI_GaussianBlur_4)" d="M211 81.7c1 1.2 1.9 2.1 2.7 2.6c1.3 0.8 3.1 1.3 5.2 1.3 c3.4 0 6-1.3 7.9-3.9s2.8-5.9 2.8-9.9c0-3.8-0.9-7-2.9-9.4s-4.6-3.6-7.9-3.6c-1.9 0-3.6 0.4-4.8 1.2c-1 0.6-2 1.5-3 2.7V50h-6v35h6 V81.7z M211.9 67.9c0.9-2.2 2.6-3.3 5-3.3c2.4 0 4.1 1.1 5 3.4c0.5 1.2 0.7 2.7 0.7 4.5c0 2.3-0.5 4.1-1.4 5.5s-2.3 2.1-4 2.1 c-2 0-3.5-0.7-4.5-2.2s-1.5-3.2-1.5-5.4C211.2 70.6 211.5 69.1 211.9 67.9z"/><path fill="#333333" filter="url(#AI_GaussianBlur_4)" d="M247.1 68.8c-0.5 0.2-1.4 0.4-2.7 0.6l-2.3 0.3c-2.6 0.3-4.6 0.9-5.9 1.6 c-2.4 1.4-3.7 3.7-3.7 6.8c0 2.4 0.8 4.3 2.3 5.6c1.5 1.3 3.4 2 5.8 2c1.8 0 3.5-0.4 4.9-1.2c1.2-0.7 2.3-1.6 3.2-2.6 c0 0.6 0.1 1.1 0.2 1.6s0.2 0.5 0.4 1.5h7.7v-1.1c-1-0.2-1-0.5-1.2-0.8s-0.5-0.9-0.6-1.8c0-1.2-0.2-2.1-0.2-3V66.7 c0-3.1-1-5.2-3.2-6.3c-2.2-1.1-4.6-1.7-7.4-1.7c-4.3 0-7.3 1.3-9.1 3.6c-1.1 1.4-1.7 2.7-1.9 5.7h6.4c0.2-1 0.5-1.9 1-2.5 c0.7-0.8 1.8-1.3 3.4-1.3c1.4 0 2.5 0.2 3.2 0.6c0.7 0.4 1.1 1.1 1.1 2.1C248.5 67.8 248 68.4 247.1 68.8z M249 75 c-1 2.2-0.9 3.8-2.2 4.6s-2.7 1.3-4.2 1.3c-0.9 0-1.8-0.3-2.4-0.8s-1-1.3-1-2.5c0-1.3 0.5-2.2 1.6-2.8c0.6-0.4 1.6-0.7 3.1-0.9 l1.5-0.3c0.8-0.1 1.6-0.3 2-0.5c0.4-0.2 0.5-0.4 1.5-0.6V75z"/><g filter="url(#AI_GaussianBlur_4)"><path fill="#333333" d="M271.5 85.8c4.1 0 7.2-1.3 9.3-4.2c1.3-1.8 2-3.6 2.2-5.6h-6.8c-0.1 1-0.5 2.3-1.2 3.1s-1.8 1.2-3.3 1.2 c-2.2 0-3.7-1.1-4.5-3.2c-0.4-1.1-0.7-2.7-0.7-4.5c0-2 0.2-3.5 0.7-4.7c0.8-2.2 2.4-3.4 4.6-3.4c1.6 0 2.7 0.7 3.5 1.8 c0.5 0.8 0.8 1.8 1 2.8h6.8c-0.4-4-1.6-6.4-3.6-7.9s-4.7-2.3-7.9-2.3c-3.8 0-6.7 1.2-8.9 3.6s-3.2 5.8-3.2 10.2c0 3.9 1 7 2.9 9.5 S267.4 85.8 271.5 85.8z"/></g><g filter="url(#AI_GaussianBlur_4)"><polygon fill="#333333" points="294,76.9 296.9,74 303.1,85 311.3,85 301.8,68.8 310.9,59 302.6,59 294,69.1 294,50 288,50 288,85 294,85"/></g><g filter="url(#AI_GaussianBlur_4)"><path fill="#333333" d="M277.7 160H123.4C105 160 90 175.3 90 193.7v85.7c0 18.4 15 33.6 33.4 33.6h20.5l15.2 37.9 c1.2 2.9 4 4.8 7.2 4.8s6-1.9 7.2-4.8l15.2-37.9h89.1c18.4 0 33.3-15.1 33.3-33.6v-85.7C311 175.3 296.1 160 277.7 160z M296 279.4 c0 9.9-8.4 17.6-18.3 17.6h-94.3c-3.2 0-6 2.1-7.2 5.1l-10 25l-10-25.1c-1.2-2.9-4-5-7.2-5h-25.7c-9.9 0-18.4-7.6-18.4-17.6v-85.7 c0-9.9 8.5-17.7 18.4-17.7h154.3c9.9 0 18.3 7.8 18.3 17.7V279.4z"/><path fill="#333333" d="M252 212H149.1c-4.3 0-7.7 3.2-7.7 7.5c0 4.3 3.4 7.5 7.7 7.5H252c4.3 0 7.7-3.2 7.7-7.5 C259.7 215.2 256.2 212 252 212z"/><path fill="#333333" d="M234.9 246h-85.7c-4.3 0-7.7 3.2-7.7 7.5s3.4 7.5 7.7 7.5h85.7c4.3 0 7.7-3.2 7.7-7.5S239.1 246 234.9 246z "/></g><g><polygon fill="#FFFFFF" points="100.7,71.4 116,71.4 116,65.4 100.7,65.4 100.7,57.5 118.1,57.5 118.1,51.4 93.5,51.4 93.5,85.9 100.7,85.9"/><path fill="#FFFFFF" d="M124.2 83.6c2.6 2.1 5.6 3.1 9 3.1c4.1 0 7.3-1.2 9.6-3.7c1.5-1.6 2.3-3.1 2.5-4.6h-6.8 c-0.4 0.8-0.9 1.3-1.4 1.8c-1 0.8-2.2 1.2-3.7 1.2c-1.4 0-2.7-0.3-3.7-1c-1.7-1-2.6-2.8-2.7-5.4h18.6c0-2.2 0-3.9-0.2-5.1 c-0.3-2-1-3.8-2-5.3c-1.2-1.7-2.6-3-4.4-3.8c-1.8-0.8-3.8-1.2-6-1.2c-3.7 0-6.8 1.2-9.1 3.5c-2.3 2.4-3.5 5.8-3.5 10.2 C120.3 78.1 121.6 81.5 124.2 83.6z M128.9 66.7c0.9-1 2.3-1.5 4-1.5c1.6 0 2.9 0.5 4 1.4c1.1 0.9 1.7 2.3 1.8 4h-11.5 C127.4 68.9 128 67.6 128.9 66.7z"/><path fill="#FFFFFF" d="M150.8 83.6c2.6 2.1 5.6 3.1 9 3.1c4.1 0 7.3-1.2 9.6-3.7c1.5-1.6 2.3-3.1 2.5-4.6h-6.8 c-0.4 0.8-0.9 1.3-1.4 1.8c-1 0.8-2.2 1.2-3.7 1.2c-1.4 0-2.7-0.3-3.7-1c-1.7-1-2.6-2.8-2.7-5.4h18.6c0-2.2 0-3.9-0.2-5.1 c-0.3-2-1-3.8-2-5.3c-1.2-1.7-2.6-3-4.4-3.8c-1.8-0.8-3.8-1.2-6-1.2c-3.7 0-6.8 1.2-9.1 3.5c-2.3 2.4-3.5 5.8-3.5 10.2 C146.9 78.1 148.2 81.5 150.8 83.6z M155.6 66.7c0.9-1 2.3-1.5 4-1.5c1.6 0 2.9 0.5 4 1.4c1.1 0.9 1.7 2.3 1.8 4h-11.5 C154.1 68.9 154.7 67.6 155.6 66.7z"/><path fill="#FFFFFF" d="M184.6 86.7c1.8 0 3.3-0.3 4.5-1s2.3-1.8 3.3-3.3v3.5h6.5V51.4h-6.8v12.2c-0.8-1.2-1.7-2.1-2.9-2.8 s-2.6-1-4.1-1c-3.4 0-6 1.2-8.1 3.8s-3 5.9-3 10.3c0 3.8 1 6.9 3.1 9.3S181.6 86.7 184.6 86.7z M182.3 67.8 c0.9-1.5 2.3-2.2 4.3-2.2c1.3 0 2.4 0.4 3.4 1.2c1.6 1.3 2.4 3.6 2.4 6.7c0 2.2-0.5 4.1-1.5 5.5s-2.4 2.1-4.3 2.1s-3.3-0.7-4.2-2.1 s-1.4-3.3-1.4-5.7C180.9 71.1 181.4 69.3 182.3 67.8z"/><path fill="#FFFFFF" d="M211.3 82.7c0.9 1.2 1.7 2.1 2.5 2.6c1.3 0.8 3 1.3 5.1 1.3c3.4 0 6-1.3 7.9-3.9s2.8-5.9 2.8-9.9 c0-3.8-1-7-2.9-9.4s-4.6-3.6-7.9-3.6c-1.9 0-3.4 0.4-4.6 1.2c-1 0.6-2 1.5-2.8 2.7V51.4h-6.7v34.5h6.6V82.7z M211.9 68.9 c0.9-2.2 2.6-3.3 5-3.3c2.4 0 4.1 1.1 5 3.4c0.5 1.2 0.7 2.7 0.7 4.5c0 2.3-0.5 4.1-1.4 5.5s-2.3 2.1-4 2.1c-2 0-3.5-0.7-4.5-2.2 s-1.5-3.2-1.5-5.4C211.2 71.6 211.5 70.1 211.9 68.9z"/><path fill="#FFFFFF" d="M247.1 69.8c-0.5 0.2-1.4 0.4-2.7 0.6l-2.3 0.3c-2.6 0.3-4.6 0.9-5.9 1.6c-2.4 1.4-3.7 3.7-3.7 6.8 c0 2.4 0.8 4.3 2.3 5.6c1.5 1.3 3.4 2 5.8 2c1.8 0 3.5-0.4 4.9-1.2c1.2-0.7 2.3-1.6 3.2-2.6c0 0.6 0.1 1.1 0.2 1.5s0.2 0.9 0.4 1.5 h7.3v-1c-0.4-0.2-0.8-0.5-1-0.8s-0.4-0.9-0.4-1.8c0-1.2 0-2.1 0-3V67.7c0-3.1-1.1-5.2-3.3-6.3c-2.2-1.1-4.7-1.7-7.5-1.7 c-4.3 0-7.4 1.1-9.1 3.4c-1.1 1.4-1.7 3.3-1.9 5.5h6.4c0.2-1 0.5-1.8 1-2.3c0.7-0.8 1.8-1.2 3.4-1.2c1.4 0 2.5 0.2 3.2 0.6 c0.7 0.4 1.1 1.1 1.1 2.2C248.5 68.7 248 69.4 247.1 69.8z M248.5 76c0 2.2-0.7 3.8-1.9 4.6s-2.6 1.3-4 1.3c-0.9 0-1.7-0.3-2.3-0.8 s-1-1.3-1-2.5c0-1.3 0.5-2.2 1.6-2.8c0.6-0.4 1.6-0.7 3.1-0.9l1.5-0.3c0.8-0.1 1.4-0.3 1.8-0.5c0.4-0.2 0.9-0.4 1.3-0.6V76z"/><path fill="#FFFFFF" d="M271.5 86.8c4.1 0 7.2-1.5 9.3-4.4c1.3-1.8 2-3.7 2.2-5.8h-6.8c-0.1 1.3-0.5 2.4-1.2 3.3s-1.8 1.3-3.3 1.3 c-2.2 0-3.7-1.1-4.5-3.2c-0.4-1.1-0.7-2.6-0.7-4.5c0-2 0.2-3.5 0.7-4.7c0.8-2.2 2.4-3.4 4.6-3.4c1.6 0 2.7 0.5 3.5 1.5 c0.5 0.8 0.8 1.6 1 2.6h6.8c-0.4-3.6-1.6-6.2-3.6-7.6s-4.7-2.2-7.9-2.2c-3.8 0-6.7 1.2-8.9 3.7s-3.2 5.8-3.2 10.2 c0 3.9 1 7 2.9 9.5S267.4 86.8 271.5 86.8z"/><polygon fill="#FFFFFF" points="294.2,77.9 296.9,75 303.1,85.9 311.3,85.9 301.8,70 310.9,60.5 302.6,60.5 294.2,70.1 294.2,51.5 287.6,51.5 287.6,85.9 294.2,85.9"/><path fill="#FFFFFF" d="M277.7 161.3H123.4c-18.4 0-33.4 15-33.4 33.4v85.7c0 18.4 15 33.4 33.4 33.4h20.5l15.2 38 c1.2 2.9 4 4.9 7.2 4.9s6-1.9 7.2-4.9l15.2-38h89.1c18.4 0 33.4-15 33.4-33.4v-85.7C311.1 176.3 296.1 161.3 277.7 161.3z M295.7 280.4c0 9.9-8.1 18-18 18h-94.3c-3.2 0-6 1.9-7.2 4.9l-10 24.9l-10-24.9c-1.2-2.9-4-4.9-7.2-4.9h-25.7c-9.9 0-18-8.1-18-18 v-85.7c0-9.9 8.1-18 18-18h154.3c9.9 0 18 8.1 18 18V280.4z"/><path fill="#FFFFFF" d="M252 212.7H149.1c-4.3 0-7.7 3.4-7.7 7.7c0 4.3 3.4 7.7 7.7 7.7H252c4.3 0 7.7-3.4 7.7-7.7 C259.7 216.2 256.2 212.7 252 212.7z"/><path fill="#FFFFFF" d="M234.9 247h-85.7c-4.3 0-7.7 3.4-7.7 7.7s3.4 7.7 7.7 7.7h85.7c4.3 0 7.7-3.4 7.7-7.7S239.1 247 234.9 247z "/></g></svg>