<svg xmlns="http://www.w3.org/2000/svg" xmlns:xlink="http://www.w3.org/1999/xlink" version="1.1" x="0px" y="0px" width="401.1px" height="432.4px" viewBox="0 0 401.1 432.4" enable-background="new 0 0 401.1 432.4" xml:space="preserve"><filter><feGaussianBlur stdDeviation="4"/></filter><path fill="#0B4F78" stroke="#000000" stroke-width="1.2365" stroke-miterlimit="10" d="M387.2 431.8H13.9 c-7.4 0-13.3-5.1-13.3-11.5V12.1c0-6.3 6-11.5 13.3-11.5h373.3c7.4 0 13.3 5.1 13.3 11.5v408.3C400.5 426.7 394.5 431.8 387.2 431.8 z"/><g filter="url(#AI_GaussianBlur_4)"><path fill="#333333" d="M200.5 177.2c-47.1 0-85.3 37.8-85.3 84.5c0 28 13.8 52.9 35 68.2l-6.2 18c-0.6 1.6-0.4 5.1 3.2 6.7 c3.6 1.6 6.3-0.6 7.1-2.2l8.2-15c11.4 5.6 24.3 8.8 38 8.8c13.7 0 26.6-3.2 38.1-8.9l8.2 15.1c0.8 1.6 3.5 3.8 7.1 2.2 c3.6-1.6 3.8-5.1 3.2-6.7l-6.2-18c21.2-15.4 34.9-40.2 34.9-68.2C285.8 215 247.6 177.2 200.5 177.2z M201.5 326.1v-5.8 c0-0.6-0.4-1-1-1c-0.6 0-1 0.5-1 1v5.8c-35.1-0.5-63.5-28.7-64.1-63.4h5.9c0.6 0 1-0.4 1-1c0-0.6-0.5-1-1-1h-5.9 c0.6-34.7 29-62.9 64.2-63.4v5.8c0 0.5 0.4 0.9 0.9 0.9s0.9-0.4 0.9-0.9v-5.8c35.1 0.5 63.6 28.6 64.2 63.4h-5.9c-0.6 0-1 0.4-1 1 c0 0.6 0.5 1 1 1h5.9C265.1 297.4 236.6 325.6 201.5 326.1z"/><path fill="#333333" d="M184.7 168h31.5c0.1-7.1-7-14.2-15.7-14.2C191.8 153.8 184.7 160.4 184.7 168z"/><path fill="#333333" d="M240.5 165l49.5 49c13.6-13.5 11-32.9-2.6-46.4C273.7 154.1 254.2 151.5 240.5 165z"/><path fill="#333333" d="M113.7 167.6c-13.7 13.5-16.3 32.9-2.6 46.5l49.5-49C146.9 151.5 127.3 154 113.7 167.6z"/><path fill="#333333" d="M212.9 262.3c0-0.2 0-0.4 0-0.6c0-4.3-2.2-8.1-5.6-10.3l-1.7-38.9c-0.1-1.8-1.5-5-5.1-5c-3.5 0-5 3.2-5.1 5 l-2 39.2c-3.2 2.2-5.3 5.9-5.3 10c0 6.8 5.6 12.3 12.4 12.3c0.5 0 0.9 0 1.4-0.1l24 21.1c1.3 1.2 4.8 2.2 7.7-0.6 c2.9-2.9 1.8-6.3 0.6-7.7L212.9 262.3z"/><path fill="#333333" d="M108.8 73.3h7.2c3.8 0 6.6-0.8 8.7-2.5s3-4.6 3-8.6c0-3.7-1-6.5-3-8.3s-4.8-2.7-8.2-2.7h-14.8v34.5h7.2 V73.3z M108.8 57.2h6.5c1.6 0 2.9 0.4 3.8 1.1s1.4 2 1.4 3.8s-0.5 3.1-1.4 3.9s-2.2 1.2-3.8 1.2h-6.5V57.2z"/><path fill="#333333" d="M145.8 69.6c-0.5 0.2-1.4 0.4-2.7 0.6l-2.3 0.3c-2.6 0.3-4.6 0.9-5.9 1.6c-2.4 1.4-3.7 3.7-3.7 6.8 c0 2.4 0.8 4.3 2.3 5.6c1.5 1.3 3.4 2 5.8 2c1.8 0 3.5-0.4 4.9-1.2c1.2-0.7 2.3-1.6 3.2-2.6c0 0.6 0.1 1.1 0.2 1.5s0.2 0.9 0.4 1.5 h7.3v-1c-0.4-0.2-0.8-0.5-1-0.8s-0.4-0.9-0.4-1.8c0-1.2 0-2.1 0-3V67.5c0-3.1-1.1-5.2-3.3-6.3c-2.2-1.1-4.7-1.7-7.5-1.7 c-4.3 0-7.4 1.1-9.1 3.4c-1.1 1.4-1.7 3.3-1.9 5.5h6.4c0.2-1 0.5-1.8 1-2.3c0.7-0.8 1.8-1.2 3.4-1.2c1.4 0 2.5 0.2 3.2 0.6 c0.7 0.4 1.1 1.1 1.1 2.2C147.2 68.6 146.7 69.2 145.8 69.6z M147.2 75.8c0 2.2-0.7 3.8-1.9 4.6s-2.6 1.3-4 1.3 c-0.9 0-1.7-0.3-2.3-0.8s-1-1.3-1-2.5c0-1.3 0.5-2.2 1.6-2.8c0.6-0.4 1.6-0.7 3.1-0.9l1.5-0.3c0.8-0.1 1.4-0.3 1.8-0.5 s0.9-0.4 1.3-0.6V75.8z"/><path fill="#333333" d="M173.5 80.9c-0.8 0.4-1.8 0.6-3.1 0.6c-2.2 0-3.8-0.4-4.6-1.3c-0.5-0.5-0.8-1.3-0.9-2.5h-6.8 c0 2.6 1 4.8 2.9 6.5s4.9 2.5 8.9 2.5c3.9 0 6.9-0.8 8.7-2.4s2.8-3.7 2.8-6.2c0-1.9-0.7-3.5-2-4.8c-1.3-1.3-3.3-2.2-6-2.8 c-4-0.9-6.3-1.5-7-1.9c-0.7-0.3-1-0.9-1-1.7c0-0.6 0.3-1.1 0.9-1.6c0.6-0.5 1.7-0.7 3.1-0.7c1.8 0 3 0.5 3.8 1.4 c0.4 0.5 0.6 1.2 0.7 2h6.7c-0.3-3.1-1.5-5.3-3.5-6.6c-2-1.3-4.6-1.9-7.8-1.9c-3.4 0-6 0.8-7.8 2.5s-2.8 3.7-2.8 6.1 c0 2 0.6 3.5 1.8 4.6c1.2 1.1 3.2 2 6.1 2.7c4 1 6.4 1.6 7 2c0.6 0.4 0.9 1 0.9 1.7C174.7 79.9 174.3 80.5 173.5 80.9z"/><path fill="#333333" d="M187.3 80.9c0 1.6 0.4 2.8 1.1 3.5c1.2 1.2 3.3 1.8 6.5 1.6l3.2-0.1v-5c-0.2 0-0.4 0-0.7 0s-0.4 0-0.6 0 c-1.4 0-2.2-0.1-2.4-0.4s-0.4-0.9-0.4-2V65.2h4.1v-4.8h-4.1v-7.1h-6.6v7.1h-3.6v4.8h3.6V80.9z"/><path fill="#333333" d="M242.7 79.3c1.8-3.2 2.8-7.1 2.8-11.7c0-1.8-0.2-3.7-0.7-5.7c-0.4-2-1.3-3.9-2.5-5.6 c-1.5-2.1-3.5-3.6-5.9-4.4c-1.4-0.5-3.2-0.7-5.3-0.8h-14.9v34.5h14.9C236.3 85.7 240.2 83.6 242.7 79.3z M223.2 79.7V57.2h6.7 c3.3 0 5.5 0.9 6.6 2.8c1.1 1.9 1.7 4.6 1.7 8.1c0 2.5-0.4 4.7-1.1 6.6c-1.3 3.4-3.7 5-7.1 5H223.2z"/><path fill="#333333" d="M258.9 86.3c1.3 0 2.4-0.2 3.4-0.5c1-0.3 2-1 3-1.9c0.3-0.3 0.6-0.6 0.9-1c0.2-0.4 0.4-0.6 0.5-0.7v3.6h6.5 V60.2h-6.8v13.9c0 1.6-0.2 3-0.7 4c-0.8 1.8-2.4 2.8-4.7 2.8c-1.8 0-3-0.6-3.6-1.9c-0.3-0.7-0.5-1.8-0.5-3.3V60.2h-6.8v15.4 c0 2.9 0.4 5.1 1.1 6.6C252.6 84.9 255.1 86.3 258.9 86.3z"/><path fill="#333333" d="M302.8 69.8c-0.3-2-1-3.8-2-5.3c-1.2-1.7-2.6-3-4.4-3.8s-3.8-1.2-6-1.2c-3.7 0-6.8 1.2-9.1 3.5 c-2.3 2.4-3.5 5.8-3.5 10.2c0 4.7 1.3 8.1 3.9 10.2c2.6 2.1 5.6 3.1 9 3.1c4.1 0 7.3-1.2 9.6-3.7c1.5-1.6 2.3-3.1 2.5-4.6h-6.8 c-0.4 0.8-0.9 1.3-1.4 1.8c-1 0.8-2.2 1.2-3.7 1.2c-1.4 0-2.7-0.3-3.7-1c-1.7-1-2.6-2.8-2.7-5.4H303 C303 72.6 302.9 70.9 302.8 69.8z M284.5 70.4c0.2-1.7 0.8-3 1.8-4c0.9-1 2.3-1.5 4-1.5c1.6 0 2.9 0.5 4 1.4c1.1 0.9 1.7 2.3 1.8 4 H284.5z"/></g><g><path fill="#FFFFFF" d="M200.5 177.2c-47.1 0-85.3 37.8-85.3 84.5c0 28 13.8 52.9 35 68.2l-6.2 18c-0.6 1.6-0.4 5.1 3.2 6.7 c3.6 1.6 6.3-0.6 7.1-2.2l8.2-15c11.4 5.6 24.3 8.8 38 8.8c13.7 0 26.6-3.2 38.1-8.9l8.2 15.1c0.8 1.6 3.5 3.8 7.1 2.2 c3.6-1.6 3.8-5.1 3.2-6.7l-6.2-18c21.2-15.4 34.9-40.2 34.9-68.2C285.8 215 247.6 177.2 200.5 177.2z M201.5 326.1v-5.8 c0-0.6-0.4-1-1-1c-0.6 0-1 0.5-1 1v5.8c-35.1-0.5-63.5-28.7-64.1-63.4h5.9c0.6 0 1-0.4 1-1c0-0.6-0.5-1-1-1h-5.9 c0.6-34.7 29-62.9 64.2-63.4v5.8c0 0.5 0.4 0.9 0.9 0.9s0.9-0.4 0.9-0.9v-5.8c35.1 0.5 63.6 28.6 64.2 63.4h-5.9c-0.6 0-1 0.4-1 1 c0 0.6 0.5 1 1 1h5.9C265.1 297.4 236.6 325.6 201.5 326.1z"/><path fill="#FFFFFF" d="M184.7 168h31.5c0.1-7.1-7-14.2-15.7-14.2C191.8 153.8 184.7 160.4 184.7 168z"/><path fill="#FFFFFF" d="M240.5 165l49.5 49c13.6-13.5 11-32.9-2.6-46.4C273.7 154.1 254.2 151.5 240.5 165z"/><path fill="#FFFFFF" d="M113.7 167.6c-13.7 13.5-16.3 32.9-2.6 46.5l49.5-49C146.9 151.5 127.3 154 113.7 167.6z"/><path fill="#FFFFFF" d="M212.9 262.3c0-0.2 0-0.4 0-0.6c0-4.3-2.2-8.1-5.6-10.3l-1.7-38.9c-0.1-1.8-1.5-5-5.1-5c-3.5 0-5 3.2-5.1 5 l-2 39.2c-3.2 2.2-5.3 5.9-5.3 10c0 6.8 5.6 12.3 12.4 12.3c0.5 0 0.9 0 1.4-0.1l24 21.1c1.3 1.2 4.8 2.2 7.7-0.6 c2.9-2.9 1.8-6.3 0.6-7.7L212.9 262.3z"/><path fill="#FFFFFF" d="M108.8 73.3h7.2c3.8 0 6.6-0.8 8.7-2.5s3-4.6 3-8.6c0-3.7-1-6.5-3-8.3s-4.8-2.7-8.2-2.7h-14.8v34.5h7.2 V73.3z M108.8 57.2h6.5c1.6 0 2.9 0.4 3.8 1.1s1.4 2 1.4 3.8s-0.5 3.1-1.4 3.9s-2.2 1.2-3.8 1.2h-6.5V57.2z"/><path fill="#FFFFFF" d="M145.8 69.6c-0.5 0.2-1.4 0.4-2.7 0.6l-2.3 0.3c-2.6 0.3-4.6 0.9-5.9 1.6c-2.4 1.4-3.7 3.7-3.7 6.8 c0 2.4 0.8 4.3 2.3 5.6c1.5 1.3 3.4 2 5.8 2c1.8 0 3.5-0.4 4.9-1.2c1.2-0.7 2.3-1.6 3.2-2.6c0 0.6 0.1 1.1 0.2 1.5s0.2 0.9 0.4 1.5 h7.3v-1c-0.4-0.2-0.8-0.5-1-0.8s-0.4-0.9-0.4-1.8c0-1.2 0-2.1 0-3V67.5c0-3.1-1.1-5.2-3.3-6.3c-2.2-1.1-4.7-1.7-7.5-1.7 c-4.3 0-7.4 1.1-9.1 3.4c-1.1 1.4-1.7 3.3-1.9 5.5h6.4c0.2-1 0.5-1.8 1-2.3c0.7-0.8 1.8-1.2 3.4-1.2c1.4 0 2.5 0.2 3.2 0.6 c0.7 0.4 1.1 1.1 1.1 2.2C147.2 68.6 146.7 69.2 145.8 69.6z M147.2 75.8c0 2.2-0.7 3.8-1.9 4.6s-2.6 1.3-4 1.3 c-0.9 0-1.7-0.3-2.3-0.8s-1-1.3-1-2.5c0-1.3 0.5-2.2 1.6-2.8c0.6-0.4 1.6-0.7 3.1-0.9l1.5-0.3c0.8-0.1 1.4-0.3 1.8-0.5 s0.9-0.4 1.3-0.6V75.8z"/><path fill="#FFFFFF" d="M173.5 80.9c-0.8 0.4-1.8 0.6-3.1 0.6c-2.2 0-3.8-0.4-4.6-1.3c-0.5-0.5-0.8-1.3-0.9-2.5h-6.8 c0 2.6 1 4.8 2.9 6.5s4.9 2.5 8.9 2.5c3.9 0 6.9-0.8 8.7-2.4s2.8-3.7 2.8-6.2c0-1.9-0.7-3.5-2-4.8c-1.3-1.3-3.3-2.2-6-2.8 c-4-0.9-6.3-1.5-7-1.9c-0.7-0.3-1-0.9-1-1.7c0-0.6 0.3-1.1 0.9-1.6c0.6-0.5 1.7-0.7 3.1-0.7c1.8 0 3 0.5 3.8 1.4 c0.4 0.5 0.6 1.2 0.7 2h6.7c-0.3-3.1-1.5-5.3-3.5-6.6c-2-1.3-4.6-1.9-7.8-1.9c-3.4 0-6 0.8-7.8 2.5s-2.8 3.7-2.8 6.1 c0 2 0.6 3.5 1.8 4.6c1.2 1.1 3.2 2 6.1 2.7c4 1 6.4 1.6 7 2c0.6 0.4 0.9 1 0.9 1.7C174.7 79.9 174.3 80.5 173.5 80.9z"/><path fill="#FFFFFF" d="M187.3 80.9c0 1.6 0.4 2.8 1.1 3.5c1.2 1.2 3.3 1.8 6.5 1.6l3.2-0.1v-5c-0.2 0-0.4 0-0.7 0s-0.4 0-0.6 0 c-1.4 0-2.2-0.1-2.4-0.4s-0.4-0.9-0.4-2V65.2h4.1v-4.8h-4.1v-7.1h-6.6v7.1h-3.6v4.8h3.6V80.9z"/><path fill="#FFFFFF" d="M242.7 79.3c1.8-3.2 2.8-7.1 2.8-11.7c0-1.8-0.2-3.7-0.7-5.7c-0.4-2-1.3-3.9-2.5-5.6 c-1.5-2.1-3.5-3.6-5.9-4.4c-1.4-0.5-3.2-0.7-5.3-0.8h-14.9v34.5h14.9C236.3 85.7 240.2 83.6 242.7 79.3z M223.2 79.7V57.2h6.7 c3.3 0 5.5 0.9 6.6 2.8c1.1 1.9 1.7 4.6 1.7 8.1c0 2.5-0.4 4.7-1.1 6.6c-1.3 3.4-3.7 5-7.1 5H223.2z"/><path fill="#FFFFFF" d="M258.9 86.3c1.3 0 2.4-0.2 3.4-0.5c1-0.3 2-1 3-1.9c0.3-0.3 0.6-0.6 0.9-1c0.2-0.4 0.4-0.6 0.5-0.7v3.6h6.5 V60.2h-6.8v13.9c0 1.6-0.2 3-0.7 4c-0.8 1.8-2.4 2.8-4.7 2.8c-1.8 0-3-0.6-3.6-1.9c-0.3-0.7-0.5-1.8-0.5-3.3V60.2h-6.8v15.4 c0 2.9 0.4 5.1 1.1 6.6C252.6 84.9 255.1 86.3 258.9 86.3z"/><path fill="#FFFFFF" d="M302.8 69.8c-0.3-2-1-3.8-2-5.3c-1.2-1.7-2.6-3-4.4-3.8s-3.8-1.2-6-1.2c-3.7 0-6.8 1.2-9.1 3.5 c-2.3 2.4-3.5 5.8-3.5 10.2c0 4.7 1.3 8.1 3.9 10.2c2.6 2.1 5.6 3.1 9 3.1c4.1 0 7.3-1.2 9.6-3.7c1.5-1.6 2.3-3.1 2.5-4.6h-6.8 c-0.4 0.8-0.9 1.3-1.4 1.8c-1 0.8-2.2 1.2-3.7 1.2c-1.4 0-2.7-0.3-3.7-1c-1.7-1-2.6-2.8-2.7-5.4H303 C303 72.6 302.9 70.9 302.8 69.8z M284.5 70.4c0.2-1.7 0.8-3 1.8-4c0.9-1 2.3-1.5 4-1.5c1.6 0 2.9 0.5 4 1.4c1.1 0.9 1.7 2.3 1.8 4 H284.5z"/></g></svg>