<svg xmlns="http://www.w3.org/2000/svg" xmlns:xlink="http://www.w3.org/1999/xlink" version="1.1" x="0px" y="0px" width="401.2px" height="501.4px" viewBox="-198 50.6 401.2 501.4" enable-background="new -198 50.6 401.2 501.4" xml:space="preserve"><g><path fill="#F8F8F8" stroke="#CCCCCC" stroke-width="1.2365" stroke-miterlimit="10" d="M189.3 482.4h-110l-80 68.8l-80.4-68.8 H-184c-7.4 0-13.3-5.1-13.3-11.5V62.7c0-6.3 6-11.5 13.3-11.5h373.3c7.4 0 13.3 5.1 13.3 11.5V471 C202.6 477.3 196.6 482.4 189.3 482.4z"/><g><path fill="#A65A26" d="M2.6 203.6c-54.5 0-98.8 44.4-98.8 99.1s44.2 99.1 98.8 99.1s98.8-44.4 98.8-99.1 C101.3 248 57.1 203.6 2.6 203.6z M2.6 384.2c-44.8 0-81.2-36.6-81.2-81.5s36.4-81.5 81.2-81.5s81.2 36.6 81.2 81.5 S47.3 384.2 2.6 384.2z"/><polygon fill="#A65A26" points="-13,309.2 -31.6,290.6 -49.9,309 -31.4,327.7 -13,346 55,277.7 36.7,259.3"/></g></g><g enable-background="new    "><path fill="#A65A26" d="M-114.4 105.4c2.8-2.8 6.3-4.3 10.6-4.3c5.8 0 10 1.9 12.6 5.7c1.5 2.1 2.3 4.3 2.4 6.4h-7.2 c-0.5-1.7-1-2.9-1.8-3.8c-1.3-1.5-3.2-2.2-5.7-2.2c-2.6 0-4.6 1.1-6.1 3.2c-1.5 2.1-2.2 5.1-2.2 9s0.8 6.8 2.4 8.7 c1.6 1.9 3.6 2.9 6 2.9c2.5 0 4.4-0.8 5.7-2.5c0.7-0.9 1.3-2.2 1.8-4h7.2c-0.6 3.8-2.2 6.8-4.7 9.2c-2.5 2.4-5.8 3.5-9.8 3.5 c-4.9 0-8.8-1.6-11.6-4.8c-2.8-3.2-4.2-7.6-4.2-13.2C-119.2 113.3-117.6 108.7-114.4 105.4z"/><path fill="#A65A26" d="M-62.3 133.2c-2.2 2.7-5.4 4-9.8 4s-7.7-1.3-9.8-4c-2.2-2.7-3.2-5.9-3.2-9.6c0-3.7 1.1-6.9 3.2-9.6 c2.2-2.7 5.4-4.1 9.8-4.1s7.7 1.4 9.8 4.1c2.2 2.7 3.2 5.9 3.2 9.6C-59.1 127.3-60.1 130.5-62.3 133.2z M-67.6 129.5 c1-1.4 1.6-3.4 1.6-5.9s-0.5-4.5-1.6-5.9s-2.5-2.1-4.5-2.1s-3.5 0.7-4.5 2.1s-1.6 3.4-1.6 5.9s0.5 4.5 1.6 5.9s2.6 2.1 4.5 2.1 S-68.7 130.9-67.6 129.5z"/><path fill="#A65A26" d="M-22.4 110.9c1.1 0.4 2.1 1.2 3 2.3c0.7 0.9 1.2 2 1.5 3.3c0.2 0.9 0.2 2.1 0.2 3.8l0 16.1h-6.8v-16.3 c0-1-0.2-1.8-0.5-2.4c-0.6-1.2-1.7-1.8-3.3-1.8c-1.8 0-3.1 0.8-3.8 2.3c-0.4 0.8-0.5 1.8-0.5 2.9v15.2h-6.7v-15.2 c0-1.5-0.2-2.6-0.5-3.3c-0.6-1.2-1.7-1.9-3.3-1.9c-1.9 0-3.2 0.6-3.8 1.9c-0.4 0.7-0.5 1.8-0.5 3.1v15.4h-6.8v-25.5h6.5v3.7 c0.8-1.3 1.6-2.3 2.3-2.8c1.3-1 3-1.5 5-1.5c2 0 3.5 0.4 4.7 1.3c1 0.8 1.7 1.8 2.2 3.1c0.9-1.5 2-2.6 3.3-3.3 c1.4-0.7 2.9-1.1 4.6-1.1C-24.6 110.2-23.5 110.4-22.4 110.9z"/><path fill="#A65A26" d="M9.9 113.5c2.1 2.2 3.1 5.4 3.1 9.7c0 4.5-1 7.9-3.1 10.3s-4.7 3.5-7.9 3.5c-2 0-3.7-0.5-5.1-1.5 c-0.7-0.6-1.5-1.4-2.2-2.5v13.3h-6.6v-35.6h6.4v3.8c0.7-1.1 1.5-2 2.3-2.6c1.5-1.1 3.3-1.7 5.3-1.7C5.2 110.2 7.8 111.3 9.9 113.5z M4.7 118.3c-0.9-1.5-2.4-2.3-4.4-2.3c-2.4 0-4.1 1.1-5 3.4c-0.5 1.2-0.7 2.8-0.7 4.6c0 3 0.8 5.1 2.4 6.3c0.9 0.7 2.1 1.1 3.4 1.1 c1.9 0 3.3-0.7 4.3-2.2c1-1.4 1.5-3.4 1.5-5.7C6.1 121.6 5.7 119.8 4.7 118.3z"/><path fill="#A65A26" d="M24.5 136.3h-6.7v-34.5h6.7V136.3z"/><path fill="#A65A26" d="M47.7 111.3c1.8 0.8 3.3 2.1 4.4 3.8c1 1.5 1.7 3.3 2 5.3c0.2 1.2 0.3 2.9 0.2 5.1H35.8 c0.1 2.6 1 4.4 2.7 5.4c1 0.6 2.2 1 3.7 1c1.5 0 2.8-0.4 3.7-1.2c0.5-0.4 1-1 1.4-1.8H54c-0.2 1.5-1 3.1-2.5 4.6 c-2.3 2.5-5.5 3.7-9.6 3.7c-3.4 0-6.4-1-9-3.1c-2.6-2.1-3.9-5.5-3.9-10.2c0-4.4 1.2-7.8 3.5-10.2c2.3-2.4 5.4-3.5 9.1-3.5 C43.9 110.1 45.9 110.5 47.7 111.3z M37.7 117.1c-0.9 1-1.5 2.3-1.8 4h11.5c-0.1-1.8-0.7-3.1-1.8-4c-1.1-0.9-2.4-1.4-4-1.4 C40 115.6 38.6 116.1 37.7 117.1z"/><path fill="#A65A26" d="M55.1 115.8V111h3.6v-7.1h6.6v7.1h4.1v4.8h-4.1v13.5c0 1 0.1 1.7 0.4 2s1.1 0.4 2.4 0.4c0.2 0 0.4 0 0.6 0 s0.4 0 0.7 0v5l-3.2 0.1c-3.2 0.1-5.3-0.4-6.5-1.6c-0.8-0.8-1.1-1.9-1.1-3.5v-15.7H55.1z"/><path fill="#A65A26" d="M90.4 111.3c1.8 0.8 3.3 2.1 4.4 3.8c1 1.5 1.7 3.3 2 5.3c0.2 1.2 0.3 2.9 0.2 5.1H78.4 c0.1 2.6 1 4.4 2.7 5.4c1 0.6 2.2 1 3.7 1c1.5 0 2.8-0.4 3.7-1.2c0.5-0.4 1-1 1.4-1.8h6.8c-0.2 1.5-1 3.1-2.5 4.6 c-2.3 2.5-5.5 3.7-9.6 3.7c-3.4 0-6.4-1-9-3.1c-2.6-2.1-3.9-5.5-3.9-10.2c0-4.4 1.2-7.8 3.5-10.2c2.3-2.4 5.4-3.5 9.1-3.5 C86.6 110.1 88.6 110.5 90.4 111.3z M80.4 117.1c-0.9 1-1.5 2.3-1.8 4h11.5c-0.1-1.8-0.7-3.1-1.8-4c-1.1-0.9-2.4-1.4-4-1.4 C82.7 115.6 81.3 116.1 80.4 117.1z"/><path fill="#A65A26" d="M114 111.2c1.2 0.7 2.2 1.6 2.9 2.8v-12.2h6.8v34.5h-6.5v-3.5c-1 1.5-2 2.6-3.3 3.3s-2.7 1-4.5 1 c-3 0-5.5-1.2-7.5-3.6s-3.1-5.5-3.1-9.3c0-4.4 1-7.8 3-10.3s4.7-3.8 8.1-3.8C111.4 110.2 112.8 110.5 114 111.2z M115.6 129.4 c1-1.4 1.5-3.2 1.5-5.5c0-3.1-0.8-5.4-2.4-6.7c-1-0.8-2.1-1.2-3.4-1.2c-2 0-3.4 0.7-4.3 2.2s-1.4 3.3-1.4 5.5 c0 2.4 0.5 4.2 1.4 5.7s2.3 2.1 4.2 2.1S114.6 130.8 115.6 129.4z"/></g></svg>