<svg xmlns="http://www.w3.org/2000/svg" xmlns:xlink="http://www.w3.org/1999/xlink" version="1.1" x="0px" y="0px" width="373.3px" height="401px" viewBox="0 0 373.3 401" enable-background="new 0 0 373.3 401" xml:space="preserve"><g><path fill="#0B4F78" d="M360.4 400.5H12.9c-6.9 0-12.4-4.8-12.4-10.6V11.1c0-5.9 5.6-10.6 12.4-10.6h347.5 c6.9 0 12.4 4.8 12.4 10.6v378.7C372.8 395.7 367.3 400.5 360.4 400.5z"/><path fill="none" stroke="#000000" stroke-miterlimit="10" d="M360.4 400.5H12.9c-6.9 0-12.4-4.8-12.4-10.6V11.1 c0-5.9 5.6-10.6 12.4-10.6h347.5c6.9 0 12.4 4.8 12.4 10.6v378.7C372.8 395.7 367.3 400.5 360.4 400.5z"/></g></svg>