<svg xmlns="http://www.w3.org/2000/svg" xmlns:xlink="http://www.w3.org/1999/xlink" version="1.1" x="0px" y="0px" width="401.2px" height="432.4px" viewBox="0 0 401.2 432.4" enable-background="new 0 0 401.2 432.4" xml:space="preserve"><filter><feGaussianBlur stdDeviation="4"/></filter><path fill="#0B4F78" stroke="#CCCCCC" stroke-width="1.2365" stroke-miterlimit="10" d="M387.3 431.8H14c-7.4 0-13.3-5.1-13.3-11.5 V12.1c0-6.3 6-11.5 13.3-11.5h373.3c7.4 0 13.3 5.1 13.3 11.5v408.3C400.6 426.7 394.6 431.8 387.3 431.8z"/><g filter="url(#AI_GaussianBlur_4)"><path fill="#333333" d="M143.7 78.5h12.7l2.3 7h7.8l-12.2-34h-8.2l-12.3 34h7.6L143.7 78.5z M150.1 58.9l4.4 13.6h-8.8L150.1 58.9z "/><rect x="170.5" y="51.5" fill="#333333" width="7" height="34"/><path fill="#333333" d="M185.6 83.5c2.6 2.1 5.6 3.1 9 3.1c4.1 0 7.3-1.1 9.6-3.6c1.5-1.6 2.3-3.5 2.5-4.5h-6.8 c-0.4 0-0.9 1.2-1.4 1.6c-1 0.8-2.2 1.1-3.7 1.1c-1.4 0-2.7-0.5-3.7-1.1c-1.7-1-2.6-2.6-2.7-5.6H207c0-2 0-3.8-0.2-4.9 c-0.3-2-1-3.7-2-5.2c-1.2-1.7-2.6-2.9-4.4-3.7c-1.8-0.8-3.8-1.2-6-1.2c-3.7 0-6.8 1.2-9.1 3.6c-2.3 2.4-3.5 5.8-3.5 10.2 C181.7 77.9 183 81.4 185.6 83.5z M190.4 66.5c0.9-1 2.3-1.5 4-1.5c1.6 0 2.9 0.5 4 1.4c1.1 0.9 1.7 2.1 1.8 4.1h-11.5 C188.8 68.5 189.4 67.5 190.4 66.5z"/><path fill="#333333" d="M217.5 73.5c0-2 0-3.6 0.6-4.5c0.9-1.8 2.6-2.6 5.3-2.6c0.2 0 0.6 0 0.9 0s0.2 0 1.2 0.1v-6.8 c-1 0-0.6 0-0.7 0s-0.3 0-0.4 0c-2 0-3.8 0.5-5 1.6c-0.8 0.6-1.8 1.8-2.8 3.5v-4.1h-6v25h7V73.5z"/><path fill="#333333" d="M230.5 80.9c0 1.6 0.1 2.8 0.9 3.5c1.2 1.2 3 1.8 6.2 1.6l2.9-0.1v-5c0 0-0.3 0-0.5 0s-0.4 0-0.6 0 c-1.4 0-2.2-0.1-2.5-0.4s-0.4-0.9-0.4-2V65.5h4v-5h-4v-7h-6v7h-4v5h4V80.9z"/><path fill="#333333" d="M258.9 80.9c-0.8 0.4-1.8 0.6-3.1 0.6c-2.2 0-3.8-0.5-4.6-1.4c-0.5-0.5-0.8-1.5-0.9-2.5h-6.8 c0 3 1 4.8 2.9 6.5s4.9 2.6 8.9 2.6c3.9 0 6.9-0.8 8.7-2.4s2.8-3.7 2.8-6.2c0-1.9-0.7-3.5-2-4.8c-1.3-1.3-3.3-2.2-6-2.8 c-4-0.9-6.3-1.5-7-1.9c-0.7-0.3-1-0.9-1-1.7c0-0.6 0.3-1.1 0.9-1.6c0.6-0.5 1.7-0.7 3.1-0.7c1.8 0 3 0.2 3.8 1.1 c0.4 0.5 0.6 1.8 0.7 1.8h6.7c-0.3-3-1.5-5.1-3.5-6.4s-4.6-1.8-7.8-1.8c-3.4 0-6 0.9-7.8 2.6s-2.8 3.7-2.8 6.1c0 2 0.6 3.5 1.8 4.6 c1.2 1.1 3.2 2 6.1 2.7c4 1 6.4 1.6 7 2s0.9 1 0.9 1.7C260.1 79.9 259.7 80.5 258.9 80.9z"/><path fill="#333333" d="M297.7 317.8l-90.9-159.6c-1.3-2.2-3.6-3.6-6.2-3.6c-2.6 0-4.9 1.4-6.2 3.6l-90.9 159.6 c-1.2 2.2-1.2 5 0.1 7.1c1.3 2.1 3.6 3.6 6.1 3.6h181.9c2.5 0 4.8-1.5 6.1-3.6C298.9 322.8 298.9 320 297.7 317.8z M211.5 307.5 h-22v-20h22V307.5z M211.5 272.5h-22v-62h22V272.5z"/></g><g><path fill="#FFFFFF" d="M143.7 78.5h12.7l2.3 7h7.8l-12.2-34h-8.2l-12.3 34h7.6L143.7 78.5z M150.1 58.9l4.4 13.6h-8.8L150.1 58.9z "/><rect x="170.5" y="51.5" fill="#FFFFFF" width="7" height="34"/><path fill="#FFFFFF" d="M185.6 83.5c2.6 2.1 5.6 3.1 9 3.1c4.1 0 7.3-1.1 9.6-3.6c1.5-1.6 2.3-3.5 2.5-4.5h-6.8 c-0.4 0-0.9 1.2-1.4 1.6c-1 0.8-2.2 1.1-3.7 1.1c-1.4 0-2.7-0.5-3.7-1.1c-1.7-1-2.6-2.6-2.7-5.6H207c0-2 0-3.8-0.2-4.9 c-0.3-2-1-3.7-2-5.2c-1.2-1.7-2.6-2.9-4.4-3.7c-1.8-0.8-3.8-1.2-6-1.2c-3.7 0-6.8 1.2-9.1 3.6c-2.3 2.4-3.5 5.8-3.5 10.2 C181.7 77.9 183 81.4 185.6 83.5z M190.4 66.5c0.9-1 2.3-1.5 4-1.5c1.6 0 2.9 0.5 4 1.4c1.1 0.9 1.7 2.1 1.8 4.1h-11.5 C188.8 68.5 189.4 67.5 190.4 66.5z"/><path fill="#FFFFFF" d="M217.5 73.5c0-2 0-3.6 0.6-4.5c0.9-1.8 2.6-2.6 5.3-2.6c0.2 0 0.6 0 0.9 0s0.2 0 1.2 0.1v-6.8 c-1 0-0.6 0-0.7 0s-0.3 0-0.4 0c-2 0-3.8 0.5-5 1.6c-0.8 0.6-1.8 1.8-2.8 3.5v-4.1h-6v25h7V73.5z"/><path fill="#FFFFFF" d="M230.5 80.9c0 1.6 0.1 2.8 0.9 3.5c1.2 1.2 3 1.8 6.2 1.6l2.9-0.1v-5c0 0-0.3 0-0.5 0s-0.4 0-0.6 0 c-1.4 0-2.2-0.1-2.5-0.4s-0.4-0.9-0.4-2V65.5h4v-5h-4v-7h-6v7h-4v5h4V80.9z"/><path fill="#FFFFFF" d="M258.9 80.9c-0.8 0.4-1.8 0.6-3.1 0.6c-2.2 0-3.8-0.5-4.6-1.4c-0.5-0.5-0.8-1.5-0.9-2.5h-6.8 c0 3 1 4.8 2.9 6.5s4.9 2.6 8.9 2.6c3.9 0 6.9-0.8 8.7-2.4s2.8-3.7 2.8-6.2c0-1.9-0.7-3.5-2-4.8c-1.3-1.3-3.3-2.2-6-2.8 c-4-0.9-6.3-1.5-7-1.9c-0.7-0.3-1-0.9-1-1.7c0-0.6 0.3-1.1 0.9-1.6c0.6-0.5 1.7-0.7 3.1-0.7c1.8 0 3 0.2 3.8 1.1 c0.4 0.5 0.6 1.8 0.7 1.8h6.7c-0.3-3-1.5-5.1-3.5-6.4s-4.6-1.8-7.8-1.8c-3.4 0-6 0.9-7.8 2.6s-2.8 3.7-2.8 6.1c0 2 0.6 3.5 1.8 4.6 c1.2 1.1 3.2 2 6.1 2.7c4 1 6.4 1.6 7 2s0.9 1 0.9 1.7C260.1 79.9 259.7 80.5 258.9 80.9z"/><path fill="#FFFFFF" d="M297.7 317.8l-90.9-159.6c-1.3-2.2-3.6-3.6-6.2-3.6c-2.6 0-4.9 1.4-6.2 3.6l-90.9 159.6 c-1.2 2.2-1.2 5 0.1 7.1c1.3 2.1 3.6 3.6 6.1 3.6h181.9c2.5 0 4.8-1.5 6.1-3.6C298.9 322.8 298.9 320 297.7 317.8z M211.5 307.5 h-22v-20h22V307.5z M211.5 272.5h-22v-62h22V272.5z"/></g></svg>