<svg xmlns="http://www.w3.org/2000/svg" xmlns:xlink="http://www.w3.org/1999/xlink" version="1.1" x="0px" y="0px" viewBox="0 0 400 400" enable-background="new 0 0 400 400" xml:space="preserve"><g><g><rect x="2.8" y="2.8" fill="#5261AC" width="394.4" height="394.4"/><path fill="#22305F" d="M394.4 5.6v388.9H5.6V5.6H394.4 M400 0H0v400h400V0L400 0z"/></g><path fill="#FFFFFF" d="M54.7 216L75 221l15.3-24.1l-29.1-7.2c-7.3-1.8-14.7 2.6-16.5 9.9C42.9 206.8 47.4 214.2 54.7 216z M320.6 219.9l-66.7 60l-78.4-60.7c-1.5-1.2-3.2-2-5.1-2.4l-10.4-2.6l-15.3 24.1l16.4 4.1l85.2 65.9c2.5 1.9 5.4 2.8 8.3 2.8 c3.3 0 6.5-1.2 9.1-3.5l75.1-67.6c5.6-5 6-13.6 1-19.1C334.7 215.3 326.1 214.9 320.6 219.9z M174.1 153.9l73 46.8 c6.2 3.9 14.4 2.3 18.5-3.7l75.1-108.2c4.3-6.1 2.7-14.6-3.5-18.8c-6.2-4.3-14.6-2.7-18.9 3.4l-67.7 97.5l-73.5-47 c-3-1.9-6.7-2.6-10.3-1.8c-3.5 0.8-6.6 2.9-8.5 6l-112 175.9c-4 6.3-2.1 14.7 4.2 18.7c2.3 1.4 4.8 2.1 7.3 2.1 c4.5 0 8.9-2.2 11.5-6.3L174.1 153.9z"/></g></svg>