<svg xmlns="http://www.w3.org/2000/svg" xmlns:xlink="http://www.w3.org/1999/xlink" version="1.1" x="0px" y="0px" width="401.2px" height="501.4px" viewBox="-198 50.6 401.2 501.4" enable-background="new -198 50.6 401.2 501.4" xml:space="preserve"><path fill="#F8F8F8" stroke="#CCCCCC" stroke-width="1.2365" stroke-miterlimit="10" d="M189.3 482.4h-110l-80 68.8l-80.4-68.8H-184 c-7.4 0-13.3-5.1-13.3-11.5V62.7c0-6.3 6-11.5 13.3-11.5h373.3c7.4 0 13.3 5.1 13.3 11.5V471C202.6 477.3 196.6 482.4 189.3 482.4z"/><g enable-background="new    "><path fill="#C4262E" d="M-51.9 101.8h8.2l12.2 34.5h-7.8l-2.3-7.1h-12.7l-2.3 7.1h-7.6L-51.9 101.8z M-52.3 123.3h8.8l-4.4-13.6 L-52.3 123.3z"/><path fill="#C4262E" d="M-20.8 136.3h-6.7v-34.5h6.7V136.3z"/><path fill="#C4262E" d="M2.4 111.3c1.8 0.8 3.3 2.1 4.4 3.8c1 1.5 1.7 3.3 2 5.3c0.2 1.2 0.3 2.9 0.2 5.1H-9.6 c0.1 2.6 1 4.4 2.7 5.4c1 0.6 2.2 1 3.7 1c1.5 0 2.8-0.4 3.7-1.2c0.5-0.4 1-1 1.4-1.8h6.8c-0.2 1.5-1 3.1-2.5 4.6 c-2.3 2.5-5.5 3.7-9.6 3.7c-3.4 0-6.4-1-9-3.1c-2.6-2.1-3.9-5.5-3.9-10.2c0-4.4 1.2-7.8 3.5-10.2c2.3-2.4 5.4-3.5 9.1-3.5 C-1.4 110.1 0.6 110.5 2.4 111.3z M-7.6 117.1c-0.9 1-1.5 2.3-1.8 4H2.1c-0.1-1.8-0.7-3.1-1.8-4s-2.4-1.4-4-1.4 C-5.4 115.6-6.7 116.1-7.6 117.1z"/><path fill="#C4262E" d="M26.6 110.2c0.1 0 0.3 0 0.6 0v6.8c-0.4 0-0.8-0.1-1.1-0.1s-0.6 0-0.8 0c-2.7 0-4.5 0.9-5.4 2.6 c-0.5 1-0.8 2.5-0.8 4.5v12.2h-6.7v-25.5h6.4v4.5c1-1.7 1.9-2.9 2.7-3.5c1.2-1 2.9-1.6 4.9-1.6C26.4 110.2 26.5 110.2 26.6 110.2z"/><path fill="#C4262E" d="M28.5 115.8V111H32v-7.1h6.6v7.1h4.1v4.8h-4.1v13.5c0 1 0.1 1.7 0.4 2s1.1 0.4 2.4 0.4c0.2 0 0.4 0 0.6 0 s0.4 0 0.7 0v5l-3.2 0.1c-3.2 0.1-5.3-0.4-6.5-1.6c-0.8-0.8-1.1-1.9-1.1-3.5v-15.7H28.5z"/><path fill="#C4262E" d="M52.2 128.2c0.1 1.2 0.4 2 0.9 2.5c0.8 0.9 2.4 1.3 4.6 1.3c1.3 0 2.4-0.2 3.1-0.6c0.8-0.4 1.2-1 1.2-1.8 c0-0.8-0.3-1.3-0.9-1.7c-0.6-0.4-3-1.1-7-2c-2.9-0.7-4.9-1.6-6.1-2.7c-1.2-1.1-1.8-2.6-1.8-4.6c0-2.4 0.9-4.4 2.8-6.1 s4.5-2.5 7.8-2.5c3.2 0 5.8 0.6 7.8 1.9c2 1.3 3.2 3.5 3.5 6.6h-6.7c-0.1-0.9-0.3-1.5-0.7-2c-0.7-0.9-2-1.4-3.8-1.4 c-1.5 0-2.5 0.2-3.1 0.7s-0.9 1-0.9 1.6c0 0.8 0.3 1.3 1 1.7c0.7 0.4 3 1 7 1.9c2.7 0.6 4.7 1.6 6 2.8c1.3 1.3 2 2.9 2 4.8 c0 2.5-0.9 4.6-2.8 6.2s-4.8 2.4-8.7 2.4c-4 0-7-0.8-8.9-2.5s-2.9-3.9-2.9-6.5H52.2z"/></g><path fill="#C4262E" d="M93.5 378.8c2.5 0 4.8-1.3 6.1-3.5c1.3-2.1 1.3-4.8 0.1-6.9L8.8 208.8c-1.3-2.2-3.6-3.6-6.2-3.6 c-2.6 0-4.9 1.4-6.2 3.6l-90.9 159.6c-1.2 2.2-1.2 4.8 0.1 6.9c1.3 2.1 3.6 3.5 6.1 3.5 M13.8 358.4H-8.7V338h22.5V358.4z M13.8 322.7H-8.7v-61.2h22.5V322.7z"/></svg>