<svg xmlns="http://www.w3.org/2000/svg" xmlns:xlink="http://www.w3.org/1999/xlink" version="1.1" x="0px" y="0px" width="401.1px" height="501.4px" viewBox="-395.9 101.2 401.1 501.4" enable-background="new -395.9 101.2 401.1 501.4" xml:space="preserve"><path fill="#F8F8F8" stroke="#CCCCCC" stroke-width="1.2365" stroke-miterlimit="10" d="M-8.7 533h-110l-80 68.8l-80.4-68.8H-382 c-7.4 0-13.3-5.1-13.3-11.5V113.3c0-6.3 6-11.5 13.3-11.5H-8.7c7.4 0 13.3 5.1 13.3 11.5v408.3C4.6 527.9-1.4 533-8.7 533z"/><g><path fill="#A65A26" d="M-195.4 278.4c-47.1 0-85.3 37.8-85.3 84.5c0 28 13.8 52.9 35 68.2l-6.2 18c-0.6 1.6-0.4 5.1 3.2 6.7 s6.3-0.6 7.1-2.2l8.2-15c11.4 5.6 24.3 8.8 38 8.8s26.6-3.2 38.1-8.9l8.2 15.1c0.8 1.6 3.5 3.8 7.1 2.2c3.6-1.6 3.8-5.1 3.2-6.7 l-6.2-18c21.2-15.4 34.9-40.2 34.9-68.2C-110.1 316.2-148.3 278.4-195.4 278.4z M-194.4 427.3v-5.8c0-0.6-0.4-1-1-1 c-0.6 0-1 0.5-1 1v5.8c-35.1-0.5-63.5-28.7-64.1-63.4h5.9c0.6 0 1-0.4 1-1s-0.5-1-1-1h-5.9c0.6-34.7 29-62.9 64.2-63.4v5.8 c0 0.5 0.4 0.9 0.9 0.9s0.9-0.4 0.9-0.9v-5.8c35.1 0.5 63.6 28.6 64.2 63.4h-5.9c-0.6 0-1 0.4-1 1s0.5 1 1 1h5.9 C-130.9 398.6-159.3 426.7-194.4 427.3z"/><path fill="#A65A26" d="M-211.2 269.2h31.5c0.1-7.1-7-14.2-15.7-14.2C-204.1 255-211.2 261.6-211.2 269.2z"/><path fill="#A65A26" d="M-155.4 266.2l49.5 49c13.6-13.5 11-32.9-2.6-46.4C-122.2 255.3-141.7 252.7-155.4 266.2z"/><path fill="#A65A26" d="M-282.2 268.8c-13.7 13.5-16.3 32.9-2.6 46.5l49.5-49C-249 252.7-268.6 255.2-282.2 268.8z"/><path fill="#A65A26" d="M-183 363.5c0-0.2 0-0.4 0-0.6c0-4.3-2.2-8.1-5.6-10.3l-1.7-38.9c-0.1-1.8-1.5-5-5.1-5c-3.5 0-5 3.2-5.1 5 l-2 39.2c-3.2 2.2-5.3 5.9-5.3 10c0 6.8 5.6 12.3 12.4 12.3c0.5 0 0.9 0 1.4-0.1l24 21.1c1.3 1.2 4.8 2.2 7.7-0.6 c2.9-2.9 1.8-6.3 0.6-7.7L-183 363.5z"/><path fill="#A65A26" d="M-287.1 174.5h7.2c3.8 0 6.6-0.8 8.7-2.5c2.1-1.7 3-4.6 3-8.6c0-3.7-1-6.5-3-8.3s-4.8-2.7-8.2-2.7h-14.8 v34.5h7.2L-287.1 174.5L-287.1 174.5z M-287.1 158.4h6.5c1.6 0 2.9 0.4 3.8 1.1s1.4 2 1.4 3.8s-0.5 3.1-1.4 3.9s-2.2 1.2-3.8 1.2 h-6.5V158.4z"/><path fill="#A65A26" d="M-250.2 170.8c-0.5 0.2-1.4 0.4-2.7 0.6l-2.3 0.3c-2.6 0.3-4.6 0.9-5.9 1.6c-2.4 1.4-3.7 3.7-3.7 6.8 c0 2.4 0.8 4.3 2.3 5.6s3.4 2 5.8 2c1.8 0 3.5-0.4 4.9-1.2c1.2-0.7 2.3-1.6 3.2-2.6c0 0.6 0.1 1.1 0.2 1.5c0.1 0.4 0.2 0.9 0.4 1.5 h7.3v-1c-0.4-0.2-0.8-0.5-1-0.8c-0.2-0.3-0.4-0.9-0.4-1.8c0-1.2 0-2.1 0-3v-11.7c0-3.1-1.1-5.2-3.3-6.3c-2.2-1.1-4.7-1.7-7.5-1.7 c-4.3 0-7.4 1.1-9.1 3.4c-1.1 1.4-1.7 3.3-1.9 5.5h6.4c0.2-1 0.5-1.8 1-2.3c0.7-0.8 1.8-1.2 3.4-1.2c1.4 0 2.5 0.2 3.2 0.6 c0.7 0.4 1.1 1.1 1.1 2.2C-248.7 169.8-249.2 170.4-250.2 170.8z M-248.7 177c0 2.2-0.7 3.8-1.9 4.6s-2.6 1.3-4 1.3 c-0.9 0-1.7-0.3-2.3-0.8s-1-1.3-1-2.5c0-1.3 0.5-2.2 1.6-2.8c0.6-0.4 1.6-0.7 3.1-0.9l1.5-0.3c0.8-0.1 1.4-0.3 1.8-0.5 s0.9-0.4 1.3-0.6v2.5H-248.7z"/><path fill="#A65A26" d="M-222.4 182.1c-0.8 0.4-1.8 0.6-3.1 0.6c-2.2 0-3.8-0.4-4.6-1.3c-0.5-0.5-0.8-1.3-0.9-2.5h-6.8 c0 2.6 1 4.8 2.9 6.5c1.9 1.7 4.9 2.5 8.9 2.5c3.9 0 6.9-0.8 8.7-2.4s2.8-3.7 2.8-6.2c0-1.9-0.7-3.5-2-4.8c-1.3-1.3-3.3-2.2-6-2.8 c-4-0.9-6.3-1.5-7-1.9c-0.7-0.3-1-0.9-1-1.7c0-0.6 0.3-1.1 0.9-1.6s1.7-0.7 3.1-0.7c1.8 0 3 0.5 3.8 1.4c0.4 0.5 0.6 1.2 0.7 2h6.7 c-0.3-3.1-1.5-5.3-3.5-6.6s-4.6-1.9-7.8-1.9c-3.4 0-6 0.8-7.8 2.5c-1.8 1.7-2.8 3.7-2.8 6.1c0 2 0.6 3.5 1.8 4.6 c1.2 1.1 3.2 2 6.1 2.7c4 1 6.4 1.6 7 2s0.9 1 0.9 1.7C-221.2 181.1-221.6 181.7-222.4 182.1z"/><path fill="#A65A26" d="M-208.6 182.1c0 1.6 0.4 2.8 1.1 3.5c1.2 1.2 3.3 1.8 6.5 1.6l3.2-0.1v-5c-0.2 0-0.4 0-0.7 0 c-0.3 0-0.4 0-0.6 0c-1.4 0-2.2-0.1-2.4-0.4c-0.2-0.3-0.4-0.9-0.4-2v-13.5h4.1v-4.6h-4.2v-7.1h-6.6v7.1h-3.6v4.8h3.6V182.1z"/><path fill="#A65A26" d="M-153.2 180.5c1.8-3.2 2.8-7.1 2.8-11.7c0-1.8-0.2-3.7-0.7-5.7c-0.4-2-1.3-3.9-2.5-5.6 c-1.5-2.1-3.5-3.6-5.9-4.4c-1.4-0.5-3.2-0.7-5.3-0.8h-14.9v34.5h14.9C-159.6 186.9-155.7 184.8-153.2 180.5z M-172.7 180.9v-22.5 h6.7c3.3 0 5.5 0.9 6.6 2.8c1.1 1.9 1.7 4.6 1.7 8.1c0 2.5-0.4 4.7-1.1 6.6c-1.3 3.4-3.7 5-7.1 5H-172.7z"/><path fill="#A65A26" d="M-137 187.5c1.3 0 2.4-0.2 3.4-0.5s2-1 3-1.9c0.3-0.3 0.6-0.6 0.9-1c0.2-0.4 0.4-0.6 0.5-0.7v3.6h6.5v-25.5 h-6.8v13.9c0 1.6-0.2 3-0.7 4c-0.8 1.8-2.4 2.8-4.7 2.8c-1.8 0-3-0.6-3.6-1.9c-0.3-0.7-0.5-1.8-0.5-3.3v-15.4h-6.8V177 c0 2.9 0.4 5.1 1.1 6.6C-143.4 186.1-140.8 187.5-137 187.5z"/><path fill="#A65A26" d="M-93.2 171c-0.3-2-1-3.8-2-5.3c-1.2-1.7-2.6-3-4.4-3.8s-3.8-1.2-6-1.2c-3.7 0-6.8 1.2-9.1 3.5 c-2.3 2.4-3.5 5.8-3.5 10.2c0 4.7 1.3 8.1 3.9 10.2s5.6 3.1 9 3.1c4.1 0 7.3-1.2 9.6-3.7c1.5-1.6 2.3-3.1 2.5-4.6h-6.8 c-0.4 0.8-0.9 1.3-1.4 1.8c-1 0.8-2.2 1.2-3.7 1.2c-1.4 0-2.7-0.3-3.7-1c-1.7-1-2.6-2.8-2.7-5.4h18.6 C-92.9 173.8-93 172.1-93.2 171z M-111.4 171.6c0.2-1.7 0.8-3 1.8-4c0.9-1 2.3-1.5 4-1.5c1.6 0 2.9 0.5 4 1.4 c1.1 0.9 1.7 2.3 1.8 4L-111.4 171.6L-111.4 171.6z"/></g></svg>