<svg xmlns="http://www.w3.org/2000/svg" xmlns:xlink="http://www.w3.org/1999/xlink" version="1.1" x="0px" y="0px" width="401.2px" height="431.2px" viewBox="0 0 401.2 431.2" enable-background="new 0 0 401.2 431.2" xml:space="preserve"><filter><feGaussianBlur stdDeviation="4"/></filter><path fill="#0B4F78" stroke="#000000" stroke-width="1.2348" stroke-miterlimit="10" d="M387.3 430.6H14c-7.4 0-13.3-5.1-13.3-11.4 V12.1c0-6.3 6-11.4 13.3-11.4h373.3c7.4 0 13.3 5.1 13.3 11.4v407.1C400.6 425.5 394.6 430.6 387.3 430.6z"/><g filter="url(#AI_GaussianBlur_4)"><path fill="#333333" d="M206.9 170.2c-1.3-2.4-3.9-3.8-6.6-3.8c-2.7 0-5.2 1.5-6.6 3.8L96.6 340.8c-1.3 2.3-1.3 5.6 0.1 7.9 c1.4 2.3 3.8 4.2 6.5 4.2h194.3c2.7 0 5.2-1.9 6.5-4.2c1.4-2.3 1.4-5.5 0.1-7.8L206.9 170.2z M239.5 288.9h-30v29h-19v-29h-29v-20 h29v-28h19v28h30V288.9z"/><polygon fill="#333333" points="161.5,43.5 175.6,67.9 182.5,67.9 182.5,32.9 176.5,32.9 176.5,57.5 162.4,32.9 154.5,32.9 154.5,67.9 161.5,67.9"/><path fill="#333333" d="M190.9 65.7c2.6 2.1 5.6 3.1 9 3.1c4.1 0 7.3-1.5 9.6-4c1.5-1.6 2.3-2.9 2.5-4.9h-6.8c-0.4 1-0.9 1.6-1.4 2 c-1 0.8-2.2 1.3-3.7 1.3c-1.4 0-2.7-0.3-3.7-1c-1.7-1-2.6-3.4-2.7-5.4h18.6c0-3 0-3.8-0.2-5c-0.3-2-1-3.7-2-5.2 c-1.2-1.7-2.6-3-4.4-3.8c-1.8-0.8-3.8-1.2-6-1.2c-3.7 0-6.8 1.2-9.1 3.5c-2.3 2.4-3.5 5.8-3.5 10.2C187 60.2 188.3 63.6 190.9 65.7 z M195.7 48.4c0.9-1 2.3-1.3 4-1.3c1.6 0 2.9 0.2 4 1.1c1.1 0.9 1.7 2.8 1.8 3.8h-11.5C194.2 50.9 194.8 49.3 195.7 48.4z"/><polygon fill="#333333" points="227.1,67.9 231.1,49.3 235.1,67.9 242,67.9 249.4,41.9 242.4,41.9 238.5,60.4 234.6,41.9 227.8,41.9 224.1,60.3 220.1,41.9 213,41.9 220.1,67.9"/><path fill="#333333" d="M103.5 111.9h7c2 0 3.4 0.4 4.1 1.2c0.7 0.7 1.1 2.2 1.1 4.4l0 3.2c0 1 0.1 1.7 0.3 2.6 c0.1 0.5 0.2 1.5 0.5 1.5h7.9v-0.2c-1-0.4-0.9-1.1-1.1-2c-0.1-0.6 0.1-1.6 0.1-3.2v-2.3c0-2.4-0.6-4.2-1.2-5.4 c-0.7-1.2-1.9-2.1-3.5-2.7c1.9-0.7 3.2-1.8 4-3.4c0.8-1.6 1.2-3.2 1.2-4.8c0-1.4-0.2-2.6-0.7-3.6c-0.4-1.1-1-2-1.7-2.9 c-0.9-1.1-2-1.9-3.2-2.5c-1.3-0.5-3.1-1-5.5-1H96.5v34h7V111.9z M103.5 96.9h7.9c1.5 0 2.6 0.3 3.3 0.7c1.3 0.7 2 2.2 2 4.3 c0 1.9-0.7 3-2 3.7c-0.8 0.4-1.9 0.4-3.5 0.4h-7.7V96.9z"/><path fill="#333333" d="M132.2 123.4c2.6 2.1 5.6 3.1 9 3.1c4.1 0 7.3-1.4 9.6-3.8c1.5-1.6 2.3-3.7 2.5-4.7h-6.8 c-0.4 1-0.9 1.4-1.4 1.9c-1 0.8-2.2 1.2-3.7 1.2c-1.4 0-2.7-0.2-3.7-0.8c-1.7-1-2.6-3.3-2.7-5.3h18.6c0-3 0-4-0.2-5.2 c-0.3-2-1-3.8-2-5.3c-1.2-1.7-2.6-3-4.4-3.8c-1.8-0.8-3.8-1.2-6-1.2c-3.7 0-6.8 1.2-9.1 3.5c-2.3 2.4-3.5 5.8-3.5 10.2 C128.3 117.9 129.6 121.3 132.2 123.4z M137 106.2c0.9-1 2.3-1.4 4-1.4c1.6 0 2.9 0.3 4 1.2c1.1 0.9 1.7 1.9 1.8 3.9h-11.5 C135.5 107.9 136.1 107.1 137 106.2z"/><path fill="#333333" d="M180.5 135.9v-36h-7v4c-1-1.4-1.5-2.3-2.2-2.9c-1.3-1-3-1.6-5.1-1.6c-3.1 0-5.6 1.3-7.7 3.8 c-2.1 2.6-3.1 6-3.1 10.2c0 3.9 1 7.1 3.1 9.5c2.1 2.4 4.6 3.5 7.6 3.5c2.1 0 3.7-0.4 4.9-1.2c1.2-0.8 2.5-1.7 2.5-2.8v13.5H180.5z M172.8 117.8c-1 2-2.6 3-4.9 3c-2.4 0-4-1.1-4.9-3.2c-0.5-1.1-0.7-2.6-0.7-4.3c0-2.6 0.5-4.6 1.5-5.9c1-1.3 2.4-1.9 4.1-1.9 c2.4 0 4.1 1.1 5 3.3c0.5 1.2 0.8 2.6 0.8 4.2C173.7 114.8 173.4 116.5 172.8 117.8z"/><path fill="#333333" d="M194.9 126.2c1.3 0 2.5-0.2 3.4-0.5c1-0.3 2-1 3-1.9c0.3-0.3 0.5-0.6 0.8-1c0.2-0.4 0.4-0.6 0.4-0.7v2.9h7 v-25h-7v14c0 1.6-0.2 3-0.7 4c-0.8 1.8-2.4 2.8-4.7 2.8c-1.8 0-2.7-0.6-3.4-1.9c-0.3-0.7-0.3-1.8-0.3-3.3V99.9h-7v15.5 c0 2.9 0.2 5.1 1 6.6C188.7 124.8 191.1 126.2 194.9 126.2z"/><path fill="#333333" d="M238.8 109.8c-0.3-2-1-3.8-2-5.3c-1.2-1.7-2.6-3-4.4-3.8c-1.8-0.8-3.8-1.2-6-1.2c-3.7 0-6.8 1.2-9.1 3.5 c-2.3 2.4-3.5 5.8-3.5 10.2c0 4.7 1.3 8.1 3.9 10.2c2.6 2.1 5.6 3.1 9 3.1c4.1 0 7.3-1.4 9.6-3.8c1.5-1.6 2.3-3.7 2.5-4.7h-6.8 c-0.4 1-0.9 1.4-1.4 1.9c-1 0.8-2.2 1.2-3.7 1.2c-1.4 0-2.7-0.2-3.7-0.8c-1.7-1-2.6-3.3-2.7-5.3H239 C239 111.9 239 110.9 238.8 109.8z M220.6 109.9c0.2-2 0.8-2.8 1.8-3.8c0.9-1 2.3-1.4 4-1.4c1.6 0 2.9 0.3 4 1.2 c1.1 0.9 1.7 1.9 1.8 3.9H220.6z"/><path fill="#333333" d="M241.6 108c0 2 0.6 3.5 1.8 4.6c1.2 1.1 3.2 2 6.1 2.7c4 1 6.4 1.6 7 2c0.6 0.4 0.9 1 0.9 1.7 c0 0.8-0.4 1.4-1.2 1.8c-0.8 0.4-1.8 0.6-3.1 0.6c-2.2 0-3.8-0.7-4.6-1.6c-0.5-0.5-0.8-1.8-0.9-2.8h-6.8c0 3 1 5.1 2.9 6.8 c1.9 1.7 4.9 2.7 8.9 2.7c3.9 0 6.9-0.7 8.7-2.3c1.9-1.6 2.8-3.6 2.8-6.2c0-1.9-0.7-3.5-2-4.8c-1.3-1.3-3.3-2.2-6-2.8 c-4-0.9-6.3-1.5-7-1.8c-0.7-0.3-1-0.9-1-1.7c0-0.6 0.3-1.1 0.9-1.6c0.6-0.5 1.7-0.7 3.1-0.7c1.8 0 3 0.5 3.8 1.4 c0.4 0.5 0.6 1.1 0.7 2.1h6.7c-0.3-4-1.5-5.4-3.5-6.6c-2-1.3-4.6-1.9-7.8-1.9c-3.4 0-6 0.8-7.8 2.5 C242.5 103.6 241.6 105.6 241.6 108z"/><path fill="#333333" d="M270.5 120.8c0 1.6 0.1 2.8 0.9 3.5c1.2 1.2 3 1.8 6.2 1.6l2.9-0.1v-5c0 0-0.3 0-0.5 0c-0.2 0-0.4 0-0.6 0 c-1.4 0-2.2-0.1-2.5-0.4c-0.3-0.3-0.4-0.9-0.4-2v-13.6h4v-5h-4v-7h-6v7h-4v5h4V120.8z"/><path fill="#333333" d="M298.9 120.8c-0.8 0.4-1.8 0.6-3.1 0.6c-2.2 0-3.8-0.7-4.6-1.6c-0.5-0.5-0.8-1.8-0.9-2.8h-6.8 c0 3 1 5.1 2.9 6.8c1.9 1.7 4.9 2.7 8.9 2.7c3.9 0 6.9-0.7 8.7-2.3c1.9-1.6 2.8-3.6 2.8-6.2c0-1.9-0.7-3.5-2-4.8 c-1.3-1.3-3.3-2.2-6-2.8c-4-0.9-6.3-1.5-7-1.8c-0.7-0.3-1-0.9-1-1.7c0-0.6 0.3-1.1 0.9-1.6c0.6-0.5 1.7-0.7 3.1-0.7 c1.8 0 3 0.5 3.8 1.4c0.4 0.5 0.6 1.1 0.7 2.1h6.7c-0.3-4-1.5-5.4-3.5-6.6c-2-1.3-4.6-1.9-7.8-1.9c-3.4 0-6 0.8-7.8 2.5 c-1.9 1.7-2.8 3.7-2.8 6.1c0 2 0.6 3.5 1.8 4.6c1.2 1.1 3.2 2 6.1 2.7c4 1 6.4 1.6 7 2c0.6 0.4 0.9 1 0.9 1.7 C300.1 119.8 299.7 120.4 298.9 120.8z"/></g><g><path fill="#FFFFFF" d="M206.9 170.2c-1.3-2.4-3.9-3.8-6.6-3.8c-2.7 0-5.2 1.5-6.6 3.8L96.6 340.8c-1.3 2.3-1.3 5.6 0.1 7.9 c1.4 2.3 3.8 4.2 6.5 4.2h194.3c2.7 0 5.2-1.9 6.5-4.2c1.4-2.3 1.4-5.5 0.1-7.8L206.9 170.2z M239.5 288.9h-30v29h-19v-29h-29v-20 h29v-28h19v28h30V288.9z"/><polygon fill="#FFFFFF" points="161.5,43.5 175.6,67.9 182.5,67.9 182.5,32.9 176.5,32.9 176.5,57.5 162.4,32.9 154.5,32.9 154.5,67.9 161.5,67.9"/><path fill="#FFFFFF" d="M190.9 65.7c2.6 2.1 5.6 3.1 9 3.1c4.1 0 7.3-1.5 9.6-4c1.5-1.6 2.3-2.9 2.5-4.9h-6.8c-0.4 1-0.9 1.6-1.4 2 c-1 0.8-2.2 1.3-3.7 1.3c-1.4 0-2.7-0.3-3.7-1c-1.7-1-2.6-3.4-2.7-5.4h18.6c0-3 0-3.8-0.2-5c-0.3-2-1-3.7-2-5.2 c-1.2-1.7-2.6-3-4.4-3.8c-1.8-0.8-3.8-1.2-6-1.2c-3.7 0-6.8 1.2-9.1 3.5c-2.3 2.4-3.5 5.8-3.5 10.2C187 60.2 188.3 63.6 190.9 65.7 z M195.7 48.4c0.9-1 2.3-1.3 4-1.3c1.6 0 2.9 0.2 4 1.1c1.1 0.9 1.7 2.8 1.8 3.8h-11.5C194.2 50.9 194.8 49.3 195.7 48.4z"/><polygon fill="#FFFFFF" points="227.1,67.9 231.1,49.3 235.1,67.9 242,67.9 249.4,41.9 242.4,41.9 238.5,60.4 234.6,41.9 227.8,41.9 224.1,60.3 220.1,41.9 213,41.9 220.1,67.9"/><path fill="#FFFFFF" d="M103.5 111.9h7c2 0 3.4 0.4 4.1 1.2c0.7 0.7 1.1 2.2 1.1 4.4l0 3.2c0 1 0.1 1.7 0.3 2.6 c0.1 0.5 0.2 1.5 0.5 1.5h7.9v-0.2c-1-0.4-0.9-1.1-1.1-2c-0.1-0.6 0.1-1.6 0.1-3.2v-2.3c0-2.4-0.6-4.2-1.2-5.4 c-0.7-1.2-1.9-2.1-3.5-2.7c1.9-0.7 3.2-1.8 4-3.4c0.8-1.6 1.2-3.2 1.2-4.8c0-1.4-0.2-2.6-0.7-3.6c-0.4-1.1-1-2-1.7-2.9 c-0.9-1.1-2-1.9-3.2-2.5c-1.3-0.5-3.1-1-5.5-1H96.5v34h7V111.9z M103.5 96.9h7.9c1.5 0 2.6 0.3 3.3 0.7c1.3 0.7 2 2.2 2 4.3 c0 1.9-0.7 3-2 3.7c-0.8 0.4-1.9 0.4-3.5 0.4h-7.7V96.9z"/><path fill="#FFFFFF" d="M132.2 123.4c2.6 2.1 5.6 3.1 9 3.1c4.1 0 7.3-1.4 9.6-3.8c1.5-1.6 2.3-3.7 2.5-4.7h-6.8 c-0.4 1-0.9 1.4-1.4 1.9c-1 0.8-2.2 1.2-3.7 1.2c-1.4 0-2.7-0.2-3.7-0.8c-1.7-1-2.6-3.3-2.7-5.3h18.6c0-3 0-4-0.2-5.2 c-0.3-2-1-3.8-2-5.3c-1.2-1.7-2.6-3-4.4-3.8c-1.8-0.8-3.8-1.2-6-1.2c-3.7 0-6.8 1.2-9.1 3.5c-2.3 2.4-3.5 5.8-3.5 10.2 C128.3 117.9 129.6 121.3 132.2 123.4z M137 106.2c0.9-1 2.3-1.4 4-1.4c1.6 0 2.9 0.3 4 1.2c1.1 0.9 1.7 1.9 1.8 3.9h-11.5 C135.5 107.9 136.1 107.1 137 106.2z"/><path fill="#FFFFFF" d="M180.5 135.9v-36h-7v4c-1-1.4-1.5-2.3-2.2-2.9c-1.3-1-3-1.6-5.1-1.6c-3.1 0-5.6 1.3-7.7 3.8 c-2.1 2.6-3.1 6-3.1 10.2c0 3.9 1 7.1 3.1 9.5c2.1 2.4 4.6 3.5 7.6 3.5c2.1 0 3.7-0.4 4.9-1.2c1.2-0.8 2.5-1.7 2.5-2.8v13.5H180.5z M172.8 117.8c-1 2-2.6 3-4.9 3c-2.4 0-4-1.1-4.9-3.2c-0.5-1.1-0.7-2.6-0.7-4.3c0-2.6 0.5-4.6 1.5-5.9c1-1.3 2.4-1.9 4.1-1.9 c2.4 0 4.1 1.1 5 3.3c0.5 1.2 0.8 2.6 0.8 4.2C173.7 114.8 173.4 116.5 172.8 117.8z"/><path fill="#FFFFFF" d="M194.9 126.2c1.3 0 2.5-0.2 3.4-0.5c1-0.3 2-1 3-1.9c0.3-0.3 0.5-0.6 0.8-1c0.2-0.4 0.4-0.6 0.4-0.7v2.9h7 v-25h-7v14c0 1.6-0.2 3-0.7 4c-0.8 1.8-2.4 2.8-4.7 2.8c-1.8 0-2.7-0.6-3.4-1.9c-0.3-0.7-0.3-1.8-0.3-3.3V99.9h-7v15.5 c0 2.9 0.2 5.1 1 6.6C188.7 124.8 191.1 126.2 194.9 126.2z"/><path fill="#FFFFFF" d="M238.8 109.8c-0.3-2-1-3.8-2-5.3c-1.2-1.7-2.6-3-4.4-3.8c-1.8-0.8-3.8-1.2-6-1.2c-3.7 0-6.8 1.2-9.1 3.5 c-2.3 2.4-3.5 5.8-3.5 10.2c0 4.7 1.3 8.1 3.9 10.2c2.6 2.1 5.6 3.1 9 3.1c4.1 0 7.3-1.4 9.6-3.8c1.5-1.6 2.3-3.7 2.5-4.7h-6.8 c-0.4 1-0.9 1.4-1.4 1.9c-1 0.8-2.2 1.2-3.7 1.2c-1.4 0-2.7-0.2-3.7-0.8c-1.7-1-2.6-3.3-2.7-5.3H239 C239 111.9 239 110.9 238.8 109.8z M220.6 109.9c0.2-2 0.8-2.8 1.8-3.8c0.9-1 2.3-1.4 4-1.4c1.6 0 2.9 0.3 4 1.2 c1.1 0.9 1.7 1.9 1.8 3.9H220.6z"/><path fill="#FFFFFF" d="M241.6 108c0 2 0.6 3.5 1.8 4.6c1.2 1.1 3.2 2 6.1 2.7c4 1 6.4 1.6 7 2c0.6 0.4 0.9 1 0.9 1.7 c0 0.8-0.4 1.4-1.2 1.8c-0.8 0.4-1.8 0.6-3.1 0.6c-2.2 0-3.8-0.7-4.6-1.6c-0.5-0.5-0.8-1.8-0.9-2.8h-6.8c0 3 1 5.1 2.9 6.8 c1.9 1.7 4.9 2.7 8.9 2.7c3.9 0 6.9-0.7 8.7-2.3c1.9-1.6 2.8-3.6 2.8-6.2c0-1.9-0.7-3.5-2-4.8c-1.3-1.3-3.3-2.2-6-2.8 c-4-0.9-6.3-1.5-7-1.8c-0.7-0.3-1-0.9-1-1.7c0-0.6 0.3-1.1 0.9-1.6c0.6-0.5 1.7-0.7 3.1-0.7c1.8 0 3 0.5 3.8 1.4 c0.4 0.5 0.6 1.1 0.7 2.1h6.7c-0.3-4-1.5-5.4-3.5-6.6c-2-1.3-4.6-1.9-7.8-1.9c-3.4 0-6 0.8-7.8 2.5 C242.5 103.6 241.6 105.6 241.6 108z"/><path fill="#FFFFFF" d="M270.5 120.8c0 1.6 0.1 2.8 0.9 3.5c1.2 1.2 3 1.8 6.2 1.6l2.9-0.1v-5c0 0-0.3 0-0.5 0c-0.2 0-0.4 0-0.6 0 c-1.4 0-2.2-0.1-2.5-0.4c-0.3-0.3-0.4-0.9-0.4-2v-13.6h4v-5h-4v-7h-6v7h-4v5h4V120.8z"/><path fill="#FFFFFF" d="M298.9 120.8c-0.8 0.4-1.8 0.6-3.1 0.6c-2.2 0-3.8-0.7-4.6-1.6c-0.5-0.5-0.8-1.8-0.9-2.8h-6.8 c0 3 1 5.1 2.9 6.8c1.9 1.7 4.9 2.7 8.9 2.7c3.9 0 6.9-0.7 8.7-2.3c1.9-1.6 2.8-3.6 2.8-6.2c0-1.9-0.7-3.5-2-4.8 c-1.3-1.3-3.3-2.2-6-2.8c-4-0.9-6.3-1.5-7-1.8c-0.7-0.3-1-0.9-1-1.7c0-0.6 0.3-1.1 0.9-1.6c0.6-0.5 1.7-0.7 3.1-0.7 c1.8 0 3 0.5 3.8 1.4c0.4 0.5 0.6 1.1 0.7 2.1h6.7c-0.3-4-1.5-5.4-3.5-6.6c-2-1.3-4.6-1.9-7.8-1.9c-3.4 0-6 0.8-7.8 2.5 c-1.9 1.7-2.8 3.7-2.8 6.1c0 2 0.6 3.5 1.8 4.6c1.2 1.1 3.2 2 6.1 2.7c4 1 6.4 1.6 7 2c0.6 0.4 0.9 1 0.9 1.7 C300.1 119.8 299.7 120.4 298.9 120.8z"/></g></svg>