<svg xmlns="http://www.w3.org/2000/svg" xmlns:xlink="http://www.w3.org/1999/xlink" version="1.1" id="Layer_1" x="0px" y="0px" width="391.9px" height="391.9px" viewBox="0 0 391.9 391.9" enable-background="new 0 0 391.9 391.9" xml:space="preserve"><g><g><g><g><g><defs><path id="SVGID_11_" d="M388.1 311.1c0 42.8-34.7 77.5-77.5 77.5H81.8c-42.8 0-77.5-34.7-77.5-77.5V82.3 C4.3 39.5 39 4.8 81.8 4.8h228.8c42.8 0 77.5 34.7 77.5 77.5V311.1z"/></defs><use xlink:href="#SVGID_11_" overflow="visible" fill="#003B71"/><clipPath id="SVGID_1_"><use xlink:href="#SVGID_11_" overflow="visible"/></clipPath></g></g></g></g><linearGradient id="SVGID_2_" gradientUnits="userSpaceOnUse" x1="192.6" y1="117.6" x2="192.6" y2="390.9"><stop offset="0" style="stop-color:#FFFFFF"/><stop offset="0.638" style="stop-color:#FFFFFF;stop-opacity:0.5837"/><stop offset="1" style="stop-color:#FFFFFF;stop-opacity:0"/></linearGradient><path opacity="0.2" fill="url(#SVGID_2_)" d="M384.2 248.7C62.7 249.5 1 117.6 1 117.6l4.9 219.7l21.7 34.4L60.8 388l148.5 2.9 l140.7-9.6c0 0 18.5-25.3 34.2-53.7V248.7z"/><path opacity="0.11" fill="#231F20" d="M180.2 387.7c131.1 0 195.2 13.8 206.6-63.3l1.3-128.5c-175 57.9-352.9 9.4-383.8 0.1v130.1 C40.7 412.3 121.8 387.7 180.2 387.7z"/><g><path fill="#FFFFFF" d="M301.3 127.3c-1.6 0.5-3.1 0.8-4.7 0.9c-4.9 7.5-9.5 17.3-13.9 29.4c-12.2 34-41 57.3-49.5 63.6L219 231.9 h70l1.6-3.3c7.2-14.5 18.5-34.2 32-45.5c20.6-17.4 31.2-34 30.6-48.1c-0.3-5.8-2.4-10.9-6.3-15.2 C331.4 123.4 316.1 122.9 301.3 127.3z"/></g><g><defs><path id="SVGID_14_" d="M6.9 81.1v-0.6C6.9 39 48.8 9 88.9 9H307c40.1 0 78.5 30 78.5 71.5v35.2C187.6 167.4 6.9 81.1 6.9 81.1z"/></defs><use xlink:href="#SVGID_14_" overflow="visible" fill="#003B71"/><clipPath id="SVGID_3_"><use xlink:href="#SVGID_14_" overflow="visible"/></clipPath></g><g><defs><path id="SVGID_16_" d="M6.9 75.6v-0.6c0-41.5 41.9-71.5 82-71.5H307c40.1 0 78.5 30 78.5 71.5v35.2C187.6 162 6.9 75.6 6.9 75.6 z"/></defs><use xlink:href="#SVGID_16_" overflow="visible" fill="#C0683C"/><clipPath id="SVGID_4_"><use xlink:href="#SVGID_16_" overflow="visible"/></clipPath><path clip-path="url(#SVGID_4_)" fill="#FFFFFF" d="M6.9 160.8V75.1c0-41.5 41.9-71.5 82-71.5H307c40.1 0 78.5 30 78.5 71.5v85.7 C198.7 227 6.9 160.8 6.9 160.8z"/></g><g opacity="0.57"><linearGradient id="SVGID_5_" gradientUnits="userSpaceOnUse" x1="196.2" y1="3.6" x2="196.2" y2="223.8"><stop offset="0" style="stop-color:#FFFFFF"/><stop offset="0.638" style="stop-color:#FFFFFF;stop-opacity:0.5837"/><stop offset="1" style="stop-color:#FFFFFF;stop-opacity:0"/></linearGradient><path fill="url(#SVGID_5_)" d="M4.3 195.7L6.9 72.1c0-39.8 41.9-68.6 82-68.6H307c40.1 0 78.5 28.8 78.5 68.6l2.5 123.5 C201.3 259.1 4.3 195.7 4.3 195.7z"/></g><g><defs><path id="SVGID_19_" d="M388.1 311.1c0 42.8-34.7 77.5-77.5 77.5H81.8c-42.8 0-77.5-34.7-77.5-77.5V82.3 C4.3 39.5 39 4.8 81.8 4.8h228.8c42.8 0 77.5 34.7 77.5 77.5V311.1z"/></defs><clipPath id="SVGID_6_"><use xlink:href="#SVGID_19_" overflow="visible"/></clipPath><use xlink:href="#SVGID_19_" overflow="visible" fill="none" stroke="#B9C8D3" stroke-width="8.1442"/></g><g><path fill="#003B71" d="M142.4 90.9l-6.9-55.8h14.6l1.8 22.5c0.6 6 1 12.4 1.5 19.1h0.2c2.3-6.3 5.4-13.1 8-18.8l10.2-22.8h15.8 L159 90.9H142.4z"/><path fill="#003B71" d="M186.2 77.7l-5.5 13.2h-15.1L192 35.1h18.5l6 55.8h-14.9l-0.7-13.2H186.2z M200.4 67.2l-0.6-10.3 c-0.3-3.1-0.4-7.8-0.7-11.3h-0.2c-1.4 3.5-3 8.2-4.4 11.3l-4.3 10.3H200.4z"/><path fill="#6683A8" d="M234.2 57l-2.5 13.2H244l2.5-13.2h7.2l-6.4 33.8h-7.2l2.7-14.2h-12.2l-2.7 14.2h-7.2L227 57H234.2z"/><path fill="#6683A8" d="M273.6 89.5c-2.9 1.5-6.4 2-9.1 2c-7 0-10.6-4-10.6-10.4c0-7.5 5.4-15.3 14.3-15.3c5 0 8.5 2.8 8.5 7.3 c0 6.3-6.1 8.5-15.9 8.3c0 0.7 0.2 1.8 0.8 2.5c1 1.3 2.6 1.9 4.7 1.9c2.7 0 4.9-0.6 6.9-1.6L273.6 89.5z M269.9 73.1 c0-1.2-1-2.1-2.7-2.1c-3.4 0-5.3 2.8-5.8 5.1C267.1 76.2 269.9 75.4 269.9 73.1L269.9 73.1z"/><path fill="#6683A8" d="M294.3 90.9c0.1-1.5 0.2-3.1 0.4-4.9h-0.2c-2.3 4.1-5.4 5.4-8.2 5.4c-4.4 0-7.4-3.4-7.4-8.5 c0-8.3 5.5-17.1 17.6-17.1c2.9 0 6.1 0.6 8.1 1.2L302 79.8c-0.6 3.2-1.1 8-1 11H294.3z M296.4 71.5c-0.6-0.1-1.3-0.2-2-0.2 c-4.7 0-8.1 5.7-8.1 10.3c0 2.4 0.9 4.1 3 4.1c2.2 0 4.8-2.5 5.9-8.5L296.4 71.5z"/><path fill="#6683A8" d="M306.1 90.9l6.8-35.7h7.2l-6.8 35.7H306.1z"/><path fill="#6683A8" d="M333.2 59.7l-1.3 6.7h5.2l-1 5.5h-5.2l-1.6 8.3c-0.2 1-0.4 2.3-0.4 3.1c0 1.2 0.5 2.1 2.1 2.1 c0.7 0 1.4 0 2-0.1l-0.8 5.7c-0.9 0.4-2.7 0.6-4.3 0.6c-4.3 0-6.4-2.3-6.4-5.3c0-1.4 0.2-2.7 0.5-4.6l1.9-9.7h-3.1l1-5.5h3.2 l0.9-4.6L333.2 59.7z"/><path fill="#6683A8" d="M336.9 90.9l6.7-35.7h7.2l-2.7 14.2l0.1 0c2-2.3 4.6-3.7 7.8-3.7c3.8 0 6.2 2.4 6.2 6.6 c0 1.2-0.2 3-0.5 4.4l-2.7 14.1h-7.2l2.5-13.5c0.2-1 0.4-2 0.4-3.1c0-1.6-0.7-2.8-2.5-2.8c-2.5 0-5.1 3.1-6 8l-2.1 11.2H336.9z"/></g><path fill="#FFFFFF" d="M42.5 237.9c0.2 81.7 63.7 147.8 136.3 147.8s136-66.1 136.3-147.8H42.5z M176.6 353.9 c-5.7-0.2-10.2-4.3-10-10.5c0.2-6.2 4.9-10.2 10.6-10c6 0.2 10.3 4.4 10.2 10.6C187.2 350.3 182.6 354.1 176.6 353.9z M203.4 300.7 c-1.5 2.1-4.7 4.7-8.9 7.9l-4.6 3.2c-2.2 1.7-4.2 3.7-4.9 6c-0.4 1.2-0.6 2.3-0.7 4.4c0 0.4-0.3 1.4-1.6 1.4s-11.5 0-12.9 0 s-1.6-0.8-1.6-1.3c0.2-5.8 0.4-9.8 2.7-12.5c4-4.6 12.9-10.4 12.9-10.4c1.4-1 2.5-2.2 3.3-3.4c1.5-2.1 2.8-4.4 2.8-6.9 c0-2.9-0.8-5.5-2.5-7.9c-1.7-2.4-4.8-3.6-9.3-3.6c-4.4 0-7.6 1.5-9.4 4.4c-1.9 2.9-2.8 6-2.8 9.2h-16.6 c0.5-10.9 4.3-18.6 11.4-23.2c4.5-2.9 10.1-4.4 16.6-4.4c8.6 0 15.8 2.1 21.6 6.2c5.7 4.1 8.6 10.2 8.6 18.3 C207.6 293.1 205.9 297.3 203.4 300.7z"/></g></svg>