<svg xmlns="http://www.w3.org/2000/svg" xmlns:xlink="http://www.w3.org/1999/xlink" version="1.1" x="0px" y="0px" width="418.4px" height="1001.1px" viewBox="0 0 418.4 1001.1" enable-background="new 0 0 418.4 1001.1" xml:space="preserve"><g><g><path fill="#F2F2F2" d="M208 426.3c-66.7 0-78.6-10-79.1-10.4c-0.2-0.2-0.2-0.4-0.2-0.6c2.2-5.7 6.2-17.2 6.2-19.9 c0-0.8-0.1-2.2-0.3-4c-0.5-6.1-1.5-17.5 0.2-26.9c0.4-2.2 0.8-4.2 1.2-6.1c1.5-7.5 2.5-13 2.2-20.1c-0.3-7.3-11.4-44.7-19.6-55.3 c-0.1-0.1-0.1-0.3-0.1-0.5l0.4-1.6c3-10.7 7.9-30.8 7.9-31l36.2-107.1c0.1-0.2 0.2-0.3 0.4-0.4c0.1 0 0.1 0 0.2 0 c0.1 0 0.2 0 0.3 0.1c0.2 0.1 17.3 12.6 43.7 12.6c26.4 0 45.8-12.2 46-12.4c0.1-0.1 0.2-0.1 0.3-0.1c0.1 0 0.1 0 0.2 0 c0.2 0.1 0.3 0.2 0.3 0.4l35.9 106.8c0.1 0.3 5.5 22.4 8.4 32.5c0.1 0.2 0 0.4-0.1 0.5c-8.2 10.5-19.1 47.4-19.6 55.4 c-0.4 5.3 0.8 11.6 2.2 19.6c0.4 2.1 0.8 4.4 1.2 6.7c1.4 8.5 0.6 20.4 0.2 26.8c-0.1 1.9-0.2 3.4-0.2 4.2c0 3.3 5.2 20 5.2 20.2 c0.1 0.3 0 0.5-0.3 0.7C287.4 416.5 267.6 426.3 208 426.3z"/><g><path fill="#4CA8D1" d="M163.7 142.9c0 0 17.2 12.7 44.1 12.7s46.3-12.4 46.3-12.4L290.1 250c0 0 5.4 22.3 8.4 32.5 c-8.4 10.8-19.2 47.9-19.7 55.7c-0.5 6.8 1.6 15.4 3.4 26.4c1.9 11-0.1 27.4-0.1 30.9s5.2 20.4 5.2 20.4s-19.2 9.9-79.3 9.9 c-67.3 0-78.7-10.3-78.7-10.3s6.3-16.6 6.3-20.1c0-3.4-2.2-18.8-0.1-30.8c2-11 3.7-17.4 3.4-26.4c-0.3-7.3-11.3-44.8-19.7-55.7 l0.4-1.6c3-10.8 7.9-31 7.9-31L163.7 142.9 M163.7 141.7c-0.1 0-0.2 0-0.3 0.1c-0.3 0.1-0.6 0.4-0.7 0.7l-36.2 107.1 c0 0 0 0.1 0 0.1c0 0.2-4.9 20.3-7.9 31l-0.4 1.6c-0.1 0.3 0 0.7 0.2 1c8.1 10.5 19.2 47.8 19.4 55c0.3 7.1-0.8 12.5-2.2 20 c-0.4 1.9-0.8 3.9-1.2 6.1c-1.7 9.4-0.7 20.9-0.2 27c0.2 1.8 0.3 3.2 0.3 4c0 2.4-3.7 13.1-6.2 19.7c-0.2 0.4 0 0.9 0.3 1.2 c0.5 0.4 12.6 10.6 79.5 10.6c59.8 0 79.1-9.6 79.9-10c0.5-0.3 0.7-0.8 0.6-1.3c-1.4-4.7-5.2-17.3-5.2-20c0-0.8 0.1-2.2 0.2-4.1 c0.4-6.4 1.3-18.3-0.2-26.9c-0.4-2.4-0.8-4.6-1.2-6.7c-1.4-7.9-2.6-14.2-2.2-19.4c0.5-8 11.4-44.7 19.5-55.1 c0.2-0.3 0.3-0.7 0.2-1c-2.9-10.1-8.3-32.3-8.4-32.5c0 0 0-0.1 0-0.1l-35.9-106.8c-0.1-0.3-0.4-0.6-0.7-0.7 c-0.1 0-0.2-0.1-0.4-0.1c-0.2 0-0.4 0.1-0.6 0.2c-0.2 0.1-19.4 12.3-45.7 12.3c-26.2 0-43.2-12.4-43.4-12.5 C164.2 141.8 164 141.7 163.7 141.7L163.7 141.7z"/></g></g><g><path fill="#F2F2F2" d="M117.5 513.1c0 0-2 47.8 3 74.9s14.8 55.3 17.1 60.2c0 0 14.7-4.9 31.6-4.9c18.2 0 33.7 4.9 33.7 4.9 s1.3-37.8 2-46.9s2-25.7 2-33.2s0.7-49.5-2-54.8C198.3 513.2 117.8 513.1 117.5 513.1z"/><path fill="none" stroke="#4CA8D1" stroke-width="1.1364" stroke-miterlimit="10" d="M117.5 513.1c0 0-2 47.8 3 74.9 s14.8 55.3 17.1 60.2c0 0 14.7-4.9 31.6-4.9c18.2 0 33.7 4.9 33.7 4.9s1.3-37.8 2-46.9s2-25.7 2-33.2s0.7-49.5-2-54.8 C198.3 513.2 117.8 513.1 117.5 513.1z"/></g><g><path fill="#F2F2F2" d="M137.5 648.2c0 0 4.5 36.6 5 40.5c0.5 3.9 1.7 12.8 1.8 15.6c0.2 2.8-1.6 20.2-2.1 23.1 c0 0 14.2-4.9 27.1-4.9c13.8 0 27.6 4.9 27.6 4.9s-0.8-23.1 0.3-26.2c1.1-3.1 2.6-15 2.6-16.8s4.9-33.7 3-36.2 c0 0-15.1-4.9-33.6-4.9S137.5 648.2 137.5 648.2z"/><path fill="none" stroke="#4CA8D1" stroke-width="1.1364" stroke-miterlimit="10" d="M137.5 648.2c0 0 4.5 36.6 5 40.5 c0.5 3.9 1.7 12.8 1.8 15.6c0.2 2.8-1.6 20.2-2.1 23.1c0 0 14.2-4.9 27.1-4.9c13.8 0 27.6 4.9 27.6 4.9s-0.8-23.1 0.3-26.2 c1.1-3.1 2.6-15 2.6-16.8s4.9-33.7 3-36.2c0 0-15.1-4.9-33.6-4.9S137.5 648.2 137.5 648.2z"/></g><g><path fill="#F2F2F2" d="M142.3 727.4c0 0-1.7 14.7-1.4 26.5c0.3 11.7 14.7 78.3 16 97.9c0.7 12.4 6.9 41.7 4.3 52.5 c0 0 13.9 4.2 22.9 4.3c10.5 0.1 16.3-3.8 16.3-3.8s-5.2-43.1-4.2-67.2c1-24.1 3.6-41.4 4.6-43.7c1-2.3 2.3-23.8 1.6-32.9 s-2-29-5.6-33.6c0 0-14.5-4.9-27.5-4.9S142.3 727.4 142.3 727.4z"/><path fill="none" stroke="#4CA8D1" stroke-width="1.1364" stroke-linejoin="round" stroke-miterlimit="10" d="M142.3 727.4 c0 0-1.7 14.7-1.4 26.5c0.3 11.7 14.7 78.3 16 97.9c0.7 12.4 6.9 41.7 4.3 52.5c0 0 13.9 4.2 22.9 4.3c10.5 0.1 16.3-3.8 16.3-3.8 s-5.2-43.1-4.2-67.2c1-24.1 3.6-41.4 4.6-43.7c1-2.3 2.3-23.8 1.6-32.9s-2-29-5.6-33.6c0 0-14.5-4.9-27.5-4.9 S142.3 727.4 142.3 727.4z"/></g><g><path fill="#F2F2F2" d="M161.2 904.2c0 0 2.1 14.7-1.3 18c-14.6 14.2-13.4 34.9-19.5 42.5c-4.1 5.1-8.5 10.2-8.5 10.2 s-2.8 5.2-2.6 6.6c0.2 0.9 0.5 1.6 1.5 1c0.3-0.2 0.7-1.4 0.9-1.7l4.5-4c0.4-0.3 1.3 0.9 0.3 1.1l-4.8 4.8c0 0-1 3.5 0.2 4.3 c2.2 1.5 3.9-3.3 3.9-3.3l2.6-2.1c1.2-0.8 4-1 1.1 0.7l-4.2 4.7c0 0-1.2 3.6-0.2 4.2c2.2 1.5 5.3-5.1 5.3-5.1 c0.8-0.3 2.4-2.5 2.4-2.5c0.4-0.3 1.2 0.7 1 1.2l-3.1 2.6c0 0-1.2 2.3-2.4 4c-1.2 1.6 0.1 4.7 3.2 3.7c2.1-0.7 2.4-3.5 2.4-3.5 s0.2-1 1.2-2.8c0 0 1-3.5 2.4-3.5c0.4-0.3 1.5 0 1.3 0.6c-0.3 1.1-1.8 3.2-1.9 3.3l-3 5.7c0 0-0.1 3.6 2.4 5c2.1 1.2 7 0 11-3.3 c3.9-3.2 7.1-11.1 7.1-11.1s2.8-0.1 7.2-9.3c1.9-4 12.4-26.1 13.3-29.9c1.3-5.1 6.3-11.2 12-14.6c7.3-4.4 9.5-15.4 8.2-19.8 c-1.6-5.4-4.8-7.3-4.8-7.3s-6.1 4-16 3.8C174.6 908.5 161.2 904.2 161.2 904.2z"/><path fill="none" stroke="#4CA8D1" stroke-width="1.1364" stroke-linejoin="round" stroke-miterlimit="10" d="M161.2 904.2 c0 0 2.1 14.7-1.3 18c-14.6 14.2-13.4 34.9-19.5 42.5c-4.1 5.1-8.5 10.2-8.5 10.2s-2.8 5.2-2.6 6.6c0.2 0.9 0.5 1.6 1.5 1 c0.3-0.2 0.7-1.4 0.9-1.7l4.5-4c0.4-0.3 1.3 0.9 0.3 1.1l-4.8 4.8c0 0-1 3.5 0.2 4.3c2.2 1.5 3.9-3.3 3.9-3.3l2.6-2.1 c1.2-0.8 4-1 1.1 0.7l-4.2 4.7c0 0-1.2 3.6-0.2 4.2c2.2 1.5 5.3-5.1 5.3-5.1c0.8-0.3 2.4-2.5 2.4-2.5c0.4-0.3 1.2 0.7 1 1.2 l-3.1 2.6c0 0-1.2 2.3-2.4 4c-1.2 1.6 0.1 4.7 3.2 3.7c2.1-0.7 2.4-3.5 2.4-3.5s0.2-1 1.2-2.8c0 0 1-3.5 2.4-3.5 c0.4-0.3 1.5 0 1.3 0.6c-0.3 1.1-1.8 3.2-1.9 3.3l-3 5.7c0 0-0.1 3.6 2.4 5c2.1 1.2 7 0 11-3.3c3.9-3.2 7.1-11.1 7.1-11.1 s2.8-0.1 7.2-9.3c1.9-4 12.4-26.1 13.3-29.9c1.3-5.1 6.3-11.2 12-14.6c7.3-4.4 9.5-15.4 8.2-19.8c-1.6-5.4-4.8-7.3-4.8-7.3 s-6.1 4-16 3.8C174.6 908.5 161.2 904.2 161.2 904.2z"/></g><g><path fill="#F2F2F2" d="M255.7 903.6c0 0-2.1 14.7 1.3 18c14.6 14.2 13.4 34.9 19.5 42.5c4.1 5.1 8.5 10.2 8.5 10.2 s2.8 5.2 2.6 6.6c-0.2 0.9-0.5 1.6-1.5 1c-0.3-0.2-0.7-1.4-0.9-1.7l-4.5-4c-0.4-0.3-1.3 0.9-0.3 1.1l4.8 4.8c0 0 1 3.5-0.2 4.3 c-2.2 1.5-3.9-3.3-3.9-3.3l-2.6-2.1c-1.2-0.8-4-1-1.1 0.7l4.2 4.7c0 0 1.2 3.6 0.2 4.2c-2.2 1.5-5.3-5.1-5.3-5.1 c-0.8-0.3-2.4-2.5-2.4-2.5c-0.4-0.3-1.2 0.7-1 1.2l3.1 2.6c0 0 1.2 2.3 2.4 4c1.2 1.6-0.1 4.7-3.2 3.7c-2.1-0.7-2.4-3.5-2.4-3.5 s-0.2-1-1.2-2.8c0 0-1-3.5-2.4-3.5c-0.4-0.3-1.5 0-1.3 0.6c0.3 1.1 1.8 3.2 1.9 3.3l3 5.7c0 0 0.1 3.6-2.4 5c-2.1 1.2-7 0-11-3.3 c-3.9-3.2-7.1-11.1-7.1-11.1s-2.8-0.1-7.2-9.3c-1.9-4-12.4-26.1-13.3-29.9c-1.3-5.1-6.3-11.2-12-14.6c-7.3-4.4-9.5-15.4-8.2-19.8 c1.6-5.4 4.8-7.3 4.8-7.3s6.1 4 16 3.8C242.3 907.9 255.7 903.6 255.7 903.6z"/><path fill="none" stroke="#4CA8D1" stroke-width="1.1364" stroke-linejoin="round" stroke-miterlimit="10" d="M255.7 903.6 c0 0-2.1 14.7 1.3 18c14.6 14.2 13.4 34.9 19.5 42.5c4.1 5.1 8.5 10.2 8.5 10.2s2.8 5.2 2.6 6.6c-0.2 0.9-0.5 1.6-1.5 1 c-0.3-0.2-0.7-1.4-0.9-1.7l-4.5-4c-0.4-0.3-1.3 0.9-0.3 1.1l4.8 4.8c0 0 1 3.5-0.2 4.3c-2.2 1.5-3.9-3.3-3.9-3.3l-2.6-2.1 c-1.2-0.8-4-1-1.1 0.7l4.2 4.7c0 0 1.2 3.6 0.2 4.2c-2.2 1.5-5.3-5.1-5.3-5.1c-0.8-0.3-2.4-2.5-2.4-2.5c-0.4-0.3-1.2 0.7-1 1.2 l3.1 2.6c0 0 1.2 2.3 2.4 4c1.2 1.6-0.1 4.7-3.2 3.7c-2.1-0.7-2.4-3.5-2.4-3.5s-0.2-1-1.2-2.8c0 0-1-3.5-2.4-3.5 c-0.4-0.3-1.5 0-1.3 0.6c0.3 1.1 1.8 3.2 1.9 3.3l3 5.7c0 0 0.1 3.6-2.4 5c-2.1 1.2-7 0-11-3.3c-3.9-3.2-7.1-11.1-7.1-11.1 s-2.8-0.1-7.2-9.3c-1.9-4-12.4-26.1-13.3-29.9c-1.3-5.1-6.3-11.2-12-14.6c-7.3-4.4-9.5-15.4-8.2-19.8c1.6-5.4 4.8-7.3 4.8-7.3 s6.1 4 16 3.8C242.3 907.9 255.7 903.6 255.7 903.6z"/></g><g><path fill="#F2F2F2" d="M299.4 513.1c0 0 1.7 47.7-3.3 74.8s-14.8 55.3-17.1 60.2c0 0-14.7-4.9-31.6-4.9 c-18.2 0-33.7 4.9-33.7 4.9s-1.3-37.8-2-46.9s-2-25.7-2-33.2s-0.3-49.5 2.3-54.8C218.6 513.2 299.1 513.1 299.4 513.1z"/><path fill="none" stroke="#4CA8D1" stroke-width="1.1364" stroke-miterlimit="10" d="M299.4 513.1c0 0 1.7 47.7-3.3 74.8 s-14.8 55.3-17.1 60.2c0 0-14.7-4.9-31.6-4.9c-18.2 0-33.7 4.9-33.7 4.9s-1.3-37.8-2-46.9s-2-25.7-2-33.2s-0.3-49.5 2.3-54.8 C218.6 513.2 299.1 513.1 299.4 513.1z"/></g><g><path fill="#F2F2F2" d="M279.1 648.2c0 0-4.5 36.6-5 40.5c-0.5 3.9-1.7 12.8-1.8 15.6c-0.2 2.8 1.6 20.2 2.1 23.1 c0 0-14.2-4.9-27.1-4.9c-13.8 0-27.6 4.9-27.6 4.9s0.8-23.1-0.3-26.2c-1.1-3.1-2.6-15-2.6-16.8s-4.9-33.7-3-36.2 c0 0 15.1-4.9 33.6-4.9S279.1 648.2 279.1 648.2z"/><path fill="none" stroke="#4CA8D1" stroke-width="1.1364" stroke-miterlimit="10" d="M279.1 648.2c0 0-4.5 36.6-5 40.5 c-0.5 3.9-1.7 12.8-1.8 15.6c-0.2 2.8 1.6 20.2 2.1 23.1c0 0-14.2-4.9-27.1-4.9c-13.8 0-27.6 4.9-27.6 4.9s0.8-23.1-0.3-26.2 c-1.1-3.1-2.6-15-2.6-16.8s-4.9-33.7-3-36.2c0 0 15.1-4.9 33.6-4.9S279.1 648.2 279.1 648.2z"/></g><g><path fill="#F2F2F2" d="M274.3 727.4c0 0 1.7 14.7 1.4 26.5c-0.3 11.7-14.7 78.3-16 97.9c-0.7 12.4-6.9 41.7-4.3 52.5 c0 0-13.9 4.2-22.9 4.3c-10.5 0.1-16.3-3.8-16.3-3.8s5.2-43.1 4.2-67.2c-1-24.1-3.6-41.4-4.6-43.7c-1-2.3-2.3-23.8-1.6-32.9 s2-29 5.6-33.6c0 0 14.5-4.9 27.5-4.9S274.3 727.4 274.3 727.4z"/><path fill="none" stroke="#4CA8D1" stroke-width="1.1364" stroke-linejoin="round" stroke-miterlimit="10" d="M274.3 727.4 c0 0 1.7 14.7 1.4 26.5c-0.3 11.7-14.7 78.3-16 97.9c-0.7 12.4-6.9 41.7-4.3 52.5c0 0-13.9 4.2-22.9 4.3 c-10.5 0.1-16.3-3.8-16.3-3.8s5.2-43.1 4.2-67.2c-1-24.1-3.6-41.4-4.6-43.7c-1-2.3-2.3-23.8-1.6-32.9s2-29 5.6-33.6 c0 0 14.5-4.9 27.5-4.9S274.3 727.4 274.3 727.4z"/></g><path fill="#F2F2F2" stroke="#4CA8D1" stroke-width="1.1364" stroke-linejoin="round" stroke-miterlimit="10" d="M129.1 415.6 c0 0-0.6 29.3-2.1 34.5c-1.5 5.1-1.7 7.9-2.7 12.3c-1 4.4-6.8 50.8-6.8 50.8l87.3 0.1c0 0-0.1-5.4 3.9-5.4c0-1.6 0.1-82.1 0.1-82.1 S151.7 426.6 129.1 415.6z"/><path fill="#F2F2F2" stroke="#4CA8D1" stroke-width="1.1364" stroke-linejoin="round" stroke-miterlimit="10" d="M287.8 415.6 c0 0 0.6 29.3 2.1 34.5s1.7 7.9 2.7 12.3c1 4.4 6.8 50.8 6.8 50.8l-87.3 0.1c0 0 0.1-5.4-3.9-5.4c0-1.6-0.1-82.1-0.1-82.1 S265.3 426.6 287.8 415.6z"/><g><path fill="#F2F2F2" d="M257.3 62.8c0 0-0.3-4.2-4.5-5.5c-2.1-1.3-2.4-4.6-1.7-9.8c0.7-5.2-1.4-46.9-41.8-46.9 c-39.7 0-42.5 41.7-41.8 46.9c0.7 5.2 0.3 8.5-1.7 9.8c-4.2 1.3-4.5 5.5-4.5 5.5s-1 10.1 0.7 16.3c1.7 6.2 9.8 8.8 12.2 11.1 c2.4 2.3 3.1 12.4 3.1 12.4s14.1 21.4 29.5 21.4c17.4 0 34.5-21.4 34.5-21.4s0.7-10.1 3.1-12.4c2.4-2.3 10.5-4.9 12.2-11.1 C258.4 72.9 257.3 62.8 257.3 62.8z"/><path fill="none" stroke="#4CA8D1" stroke-width="1.1364" stroke-miterlimit="10" d="M257.3 62.8c0 0-0.3-4.2-4.5-5.5 c-2.1-1.3-2.4-4.6-1.7-9.8c0.7-5.2-1.4-46.9-41.8-46.9c-39.7 0-42.5 41.7-41.8 46.9c0.7 5.2 0.3 8.5-1.7 9.8 c-4.2 1.3-4.5 5.5-4.5 5.5s-1 10.1 0.7 16.3c1.7 6.2 9.8 8.8 12.2 11.1c2.4 2.3 3.1 12.4 3.1 12.4s14.1 21.4 29.5 21.4 c17.4 0 34.5-21.4 34.5-21.4s0.7-10.1 3.1-12.4c2.4-2.3 10.5-4.9 12.2-11.1C258.4 72.9 257.3 62.8 257.3 62.8z"/></g><path fill="#F2F2F2" stroke="#4CA8D1" stroke-width="1.1364" stroke-linejoin="round" stroke-miterlimit="10" d="M177.3 103.1 l-2.6 26.3c0 0-0.7 7-11 13.5c0 0 16.6 12.7 42.9 12.7c26.6 0 47.5-13 47.5-13s-15.8-7-15.8-13.2c0-6.2 2.8-26.8 2.8-26.8 S222.8 124 206.7 124S177.3 103.1 177.3 103.1z"/><g><g><path fill="#F2F2F2" d="M37.1 448.9c0 0-11 9.1-12.5 10.6c-1.5 1.5-9.5 8.5-10.3 9.8s-12 12.4-12.3 13.5s-3 4.9 0.2 6.8 c3.1 2 6.7 0.5 6.7 0.5l5.9-4.7l1.1-0.9c0 0 0.7-1.7 1.7-0.5s-0.4 3.1-0.4 3.1l-0.4 3.3c0 0-0.6 18-0.7 21.2 c-0.1 4 0.3 24.4 0.3 24.4s-0.8 3.4 2.5 4.2c3.3 0.8 4-3.6 4-3.6s1.7-22.4 2.3-24.7c0.4-1.6 1.1-2.9 1.9-2.9s1.2 2.5 1.2 2.5 c-0.2-0.5-2.4 22.6-2.3 28c0.1 2.3-2 13.1 4.9 12.6c1.9-0.1 2.5-3.6 2.5-3.6s3.7-32.2 3.5-34.2s0.3-4.6 1.2-4.6 c0.9 0 1.5 2 1.5 2.7s-1 33-1 34.3s1.3 3.7 3.6 3.9c3.1 0.2 4.8-4.4 4.8-4.4s4-32.1 3.9-32.9c-0.1-0.8 0.7-5.6 2.2-5.5 c3.5 0.1-0.3 28.3-0.3 28.3s0.4 3.1 2.7 3.1s3.5-1 4.8-2.9c1.3-1.9 5.6-30.1 5.9-30.8c0.3-0.7 3.9-11.9 4.1-16.3 c0.3-4.4-0.7-20.2-1.5-24.5c-0.8-4.4-1.3-13.2-0.3-14.5c-1.7 0-8.1-2.3-15.7-2.7C48.1 447 37.1 448.9 37.1 448.9z"/><path fill="none" stroke="#4CA8D1" stroke-width="1.1364" stroke-linejoin="round" stroke-miterlimit="10" d="M37.1 448.9 c0 0-11 9.1-12.5 10.6c-1.5 1.5-9.5 8.5-10.3 9.8s-12 12.4-12.3 13.5s-3 4.9 0.2 6.8c3.1 2 6.7 0.5 6.7 0.5l5.9-4.7l1.1-0.9 c0 0 0.7-1.7 1.7-0.5s-0.4 3.1-0.4 3.1l-0.4 3.3c0 0-0.6 18-0.7 21.2c-0.1 4 0.3 24.4 0.3 24.4s-0.8 3.4 2.5 4.2 c3.3 0.8 4-3.6 4-3.6s1.7-22.4 2.3-24.7c0.4-1.6 1.1-2.9 1.9-2.9s1.2 2.5 1.2 2.5c-0.2-0.5-2.4 22.6-2.3 28 c0.1 2.3-2 13.1 4.9 12.6c1.9-0.1 2.5-3.6 2.5-3.6s3.7-32.2 3.5-34.2s0.3-4.6 1.2-4.6c0.9 0 1.5 2 1.5 2.7s-1 33-1 34.3 s1.3 3.7 3.6 3.9c3.1 0.2 4.8-4.4 4.8-4.4s4-32.1 3.9-32.9c-0.1-0.8 0.7-5.6 2.2-5.5c3.5 0.1-0.3 28.3-0.3 28.3s0.4 3.1 2.7 3.1 s3.5-1 4.8-2.9c1.3-1.9 5.6-30.1 5.9-30.8c0.3-0.7 3.9-11.9 4.1-16.3c0.3-4.4-0.7-20.2-1.5-24.5c-0.8-4.4-1.3-13.2-0.3-14.5 c-1.7 0-8.1-2.3-15.7-2.7C48.1 447 37.1 448.9 37.1 448.9z"/></g><path fill="#F2F2F2" stroke="#4CA8D1" stroke-width="1.1364" stroke-linejoin="round" stroke-miterlimit="10" d="M163.7 142.9 c0 0-53.4 15.1-61.4 20.5c-12.7 8.4-29.8 23.8-25.4 67.6c0.4 2 0.8 4.7 0.1 8.7c2.6 0 13.6-3.3 25-3.3c14.1 0 28.9 3.3 28.9 3.3 L163.7 142.9z"/><path fill="#F2F2F2" stroke="#4CA8D1" stroke-width="1.1364" stroke-linejoin="round" stroke-miterlimit="10" d="M77 239.6 c0 0-2.8 13.5-5.9 21.9c-2.6 8.1-3 16.6-3.9 28.4c-1.5 9.1-6 20.4-6 20.4s17.1-3.3 26.7-3.3s25.2 3.3 25.2 3.3s11.8-54.8 18-70.7 c0 0-11.3-2.8-29.1-3.3C94.4 236.1 77 239.6 77 239.6z"/><path fill="#F2F2F2" stroke="#4CA8D1" stroke-width="1.1364" stroke-miterlimit="10" d="M48 387.4c0 0 0.2 4.2-1.1 13.1 c-1.3 8.8-8.8 44.6-9.6 48.2c1.2 0 8.1-1.9 15.1-1.6c7.9 0.3 16 2.9 16 2.9s21.2-47.9 22.8-50.1s4.4-11 4.4-11S84.9 383 74.3 383 C63.7 383 48 387.4 48 387.4z"/><path fill="#F2F2F2" stroke="#4CA8D1" stroke-width="1.1364" stroke-linecap="round" stroke-linejoin="round" stroke-miterlimit="10" d=" M48 387.4c0 0 17.1-4.4 26.3-4.4s21.4 5.9 21.4 5.9s14.9-46.4 16.2-60.2c0.6-6.1-1.8-11.8 1.3-18.4c-2.7 0-14-3.3-25.4-3.3 c-8.9 0-26.5 3.3-26.5 3.3s-5.7 16.2-8.5 25C46.5 355.2 48 387.4 48 387.4z"/></g><g><g><path fill="#F2F2F2" d="M381.3 448.9c0 0 11 9.1 12.5 10.6s9.5 8.5 10.3 9.8s12 12.4 12.3 13.5c0.3 1.1 3 4.9-0.2 6.8 c-3.1 2-6.7 0.5-6.7 0.5l-5.9-4.7l-1.1-0.9c0 0-0.7-1.7-1.7-0.5s0.4 3.1 0.4 3.1l0.4 3.3c0 0 0.6 18 0.7 21.2 c0.1 4-0.3 24.4-0.3 24.4s0.8 3.4-2.5 4.2c-3.3 0.8-4-3.6-4-3.6s-1.7-22.4-2.3-24.7c-0.4-1.6-1.1-2.9-1.9-2.9s-1.2 2.5-1.2 2.5 c0.2-0.5 2.4 22.6 2.3 28c-0.1 2.3 2 13.1-4.9 12.6c-1.9-0.1-2.5-3.6-2.5-3.6s-3.7-32.2-3.5-34.2s-0.3-4.6-1.2-4.6 s-1.5 2-1.5 2.7s1 33 1 34.3s-1.3 3.7-3.6 3.9c-3.1 0.2-4.8-4.4-4.8-4.4s-4-32.1-3.9-32.9c0.1-0.8-0.7-5.6-2.2-5.5 c-3.5 0.1 0.3 28.3 0.3 28.3s-0.4 3.1-2.7 3.1s-3.5-1-4.8-2.9c-1.3-1.9-5.6-30.1-5.9-30.8s-3.9-11.9-4.1-16.3s0.7-20.2 1.5-24.5 c0.8-4.4 1.3-13.2 0.3-14.5c1.7 0 8.1-2.3 15.7-2.7C370.3 447 381.3 448.9 381.3 448.9z"/><path fill="none" stroke="#4CA8D1" stroke-width="1.1364" stroke-linejoin="round" stroke-miterlimit="10" d="M381.3 448.9 c0 0 11 9.1 12.5 10.6s9.5 8.5 10.3 9.8s12 12.4 12.3 13.5c0.3 1.1 3 4.9-0.2 6.8c-3.1 2-6.7 0.5-6.7 0.5l-5.9-4.7l-1.1-0.9 c0 0-0.7-1.7-1.7-0.5s0.4 3.1 0.4 3.1l0.4 3.3c0 0 0.6 18 0.7 21.2c0.1 4-0.3 24.4-0.3 24.4s0.8 3.4-2.5 4.2 c-3.3 0.8-4-3.6-4-3.6s-1.7-22.4-2.3-24.7c-0.4-1.6-1.1-2.9-1.9-2.9s-1.2 2.5-1.2 2.5c0.2-0.5 2.4 22.6 2.3 28 c-0.1 2.3 2 13.1-4.9 12.6c-1.9-0.1-2.5-3.6-2.5-3.6s-3.7-32.2-3.5-34.2s-0.3-4.6-1.2-4.6s-1.5 2-1.5 2.7s1 33 1 34.3 s-1.3 3.7-3.6 3.9c-3.1 0.2-4.8-4.4-4.8-4.4s-4-32.1-3.9-32.9c0.1-0.8-0.7-5.6-2.2-5.5c-3.5 0.1 0.3 28.3 0.3 28.3 s-0.4 3.1-2.7 3.1s-3.5-1-4.8-2.9c-1.3-1.9-5.6-30.1-5.9-30.8s-3.9-11.9-4.1-16.3s0.7-20.2 1.5-24.5c0.8-4.4 1.3-13.2 0.3-14.5 c1.7 0 8.1-2.3 15.7-2.7C370.3 447 381.3 448.9 381.3 448.9z"/></g><path fill="#F2F2F2" stroke="#4CA8D1" stroke-width="1.1364" stroke-linejoin="round" stroke-miterlimit="10" d="M254.7 142.9 c0 0 53.4 15.1 61.4 20.5c12.7 8.4 29.8 23.8 25.4 67.6c-0.4 2-0.8 4.7-0.1 8.7c-2.6 0-13.6-3.3-25-3.3c-14.1 0-28.9 3.3-28.9 3.3 L254.7 142.9z"/><path fill="#F2F2F2" stroke="#4CA8D1" stroke-width="1.1364" stroke-linejoin="round" stroke-miterlimit="10" d="M341.4 239.6 c0 0 2.8 13.5 5.9 21.9c2.6 8.1 3 16.6 3.9 28.4c1.5 9.1 6 20.4 6 20.4s-17.1-3.3-26.7-3.3s-25.2 3.3-25.2 3.3s-11.8-54.8-18-70.7 c0 0 11.3-2.8 29.1-3.3C324 236.1 341.4 239.6 341.4 239.6z"/><path fill="#F2F2F2" stroke="#4CA8D1" stroke-width="1.1364" stroke-miterlimit="10" d="M370.4 387.4c0 0-0.2 4.2 1.1 13.1 c1.3 8.8 8.8 44.6 9.6 48.2c-1.2 0-8.1-1.9-15.1-1.6c-7.9 0.3-16 2.9-16 2.9s-21.2-47.9-22.8-50.1s-4.4-11-4.4-11 s10.8-5.9 21.4-5.9C354.7 383 370.4 387.4 370.4 387.4z"/><path fill="#F2F2F2" stroke="#4CA8D1" stroke-width="1.1364" stroke-linecap="round" stroke-linejoin="round" stroke-miterlimit="10" d=" M370.4 387.4c0 0-17.1-4.4-26.3-4.4c-9.2 0-21.4 5.9-21.4 5.9s-14.9-46.4-16.2-60.2c-0.6-6.1 1.8-11.8-1.3-18.4 c2.7 0 14-3.3 25.4-3.3c8.9 0 26.5 3.3 26.5 3.3s5.7 16.2 8.5 25C371.9 355.2 370.4 387.4 370.4 387.4z"/></g></g></svg>