<svg xmlns="http://www.w3.org/2000/svg" xmlns:xlink="http://www.w3.org/1999/xlink" version="1.1" x="0px" y="0px" viewBox="0 0 400 355.5" enable-background="new 0 0 400 355.5" xml:space="preserve"><g><path fill="#0B4F78" d="M369.5 0.3c-25.2-2.5-36.3 9.7-42.8 22.7c-6.5 13-22.1 55.2-31.8 69.4c-9.7 14.3-45.4 55.8-68.1 64.3h90.2 c0 0 11.7-24.7 35-54.5c5.8-5.2 35.7-30.5 44.8-51.3C405.9 30.2 395.5 2.9 369.5 0.3z"/><path fill="#0B4F78" d="M215.4 243.2c-0.4-5.5-0.7-13.6-1.3-19.7h-0.3c-2.5 6.1-5.2 14.3-7.7 19.7l-7.5 18h17.8L215.4 243.2z"/><path fill="#0B4F78" d="M175.9 355.5c93.6 0 175.6-85.4 175.9-190.8H0C0.3 270.2 82.3 355.5 175.9 355.5z M234.1 205.1l10.4 97.6 h-26.1l-1.2-23h-25.6l-9.7 23h-26.5l46.4-97.6H234.1z M128.3 205.1l3.2 39.4c1 10.6 1.7 21.7 2.6 33.5h0.3 c4.1-11 9.4-22.9 14.1-32.9l17.8-40h27.7l-50 97.6h-29l-12.2-97.6H128.3z"/></g></svg>