<svg xmlns="http://www.w3.org/2000/svg" xmlns:xlink="http://www.w3.org/1999/xlink" version="1.1" x="0px" y="0px" width="400px" height="329.2px" viewBox="0 0 400 329.2" enable-background="new 0 0 400 329.2" xml:space="preserve"><g><path fill="#0B4F78" d="M257.3 125.1c-1.3 1.4-2 2.2-2.6 2.9c-18.6 21.4-37.2 42.9-55.9 64.2c-7.8 8.9-15.2 18.3-24.1 26 c-13.4 11.7-29.7 19-45.6 26.9c-15.3 7.7-30.8 15.1-45.9 23.3c-5 2.7-9.7 6.6-13.4 11c-6.5 7.6-5.7 17.6 1.4 24.7 c8.5 8.6 18.8 10.3 29.8 6c8.6-3.3 16.8-7.6 25.2-11.3c17.1-7.7 34.6-14.3 53.4-16.5c24-2.9 47.8-0.4 71.7 2.1 c10.3 1.1 20.6 2.6 31.2 4c2.1-7.3 4.1-14.5 6.2-21.7c8.1-28.5 16.2-57 24.2-85.5c0.5-1.9 1.9-3.8-0.5-5.9 c-6.5-5.8-12.7-12-19.1-17.8C281.5 146.7 269.5 136 257.3 125.1z M59.2 312.4c-1.8-2.9-3-4.8-4-6.7c-6-11.3-4.4-27.1 3.8-35 c8.7-8.4 18-15.9 29.2-21.3c20.6-9.9 41.1-20.2 61.2-31c8-4.3 16.2-9.6 22.1-16.4c45.2-51.4 89.9-103.4 134.9-154.9 c5.5-6.3 5.7-12.2 2.3-18.9C302.8 16.5 293.6 8 281.6 2.9c-12.2-5.2-16.5-3.4-23.9 5.2C207 67.1 156 126 105.1 184.9 c-11.9 13.8-24.3 27.2-35.5 41.5c-17.3 21.9-29.6 46.7-41.5 71.8c-2.9 6.2-5.2 12.8-7.3 19.3c-1.1 3.4-2.1 7.5 1.1 10.3 c3.1 2.6 6.9 1.2 10-0.4C41.1 322.7 49.9 317.6 59.2 312.4z M357 319.6c14.4-49 28.7-97.7 43-146.7c-23.2 0-45.8 0-68.6 0 c-1 4.9-2 9.6-2.9 14.3c-7.4 37-14.7 73.9-22.1 110.9c-0.4 2.1-0.1 3.3 2.2 4c6 2 12 4.3 18 6.5C336.6 312.3 346.6 315.9 357 319.6 z"/><path fill="#0B4F78" d="M0 227.8c9-25.6 25.2-46.8 41.8-67.7c8.4-10.6 18-20.1 27.2-30c6.5-7.1 15.3-10.7 23.8-14.5 c22.1-9.8 45.1-16.5 68.7-21.3c0.6-0.1 1.3-0.1 2.8-0.2c-1.3 1.6-2.2 2.8-3.2 3.9c-15.2 17.5-29.7 35.7-45.7 52.3 c-23.3 24.1-41.4 52.1-61.9 78.4c-6.9 8.8-14.5 17-22 25.3c-3.7 4.1-8.6 6-14.3 6c-8.4 0-13.5-3.6-15.7-11.8 c-0.7-2.6-1.2-5.3-1.7-7.9C0 236.1 0 232 0 227.8z"/><path fill="#0B4F78" d="M257.3 125.1c12.2 11 24.2 21.6 36 32.4c6.5 5.9 12.6 12.1 19.1 17.8c2.4 2.1 1.1 4 0.5 5.9 c-8 28.5-16.1 57-24.2 85.5c-2.1 7.2-4.1 14.5-6.2 21.7c-10.6-1.4-20.8-2.9-31.2-4c-23.8-2.5-47.7-5-71.7-2.1 c-18.8 2.2-36.3 8.8-53.4 16.5c-8.4 3.8-16.7 8-25.2 11.3c-11 4.3-21.3 2.6-29.8-6c-7.1-7.1-7.9-17.1-1.4-24.7 c3.7-4.4 8.4-8.3 13.4-11c15.1-8.1 30.6-15.6 45.9-23.3c15.8-7.9 32.2-15.1 45.6-26.9c8.8-7.8 16.3-17.1 24.1-26 c18.7-21.3 37.3-42.8 55.9-64.2C255.4 127.2 256.1 126.5 257.3 125.1z"/><path fill="#0B4F78" d="M59.2 312.4c-9.3 5.1-18.2 10.2-27.3 14.9c-3.1 1.6-6.9 3-10 0.4c-3.2-2.7-2.2-6.9-1.1-10.3 c2.1-6.5 4.3-13.1 7.3-19.3c11.9-25.1 24.3-49.9 41.5-71.8c11.3-14.3 23.6-27.7 35.5-41.5C156 126 207 67.1 257.8 8.1 c7.4-8.6 11.6-10.3 23.9-5.2c12 5.1 21.1 13.6 27.1 25.4c3.4 6.7 3.1 12.6-2.3 18.9c-45.1 51.6-89.7 103.5-134.9 154.9 c-5.9 6.7-14.1 12-22.1 16.4c-20.1 10.9-40.6 21.1-61.2 31C77 254.8 67.7 262.3 59 270.7c-8.2 7.9-9.8 23.7-3.8 35 C56.2 307.7 57.5 309.5 59.2 312.4z"/><path fill="#0B4F78" d="M357 319.6c-10.4-3.7-20.4-7.3-30.4-10.9c-6-2.2-11.9-4.5-18-6.5c-2.3-0.8-2.7-1.9-2.2-4 c7.4-37 14.8-73.9 22.1-110.9c0.9-4.7 1.9-9.4 2.9-14.3c22.8 0 45.4 0 68.6 0C385.6 222 371.3 270.6 357 319.6z"/></g></svg>