<svg xmlns="http://www.w3.org/2000/svg" xmlns:xlink="http://www.w3.org/1999/xlink" version="1.1" x="0px" y="0px" width="388.2px" height="400px" viewBox="0 0 388.2 400" enable-background="new 0 0 388.2 400" xml:space="preserve"><path fill-rule="evenodd" clip-rule="evenodd" fill="#0B4F78" d="M164.7 129.4c0-52 42.1-94.1 94.1-94.1s94.1 42.1 94.1 94.1 c0 52-42.1 94.1-94.1 94.1S164.7 181.4 164.7 129.4z M129.4 129.4c0 71.5 57.9 129.4 129.4 129.4c71.5 0 129.4-57.9 129.4-129.4 C388.2 57.9 330.3 0 258.8 0C187.4 0 129.4 57.9 129.4 129.4z M10.3 341.5C-3 354.7-3.4 376 9.1 389.7l0.6 0.6l0.6 0.6 c13.7 12.5 35 12.1 48.3-1.2l115-128.6C152.7 247.9 144 239.9 132 222L10.3 341.5z"/></svg>