<svg xmlns="http://www.w3.org/2000/svg" xmlns:xlink="http://www.w3.org/1999/xlink" version="1.1" x="0px" y="0px" width="370.8px" height="400px" viewBox="0 0 370.8 400" enable-background="new 0 0 370.8 400" xml:space="preserve"><g><path fill="#0B4F78" d="M285.9 73.8c20.4 0 36.9-16.5 36.9-36.9c0-20.3-16.5-36.9-36.9-36.9C265.5 0 249 16.5 249 36.9 C249 57.2 265.5 73.8 285.9 73.8z"/><path fill="#0B4F78" d="M124.6 232.6l-21.8 30.3H23.2c-0.1 0-0.2 0-0.2 0c-12.6 0-22.9 9.5-23 22.1c-0.1 12.7 10.1 23.1 22.8 23.2 h91.9c0.1 0 0.1 0 0.2 0c7.6 0 15.6-4 20.8-11.8l21.3-31.4C156.9 265 126.8 244.6 124.6 232.6z"/><path fill="#0B4F78" d="M354 166.5l-55.9-6.9L273.3 104c-0.5-1.2-1.2-2.3-1.9-3.4c-0.5-1.1-1.1-2.1-1.9-2.7l-33.2-22.3 c-2.3-2-5.1-3.5-8.3-4.2l-66.5-14.5c-5.1-1.1-10.4-0.1-14.8 2.9l-61.9 41.7c-8.8 5.9-11.1 17.8-5.2 26.6c3.8 5.6 10.1 8.6 16.4 8.5 c3.5-0.1 7.1-1.2 10.2-3.3l55.1-37.1l37.8 8.2L148.1 180c-11.7 20.2-15.6 35.8 5.5 53.7l23.8 14.6l48.6 33.3l-38.4 86.1 c-5.2 11.6 0 25.2 11.6 30.3c3 1.4 6.2 2 9.3 2c8.8 0 17.2-5.1 21-13.6l46.2-103.6c4.5-10.1 1.1-22-8-28.3l-58.1-39.8l41.5-66.5 l16.5 36.9c2.7 6.1 8.5 10.4 15.1 11.2l66.6 8.2c0.8 0.1 1.6 0.1 2.4 0.1c9.5 0 17.8-7.1 19-16.8C372 177.3 364.5 167.7 354 166.5z "/></g></svg>