<svg xmlns="http://www.w3.org/2000/svg" xmlns:xlink="http://www.w3.org/1999/xlink" version="1.1" x="0px" y="0px" viewBox="0 0 400 400" enable-background="new 0 0 400 400" xml:space="preserve"><g><g><g><path fill="#B86125" d="M371.5 396.3H28.7c-2.8 0-25-2.2-25-31V32.5C3 19 26.9 3.5 29.7 3.5h338.9c2.8 0 28 22.2 28 25v340.9 C396.5 372.1 374.3 396.3 371.5 396.3z"/><path fill="#5C3113" d="M360.8 399.9H39.4c-21.7 0-39.3-17.6-39.3-39.3V39.2c0-21.7 17.6-39.3 39.3-39.3h321.4 c21.7 0 39.3 17.6 39.3 39.3v321.4C400.1 382.3 382.5 399.9 360.8 399.9z M39.4 7.1C21.6 7.1 7.2 21.5 7.2 39.2v321.4 c0 17.7 14.4 32.1 32.1 32.1h321.4c17.7 0 32.1-14.4 32.1-32.1V39.2c0-17.7-14.4-32.1-32.1-32.1C360.7 7.1 39.4 7.1 39.4 7.1z"/></g></g></g><g><path fill="#FFFFFF" d="M272.1 263.8c-34.9-12.7-46-23.4-46-46.4c0-13.8 10.6-9.3 15.3-34.5c1.9-10.5 11.3-0.2 13.1-24.1 c0-9.5-5.1-11.9-5.1-11.9s2.6-14.1 3.6-24.9c1.3-13.5-7.8-48.4-56.2-48.4s-57.5 34.9-56.2 48.4c1 10.8 3.6 24.9 3.6 24.9 s-5.1 2.4-5.1 11.9c1.8 23.9 11.2 13.6 13.1 24.1c4.7 25.2 15.3 20.7 15.3 34.5c0 22.9-11.1 33.7-46 46.4 c-35 12.7-57.7 25.7-57.7 34.6c0 8.9 0 29.8 0 29.8h132.9h132.9c0 0 0-20.9 0-29.8C329.8 289.5 307.1 276.5 272.1 263.8z"/></g></svg>