<svg xmlns="http://www.w3.org/2000/svg" xmlns:xlink="http://www.w3.org/1999/xlink" version="1.1" x="0px" y="0px" width="400px" height="400px" viewBox="0 0 400 400" enable-background="new 0 0 400 400" xml:space="preserve"><g><g><g><path fill="#0B4F78" d="M355.6 44.4h-20v44.4h-71.1V44.4H135.6v44.4H64.4V44.4h-20C20 44.4 0 64.4 0 88.9v266.7 C0 380 20 400 44.4 400h311.1c24.4 0 44.4-20 44.4-44.4V88.9C400 64.4 380 44.4 355.6 44.4z M355.6 355.6H44.4V137.8h311.1V355.6 z M115.6 0H84.4v75.6h31.1V0z M315.6 0h-31.1v75.6h31.1V0z"/></g></g><g><path fill="#0B4F78" d="M109.9 263.5l12.4 3.1l9.3-14.6l-17.7-4.4c-4.4-1.1-8.9 1.6-10 6C102.8 258 105.5 262.5 109.9 263.5z M271.6 265.8l-40.5 36.5l-47.7-36.9c-0.9-0.7-2-1.2-3.1-1.5l-6.4-1.6l-9.3 14.7l10 2.5l51.8 40c1.5 1.2 3.3 1.7 5.1 1.7 c2 0 4-0.7 5.5-2.1l45.7-41.2c3.4-3 3.6-8.3 0.6-11.6C280.2 263 275 262.8 271.6 265.8z M182.5 225.8l44.4 28.4 c3.8 2.4 8.7 1.4 11.3-2.2l45.7-65.9c2.6-3.7 1.6-8.9-2.1-11.4c-3.8-2.6-8.9-1.6-11.5 2.1L229.2 236l-44.7-28.6 c-1.9-1.2-4.1-1.6-6.2-1.1c-2.1 0.5-4 1.8-5.2 3.6L105 317c-2.4 3.8-1.3 8.9 2.6 11.4c1.4 0.9 2.9 1.3 4.4 1.3 c2.7 0 5.4-1.4 7-3.8L182.5 225.8z"/></g></g></svg>