<svg xmlns="http://www.w3.org/2000/svg" xmlns:xlink="http://www.w3.org/1999/xlink" version="1.1" x="0px" y="0px" width="343.8px" height="400px" viewBox="0 0 343.8 400" enable-background="new 0 0 343.8 400" xml:space="preserve"><g><path fill="#0B4F78" d="M81.8 259.8c-1.2 3.2-2.3 6.6-3.5 10c16.8 3.5 28.1 8.3 35.6 13.1c1.9-9 4.3-18.3 7-27.6 C104.7 254.7 91.4 257 81.8 259.8z M67.7 306.1c16.8-6.5 33.8-8.4 43.4-8.9c0.3-1.6 0.6-3.2 0.9-4.8c-12.6-7.6-25.6-11.6-36.6-13.7 C72.7 287.3 70.2 296.5 67.7 306.1z M84.9 251.6c16.5-3.1 32.8-2.1 37.8-1.7c0.1-0.2 0.1-0.4 0.2-0.6 c-11.5-6.4-22.5-10.4-31.7-12.9C89.1 241.1 87 246.2 84.9 251.6z M65 317.3c-0.9 3.9-1.8 8-2.6 12.1c20 5.6 33.6 15.6 42.1 23.9 c-0.1 2.8-0.3 5.6-0.3 8.2c-14.2-13.3-30.2-20.1-43.5-23.5c-2.4 12.2-4.5 25.1-6.3 38.8c20.4-13.6 49-15.3 49.8-15.3 c-0.1 2.5-0.1 4.8-0.2 7c-25.2 4.7-40.3 13-48.8 19.5c5.4 5.9 21.8 19.7 50 6.2c0 0-3.2-39.5 4.8-90 C89.6 307.5 74.9 312.8 65 317.3z M273.1 96.8c6.9-1.4 20.4-3.2 32.5 1.1c0 0-1.1-7.4-9.8-13.7c11.3 0.5 25.6 6.9 41.7 26.9 c0 0-8.6-87.7-77.7-69.7c2.8-10.5 10.7-19 10.7-19c-23.6-1.5-35.8 6-41.4 11.3c-10.2-23-39.3-55.5-119.3-13.2 c0 0 30.3-4.5 54.1 7.3c-8.5 0.1-13.8 2-13.8 2c12.5 3.5 16.3 11 17.2 16.8C134.1 29.4 69.2 11.5 0 80c0 0 57.4-22.7 99.1-16 c-6.7 1.6-13.6 4.4-19 8.9c0 0 18.5-1.2 36.4 8.2c-27.4-5.9-77.3-5.9-104.7 61.1c0 0 21.7-17.6 48.4-24.8 c-6.3 4.8-12.6 12.4-14.3 24c0 0 31.7-21.6 59.4-13.1c-19.1 4.2-55.8 18.5-69.6 68.1c0 0 33.7-39.8 78.5-31.5 c0 0-29.6 4.9-31.1 65.6c0 0 9-15.9 25.4-28.4c-3 5.1-6.1 10.7-9.1 16.8c13.9-1.6 23.2-1.8 29.3-1.5c-2 1.8-4.2 3.6-6.7 5.4 c-10 0.1-18.8 1-25.4 1.9c-0.8 1.7-1.6 3.4-2.4 5.1c13.7 4.1 23.6 9.2 30.6 14c2.4-6.9 5-13.8 7.9-20.7c-0.5 0-1 0-1.5-0.1 c9-0.6 23.7-3.4 40-13.6c1.3 10.9-0.4 26.8-9.5 49.6c0 0 41.3-19 37.9-65.3c4.6 2.2 12.5 9.6 2.4 34.3c0 0 10.5-3 20.1-19.5 c7.3 14.2 11.2 32.3 1.8 52c0 0 47.4-25.1 22.4-78.1c5.2 2.9 11.8 8.6 15.9 19.7c0 0 5.2-11.2 2.1-25.4c9.9 10.6 17.5 28 13.8 56.8 c0 0 51.2-51.8-2.7-92.4c6.2 0.9 17 4.6 27.5 17.8c0 0-0.1-5-3.5-12.7c14.7 13 26.5 33.9 25.6 67.5C325 213.8 392 132.7 273.1 96.8 z M132.4 213.9c-8.9-4.8-17.7-7.6-24.2-9.4c1-1.5 2-3 3-4.4c0 0 0.1-0.1 0.1-0.1c10.9 3.1 19 6.5 25.1 9.8 C135.1 211.2 133.8 212.5 132.4 213.9z M142.6 201.9c0.6-1.1 1.1-2.2 1.7-3.2c-11.2-1.3-21.3-1.5-28.9-1.4c3-1.9 6.3-3.6 9.7-5 c9.8 0.2 17 1.3 21.5 2.2C145.7 196.7 144.4 199.2 142.6 201.9z M147.2 193c-3.1-1.7-6.2-3.2-9.4-4.6c2.7-0.5 5.5-0.9 8.4-1 c0.7 0.4 1.5 0.9 2.2 1.3C148.1 190 147.7 191.4 147.2 193z"/></g></svg>