<svg xmlns="http://www.w3.org/2000/svg" xmlns:xlink="http://www.w3.org/1999/xlink" version="1.1" x="0px" y="0px" viewBox="0 0 400 388.4" enable-background="new 0 0 400 388.4" xml:space="preserve"><g><path fill="#0B4F78" d="M109 75.4c8.3 0 17-6.8 17-15.1V15.1C126 6.8 117.3 0 109 0S92 6.8 92 15.1v45.2 C92 68.6 100.7 75.4 109 75.4z"/><path fill="#0B4F78" d="M356.9 34.4H320v25.9c0 16.6-11.9 30.1-28.5 30.1c-16.6 0-28.5-13.5-28.5-30.1V34.4H138v25.9 c0 16.6-12.4 30.1-29 30.1S80 76.9 80 60.3V34.4H55.5c-25 0-55.5 16-55.5 41v271.3c0 25 30.5 41.7 55.5 41.7h301.4 c25 0 43.1-16.8 43.1-41.7V75.4C400 50.4 381.9 34.4 356.9 34.4z M366 346.6c0 8.3-0.8 18.7-9.1 18.7H55.5 c-8.3 0-20.5-10.4-20.5-18.7V137.4h331V346.6z"/><path fill="#0B4F78" d="M292 75.4c8.3 0 17-6.8 17-15.1V15.1C309 6.8 300.3 0 292 0s-17 6.8-17 15.1v45.2 C275 68.6 283.7 75.4 292 75.4z"/></g></svg>