<svg xmlns="http://www.w3.org/2000/svg" xmlns:xlink="http://www.w3.org/1999/xlink" version="1.1" x="0px" y="0px" width="400px" height="400px" viewBox="0 0 400 400" enable-background="new 0 0 400 400" xml:space="preserve"><g><path fill="#C4262E" d="M200 0C89.7 0 0 89.7 0 200c0 110.3 89.7 200 200 200c110.3 0 200-89.7 200-200C400 89.7 310.3 0 200 0z M200 364.4c-90.8 0-164.4-73.6-164.4-164.4c0-90.8 73.6-164.4 164.4-164.4S364.4 109.2 364.4 200 C364.4 290.8 290.8 364.4 200 364.4z"/><circle fill="#C4262E" cx="138.6" cy="163.8" r="30.3"/><circle fill="#C4262E" cx="263" cy="163.8" r="30.3"/><path fill="#C4262E" d="M197.6 253c-61.1 0-90 28.9-91.2 30.1c-3.7 3.8-3.7 10 0.2 13.7c3.8 3.7 10 3.7 13.7-0.2 c0.2-0.2 24.3-24.2 77.3-24.2c51.5 0 82.6 24.7 82.9 25c1.8 1.5 4 2.2 6.2 2.2c2.8 0 5.6-1.2 7.5-3.5c3.4-4.1 2.8-10.3-1.3-13.7 C291.4 281.2 256.4 253 197.6 253z"/></g></svg>