<svg xmlns="http://www.w3.org/2000/svg" xmlns:xlink="http://www.w3.org/1999/xlink" version="1.1" x="0px" y="0px" width="323px" height="400px" viewBox="0 0 323 400" enable-background="new 0 0 323 400" xml:space="preserve"><g><path fill="#0B4F78" d="M322.9 244.9c-3.2-75.4-57.6-113.6-72.2-113.6c-15.3 0-53.1 8.6-89.2 9.6c-38.2 1.1-72-9.6-83.9-9.6 c-11.9 0-74.3 23.4-77.5 108.3c3.2 85 66.9 150.8 79.7 156.1c12.7 5.3 51-3.2 80.7-3.2c29.7 0 64.8 7.4 75.4 7.4 C246.4 400 326.1 320.3 322.9 244.9z"/><path fill="#0B4F78" d="M135.3 119.5c13.4-2.2 63.8-30.1 76.4-46.9c-5.2 13.2-31.9 39.6-40.8 46.2c8.2 4.4 54.2-2.2 74.2-27.1 s20-57.2 2.2-91.6c0 0-5.2 18.3-58.6 35.2s-66.8 40.3-69 57.9S118.2 116.6 135.3 119.5z"/></g></svg>