<svg xmlns="http://www.w3.org/2000/svg" xmlns:xlink="http://www.w3.org/1999/xlink" version="1.1" x="0px" y="0px" viewBox="0 0 266.7 400" enable-background="new 0 0 266.7 400" xml:space="preserve"><g><path fill="#4D4E53" d="M166.7 377.9H100c-6.1 0-11.1 4.9-11.1 11c0 6.1 5 11 11.1 11h66.7c6.1 0 11.1-4.9 11.1-11 C177.8 382.8 172.8 377.9 166.7 377.9z"/><path fill="#4D4E53" d="M188.9 332.9H77.8c-6.1 0-10.7 5.4-10.7 11.5v11.1c0 6.1 4.5 11.4 10.7 11.4h111.1 c6.1 0 11.2-5.2 11.2-11.4v-11.1C200.1 338.3 195 332.9 188.9 332.9z"/><path fill="#4D4E53" d="M133.3 0C59.7 0 0 57.2 0 127.7c0 41.3 20.4 77.7 52.1 101.1l19.4 48.1h122.9l20.1-48.1 c31.7-23.4 52.1-59.9 52.1-101.2C266.7 57.1 207 0 133.3 0z"/><path fill="#4D4E53" d="M188.9 288.9H77.8c-6.1 0-10.7 4.9-10.7 11.1v11.1c0 6.1 4.5 10.8 10.7 10.8h111.1 c6.1 0 11.2-4.7 11.2-10.8V300C200.1 293.9 195 288.9 188.9 288.9z"/></g></svg>