<svg xmlns="http://www.w3.org/2000/svg" xmlns:xlink="http://www.w3.org/1999/xlink" version="1.1" x="0px" y="0px" width="313.5px" height="399.5px" viewBox="0 0 313.5 399.5" enable-background="new 0 0 313.5 399.5" xml:space="preserve"><g><g><path fill="#0B4F78" d="M181.6 327H47.2c-6.7 0-11.2-5-11.2-11.7V109h71V36h134.3c6.7 0 10.7 5.7 10.7 12.4V214h37V24.1 C289 10.7 278.9 0 265.5 0H95.7L0 96.9v242.6C0 352.9 9.5 364 22.9 364h128.9L181.6 327z"/></g><g><path fill="#0B4F78" d="M298.6 388.8c-3.3-1.9-7.7-6.5-12.6-13.7l-9.7-13.9l-26.2-37.8l-10.4-15.1l13.7-17.2l21.4-26.9 c5.5-6.8 10.6-12 15-15.6c2.2-1.8 4.3-3.3 6.2-4.3c3.6-1.9 8.5-2.9 15.3-3.1v-5.6h-56.9v5.6c6.8 0.1 8.9 0.5 11 1.2 c3.5 1.2 4.9 3.6 4.9 7.1c0 1.4-0.6 3-1.4 4.8c-1.4 2.9-4.2 6.8-8.2 11.6l-7.2 8.7l-1 1.2l-19.2 23.3l-13.3-19.3l-8.5-12.2 L198.1 249h-0.2l-24.5-33.9c13.5-2 24.2-6.3 32.1-12.8c7.9-6.5 11.8-15.8 11.8-27.9c0-18-8.9-29.8-26.6-36.5 c-9.3-3.6-21-4.7-35-4.7H90.4v3.3c9.1 0.7 14.3 2.4 16.8 5.1c2.6 2.6 3.6 8.3 3.6 16.8v105.4c0 10.1-0.9 16.5-3.2 19.3 c-2.3 2.8-8.2 4.6-17.3 5.4v4.2h68.3v-4.2c-9.1-0.8-15.6-2.4-18.3-4.8c-2.7-2.4-4.5-8.1-4.5-17.1v-48l9.7-0.6l21.5 29.8 c0.1 0.5 0 0.5 0.1 0.4c0 0 0 0 0 0c4.8 4.4 12.7 15 23.9 31.4l10.8 16v0.1l15.8 23l-6.9 8.6l0 0l-29.3 36.4l0 0.1l-1.1 1.4 c-10.1 12.5-16.9 20.1-20.2 22.8s-8.1 4.4-14.9 5.1v6.4H202v-6.4c-4.6-0.4-10.3-1-12.7-1.9c-4.1-1.4-6.3-3.9-6.3-7.4 c0-1.9 1.2-4.7 3.8-8.6c1.7-2.4 4.5-6.2 8.6-11.5c0 0 0 0 0-0.1l0 0l28.5-35.8c10.9 16 18.9 27.9 24.2 35.9c0 0 0 0 0 0.1 c2.6 4 4.5 6.9 5.7 8.9c3.6 5.9 5.4 10.1 5.4 12.7c0 3-0.3 5-3 6c-2.7 1-6.5 1.6-13.3 1.8v6.4h70.6v-6.4 C309 392.2 301.8 390.8 298.6 388.8z M136 209.5v-59.9c0-3.6-0.2-6 1.3-6.9c1.5-1 5.3-1.5 12.2-1.5c10.2 0 18.1 1.4 24.3 4.1 c11.6 5.1 17.2 14.8 17.2 28.8c0 14.6-5.5 24.6-18.4 29.9C165 207 151.9 208.9 136 209.5z"/></g></g></svg>