<svg xmlns="http://www.w3.org/2000/svg" xmlns:xlink="http://www.w3.org/1999/xlink" version="1.1" x="0px" y="0px" width="430px" height="380px" viewBox="0 0 430 380" enable-background="new 0 0 430 380" xml:space="preserve"><g><g><path fill="#0B4F78" stroke="#0B4F78" stroke-width="30" stroke-linecap="round" stroke-linejoin="round" stroke-miterlimit="10" d=" M365 15H65c-27.6 0-50 22.4-50 50v166.7c0 27.6 22.4 50 50 50h50l33.3 83.3l33.3-83.3H365c27.6 0 50-22.4 50-50V65 C415 37.4 392.6 15 365 15z"/><g><path fill="#FFFFFF" d="M315 130H115c-8.3 0-15-6.7-15-15s6.7-15 15-15h200c8.3 0 15 6.7 15 15S323.3 130 315 130z"/></g><g><path fill="#FFFFFF" d="M281.7 196.7H115c-8.3 0-15-6.7-15-15s6.7-15 15-15h166.7c8.3 0 15 6.7 15 15S290 196.7 281.7 196.7z"/></g></g></g></svg>