<svg xmlns="http://www.w3.org/2000/svg" xmlns:xlink="http://www.w3.org/1999/xlink" version="1.1" x="0px" y="0px" viewBox="0 0 320 400" enable-background="new 0 0 320 400" xml:space="preserve"><g><path fill-rule="evenodd" clip-rule="evenodd" fill="#0B4F78" d="M120 40h146.7c7.4 0 13.3 6 13.3 13.3v293.3 c0 7.4-6 13.3-13.3 13.3H53.3C46 360 40 354 40 346.7V120h80V40z M0 106.7v266.7C0 388.1 11.9 400 26.7 400h266.7 c14.7 0 26.7-11.9 26.7-26.7V26.7C320 11.9 308.1 0 293.3 0H106.7L0 106.7z M80 226.7v26.7h80v-26.7H80z M80 280v26.7h160V280H80z M80 173.3V200h133.3v-26.7H80z"/></g></svg>