<svg xmlns="http://www.w3.org/2000/svg" xmlns:xlink="http://www.w3.org/1999/xlink" version="1.1" x="0px" y="0px" viewBox="0 0 400 400" enable-background="new 0 0 400 400" xml:space="preserve"><g><path fill="#FFFFFF" d="M200 46.7c-93.6 0-169.4 75.1-169.4 167.8c0 55.6 27.4 104.9 69.4 135.5l-12.3 35.8 c-1.2 3.2-0.7 10.1 6.4 13.2c7.1 3.1 12.6-1.3 14.2-4.4l16.3-29.8c22.7 11.2 48.3 17.6 75.4 17.6c27.1 0 52.7-6.3 75.4-17.6 l16.3 29.8c1.6 3.1 7 7.5 14.2 4.4c7.1-3.1 7.6-10 6.4-13.2L300 350c42.1-30.5 69.4-79.8 69.4-135.5 C369.4 121.9 293.6 46.7 200 46.7z M202 342.5V331c0-1.1-0.9-1.9-2-1.9c-1.1 0-2 0.9-2 1.9v11.5C128 341.5 71.9 286 70.8 216h11.6 c1.1 0 1.9-0.9 1.9-2s-0.9-2-1.9-2H70.8C71.9 144 128 87.5 198 86.6v11.5c0 0.9 1.1 1.7 2 1.7s2-0.8 2-1.7V86.6 C272 87.5 328.1 144 329.2 212h-11.6c-1.1 0-1.9 0.9-1.9 2s0.9 2 1.9 2h11.6C328.1 286 272 341.5 202 342.5z"/><path fill="#FFFFFF" d="M200-0.2c-17.3 0-31.3 12.2-31.3 28.2h62.6C231.3 14 217.3-0.2 200-0.2z"/><path fill="#FFFFFF" d="M372.5 27.6c-27.2-26.9-66-32-93.2-5.1l98.3 97.4C404.8 92.9 399.7 54.5 372.5 27.6z"/><path fill="#FFFFFF" d="M27.5 27.6C0.3 54.5-4.8 92.9 22.3 119.8l98.3-97.4C93.5-4.4 54.6 0.7 27.5 27.6z"/><path fill="#FFFFFF" d="M224.6 215.8c0-0.4 0.1-0.8 0.1-1.2c0-8.5-4.4-16-11-20.3l-3.5-77.5c-0.2-3.6-3.1-10-10.2-10 c-7.1 0-10 6.4-10.2 10l-4 78c-6.3 4.4-10.3 11.6-10.3 19.8c0 13.5 11 24.4 24.6 24.4c1 0 2-0.1 3-0.2l47.4 41.6 c2.7 2.4 9.6 4.5 15.4-1.1c5.7-5.7 3.5-12.5 1.1-15.2L224.6 215.8z"/></g></svg>