

<svg xmlns="http://www.w3.org/2000/svg" xmlns:xlink="http://www.w3.org/1999/xlink" version="1.1" x="0px" y="0px" viewBox="0 0 399.8 349.7" enable-background="new 0 0 399.8 349.7" xml:space="preserve"><g><path fill="#0B4F78" d="M203.9 245.7c-39.3-16.4-50.9-30.3-50.9-59.9c0-17.8 12.4-12 17.7-44.6c2.2-13.5 13-0.2 15-31.1 c0-12.3-5.7-15.4-5.7-15.4s3-18.2 4.1-32.2C185.6 45.1 175.4 0 120.8 0C66.3 0 56.1 45.1 57.6 62.6c1.1 14 4.1 32.2 4.1 32.2 s-5.8 3.1-5.8 15.4c2 30.9 12.6 17.6 14.8 31.1c5.3 32.6 17.3 26.8 17.3 44.6c0 29.6-13.9 43.5-53.1 59.9 c-12 5-34.8 12.8-34.8 31.4v72.6h275c0 0 0-43 0-54.4C275 278.2 243.3 262.2 203.9 245.7z"/><path fill="#0B4F78" d="M399.8 349.7c0 0-0.8-75.3-5.4-83.1c-6.8-11.6-22.8-19.6-52.3-32c-29.5-12.3-38.9-22.7-38.9-45 c0-13.4 9-9 12.9-33.5c1.6-10.1 9.6-0.2 11.1-23.3c0-9.2-4.3-11.5-4.3-11.5s2.2-13.7 3.1-24.2c1.1-13.1-6.6-46.9-47.5-46.9 c-40.9 0-48.6 33.8-47.5 46.9c0.9 10.5 3.1 24.2 3.1 24.2s-4.3 2.3-4.3 11.5c1.5 23.1 9.5 13.2 11.1 23.3 c3.9 24.4 12.9 20.1 12.9 33.4c0 15.1-4.6 24.8-16.6 33.3c64.4 32.2 72.8 38.8 72.8 67.6v59.2H399.8z"/></g></svg>