<svg xmlns="http://www.w3.org/2000/svg" xmlns:xlink="http://www.w3.org/1999/xlink" version="1.1" x="0px" y="0px" viewBox="0 0 400 400" enable-background="new 0 0 400 400" xml:space="preserve"><g><g><g><path fill="#B86125" d="M371.5 396.3H28.7c-2.8 0-25-2.2-25-31V32.5C3 19 26.9 3.5 29.7 3.5h338.9c2.8 0 28 22.2 28 25v340.9 C396.5 372.1 374.3 396.3 371.5 396.3z"/><path fill="#5C3113" d="M360.8 399.9H39.4c-21.7 0-39.3-17.6-39.3-39.3V39.2c0-21.7 17.6-39.3 39.3-39.3h321.4 c21.7 0 39.3 17.6 39.3 39.3v321.4C400.1 382.3 382.5 399.9 360.8 399.9z M39.4 7.1C21.6 7.1 7.2 21.5 7.2 39.2v321.4 c0 17.7 14.4 32.1 32.1 32.1h321.4c17.7 0 32.1-14.4 32.1-32.1V39.2c0-17.7-14.4-32.1-32.1-32.1H39.4z"/></g></g></g><g><path fill="#FFFFFF" d="M183.3 216.3c-21.6-21.6-42.2-46.6-32.3-56.5c14.2-14.2 26.5-22.9 1.4-54.1c-25.1-31.2-41.8-7.2-55.5 6.5 C81.1 128 96.1 187 154.3 245.3c58.3 58.3 117.3 73.3 133.1 57.4c13.7-13.7 37.7-30.4 6.5-55.5c-31.2-25.1-39.9-12.8-54.1 1.4 C229.9 258.5 204.9 237.9 183.3 216.3z"/></g></svg>