<svg xmlns="http://www.w3.org/2000/svg" xmlns:xlink="http://www.w3.org/1999/xlink" version="1.1" x="0px" y="0px" width="400px" height="324.4px" viewBox="0 0 400 324.4" enable-background="new 0 0 400 324.4" xml:space="preserve"><g><path fill="#0B4F78" d="M242.6 132.5c-0.7-12 7.9-50.8-12.7-83.1C175.6-35.8 1.9-9.1 0 116.9c-0.9 58.8 34.9 79.4 41.6 115.5 c5.3 28.2-1.4 59.3-15.6 91.9h129.2c1.4-22.3 8.1-65.8 26.9-63c36.5 5.5 67.7 11.2 57.2-35.9c8.3 0 11.9-8.4 4.9-12.9 c7.2 0.1 8.7-7 3.8-11.9c0-7 27.6 0.4 13.5-24.3C255.3 165.5 243.6 149.9 242.6 132.5z"/><path fill="#0B4F78" d="M280.7 201.7C280.7 201.7 280.7 201.7 280.7 201.7l62.8 0.6c9.6-0.1 15.5-11.2 15.5-22 c-0.1-13.6-9-22.7-22.1-22.7c-13.4 0-19.7 9.6-21.2 14.7c-0.9 3.2 0.9 6.5 4 7.5c3.2 1 6.6-0.8 7.6-4c0.3-1 2.4-6.1 9.5-6.1 c5.5 0 8.7 2.4 9.6 7.6c1.3 6.5-1.7 12.7-3.1 13.4l-62.8 0c-3.4 0-6.1 2.4-6.1 5.8C274.7 199.6 277.4 201.7 280.7 201.7z"/><path fill="#0B4F78" d="M377.9 182.5c-13.4 0-19.7 9.6-21.2 14.7c-0.9 3.2 0.9 6.6 4.1 7.5c3.2 0.9 6.6-0.9 7.5-4.1 c0-0.1 1.8-6 9.5-6c5.5 0 8.7 2.4 9.6 7.6c1.3 6.5-1.7 12.7-3.1 13.3l-80.6-0.1c-3.4 0-6.1 2.2-6.1 5.6c0 3.4 2.7 5.1 6.1 5.1 c0 0 0 0 0 0l80.6 0.9c9.6-0.1 15.5-10.8 15.5-21.6C399.9 191.6 391 182.5 377.9 182.5z"/><path fill="#0B4F78" d="M360.2 235.1l-87.7-1c0 0 0 0 0 0c-3.4 0-6.1 3.6-6.1 6.9s2.7 6.9 6.1 6.9l87.4 0.1c1.7 0.7 4.6 7 3.4 13.5 c-1 5.1-4.1 7.6-9.6 7.6c-7.2 0-9.2-5-9.5-5.9c-0.9-3.2-4.3-5.1-7.5-4.1c-3.2 0.9-5.1 4.3-4.1 7.5c1.5 5.1 7.8 14.7 21.2 14.7 c13.1 0 22-9.6 22.1-23.2C375.9 247.4 370 235.2 360.2 235.1z"/></g></svg>