<svg xmlns="http://www.w3.org/2000/svg" xmlns:xlink="http://www.w3.org/1999/xlink" version="1.1" x="0px" y="0px" width="400px" height="400px" viewBox="0 0 400 400" enable-background="new 0 0 400 400" xml:space="preserve"><g><path fill="#0B4F78" d="M372.3 30.2c-38.7-38.4-92.7-40.4-128.5-4.9l-25.2 25c-9.7 9.6-9.8 25.3-0.1 35c9.6 9.7 25.3 9.8 35.1 0.1 l25.2-25c18.5-18.4 42.8-10.8 58.6 4.9c8.4 8.4 13.1 19.5 13.1 31.3c0 11.8-4.6 22.9-13.1 31.3l-79.5 78.9 c-36.3 36.1-53.4 19.1-60.7 11.9c-9.7-9.6-25.4-9.6-35 0.1c-9.6 9.7-9.6 25.4 0.1 35c16.7 16.6 35.7 24.8 55.7 24.8 c24.4 0 50.3-12.3 74.8-36.7l79.5-78.8c17.9-17.7 27.7-41.4 27.7-66.5C400 71.6 390.2 48 372.3 30.2z"/><path fill="#0B4F78" d="M146.5 317.4l-20.2 20.1c-17.5 17.4-46.1 17.4-63.6 0c-8.4-8.4-13.1-19.5-13.1-31.3s4.6-22.9 13.1-31.3 l74.5-73.9c15.4-15.3 44.5-37.9 65.7-16.9c9.7 9.6 25.4 9.6 35-0.1c9.6-9.7 9.6-25.4-0.1-35c-36-35.7-89.2-29.1-135.5 16.9 l-74.5 73.9C9.8 257.4 0 281.1 0 306.2c0 25.1 9.8 48.7 27.7 66.5C46.1 390.9 70.3 400 94.4 400c24.2 0 48.3-9.1 66.7-27.4 l20.3-20.1c9.7-9.6 9.8-25.3 0.1-35C171.9 307.8 156.2 307.7 146.5 317.4z"/></g><g></g><g></g><g></g><g></g><g></g><g></g><g></g><g></g><g></g><g></g><g></g><g></g><g></g><g></g><g></g></svg>