<svg xmlns="http://www.w3.org/2000/svg" xmlns:xlink="http://www.w3.org/1999/xlink" version="1.1" x="0px" y="0px" width="400px" height="400px" viewBox="0 0 400 400" enable-background="new 0 0 400 400" xml:space="preserve"><g><path fill-rule="evenodd" clip-rule="evenodd" fill="#0B4F78" d="M200 0C89.5 0 0 89.5 0 200c0 110.5 89.5 200 200 200 c110.5 0 200-89.5 200-200C400 89.5 310.5 0 200 0z M200 364.4c-90.7 0-164.4-73.8-164.4-164.4S109.3 35.6 200 35.6 S364.4 109.3 364.4 200S290.7 364.4 200 364.4z"/><polygon fill-rule="evenodd" clip-rule="evenodd" fill="#0B4F78" points="168.5,213.2 130.9,175.6 93.8,212.7 131.3,250.4 168.4,287.5 306.2,149.6 269.1,112.5"/></g></svg>