<svg xmlns="http://www.w3.org/2000/svg" xmlns:xlink="http://www.w3.org/1999/xlink" version="1.1" x="0px" y="0px" viewBox="0 0 400 400" enable-background="new 0 0 400 400" xml:space="preserve"><g><g><path fill="#0B4F78" d="M17.4 254.6c-0.9 0.8-1.3 1.3-1.9 1.7c-24.1 17.2-16.3 46.2-2.2 60.3c2.3 2.3 5.7 3.9 8.9 4.6 c63.3 14.1 126.6 28.1 189.9 42c8.1 1.8 16 1.3 23.5-2.9c53.1-29.6 106.2-59.1 159.3-88.6c3.3-1.8 6.7-3.9 4.3-8.3 c-2.4-4.4-6.1-2.5-9.3-0.7c-0.6 0.3-1.2 0.7-1.9 1.1c-52.3 29.1-104.6 58.2-156.9 87.4c-4.9 2.8-10 3.6-15.6 2.4 c-17.5-3.8-35.1-7.4-52.7-11.2c-45.4-10-90.8-20-136.2-30.1c-2-0.5-4.2-1.2-5.9-2.5c-13.5-10.5-13.8-34.9-0.2-45.2 c3.4-2.6 8.5-4.1 12.8-4.1c6.6 0.1 13.1 1.9 19.6 3.3c53.1 11.2 106.1 22.5 159.2 33.7c8.7 1.8 16.9 0.8 24.9-3.7 c52.1-29.2 104.3-58.1 156.4-87.1c3.5-2 8.7-3.7 5.7-9c-3-5.3-7.2-1.8-10.7 0.2c-52.3 29.1-104.6 58.2-156.9 87.4 c-5.1 2.8-10.3 3.8-16.1 2.6c-17.5-3.8-35.1-7.4-52.7-11.2c-45.4-10-90.8-20-136.2-30.1c-2.2-0.5-4.6-1.4-6.3-2.8 c-12.5-10.5-13.2-32.3-1.5-43.6c4.6-4.4 9.9-6.6 16.7-5.2c22.3 4.6 44.8 8.7 67.2 13.1c8.4 1.6 16.7 3.3 25.5 5c0-3.7 0-6.5 0-9.5 c-1.9-0.5-3.6-0.9-5.4-1.3c-32.1-7.2-64.1-14.3-96.2-21.5c-2.2-0.5-4.6-1.4-6.3-2.8C7.8 167.2 7.1 145.2 18.8 134 c4.2-4 9-6.6 15.1-5.5c8.3 1.5 16.6 2.9 24.9 4.6c51.4 10.5 102.7 21.1 154.1 31.6c7 1.4 13.8 1.2 20.4-2.5 c51.7-28.7 103.4-57.4 155.2-86.1c1.6-0.9 3.1-2 5.8-3.8c-3.2-1.1-5-1.9-6.8-2.2c-60-11.2-120.1-22.3-180.1-33.6 c-8.4-1.6-15.8-0.4-23.4 3.4c-29.2 14.8-58.5 29.3-87.7 43.9C71.8 96 47.3 108.1 22.8 120.2c-16.1 8-24.5 21.4-22.6 37 c1.5 12.5 6.9 23.3 17 31.2C-5.5 211.6-5.5 233.9 17.4 254.6z M182 214.7c-1 9.9-1 9.9 7.9 11.8c7.2 1.6 14.4 3.2 21.5 4.8 c9.1 2.1 17.6 1 25.9-3.7c23.9-13.6 48-26.8 72-40.2c28.7-16 57.4-32 86.2-47.9c3.3-1.9 5.9-4.2 3.5-8.1c-2.2-3.6-5.4-2.6-8.5-0.8 c-0.6 0.4-1.2 0.7-1.9 1.1c-52.3 29.1-104.5 58.2-156.8 87.3c-5.4 3-10.9 4.1-17.1 2.7C204.1 219.1 193.2 217 182 214.7z"/><path fill="#0B4F78" d="M17.4 254.6c-23-20.7-23-43-0.2-66.1c-10.1-7.9-15.5-18.7-17-31.2c-1.9-15.6 6.4-29 22.6-37 c24.5-12.2 49-24.3 73.4-36.4c29.3-14.6 58.6-29.1 87.7-43.9c7.6-3.8 15-5 23.4-3.4c60 11.3 120.1 22.4 180.1 33.6 c1.8 0.3 3.6 1.2 6.8 2.2c-2.7 1.8-4.2 2.9-5.8 3.8c-51.7 28.7-103.5 57.3-155.2 86.1c-6.6 3.7-13.3 3.9-20.4 2.5 c-51.4-10.5-102.7-21.1-154.1-31.6c-8.3-1.7-16.6-3.1-24.9-4.6c-6.1-1.1-10.9 1.5-15.1 5.5c-11.7 11.2-11 33.2 1.5 43.6 c1.7 1.4 4.1 2.3 6.3 2.8c32 7.2 64.1 14.4 96.2 21.5c1.7 0.4 3.4 0.9 5.4 1.3c0 3 0 5.8 0 9.5c-8.8-1.7-17.1-3.4-25.5-5 c-22.4-4.3-44.8-8.5-67.2-13.1c-6.8-1.4-12 0.8-16.7 5.2c-11.7 11.2-11 33.1 1.5 43.6c1.7 1.4 4.1 2.3 6.3 2.8 c45.4 10.1 90.8 20.2 136.2 30.1c17.5 3.8 35.1 7.4 52.7 11.2c5.8 1.3 11 0.3 16.1-2.6c52.3-29.2 104.6-58.3 156.9-87.4 c3.5-1.9 7.7-5.5 10.7-0.2c3 5.3-2.1 7.1-5.7 9c-52.1 29-104.3 58-156.4 87.1c-8 4.5-16.2 5.6-24.9 3.7 C159 286.1 106 274.9 52.9 263.7c-6.5-1.4-13.1-3.2-19.6-3.3c-4.3-0.1-9.4 1.5-12.8 4.1c-13.6 10.3-13.3 34.7 0.2 45.2 c1.6 1.3 3.8 2 5.9 2.5c45.4 10.1 90.8 20.1 136.2 30.1c17.5 3.8 35.1 7.4 52.7 11.2c5.6 1.2 10.6 0.4 15.6-2.4 c52.3-29.1 104.6-58.2 156.9-87.4c0.6-0.3 1.2-0.7 1.9-1.1c3.3-1.8 6.9-3.7 9.3 0.7c2.4 4.4-1 6.4-4.3 8.3 c-53.1 29.5-106.2 59-159.3 88.6c-7.5 4.2-15.4 4.7-23.5 2.9c-63.3-13.9-126.6-27.9-189.9-42c-3.2-0.7-6.6-2.4-8.9-4.6 c-14.1-14.1-21.8-43.1 2.2-60.3C16.1 255.9 16.6 255.4 17.4 254.6z M294.2 84.6c-22.7-4.2-44-8.3-65.3-12.2 c-4.5-0.8-9.9-2.9-13.6-1.4c-13.5 5.7-26.4 12.7-39.8 19.3c0.6 0.6 0.7 0.8 0.9 0.8c25.2 5 50.4 10.1 75.6 15 c1.8 0.3 4-0.2 5.6-1.1C269.3 98.6 281 92 294.2 84.6z"/><path fill="#0B4F78" d="M182 214.7c11.2 2.3 22.1 4.4 32.9 6.9c6.2 1.4 11.6 0.4 17.1-2.7c52.2-29.1 104.5-58.2 156.8-87.3 c0.6-0.3 1.2-0.7 1.9-1.1c3-1.8 6.3-2.8 8.5 0.8c2.3 3.9-0.2 6.3-3.5 8.1c-28.7 16-57.4 32-86.2 47.9c-24 13.4-48.1 26.6-72 40.2 c-8.3 4.7-16.8 5.8-25.9 3.7c-7.2-1.6-14.4-3.2-21.5-4.8C181 224.6 181 224.6 182 214.7z"/><path fill="#FFFFFF" d="M294.2 84.6c-13.2 7.4-24.9 14-36.7 20.5c-1.6 0.9-3.9 1.4-5.6 1.1c-25.2-4.9-50.4-10-75.6-15 c-0.1 0-0.2-0.2-0.9-0.8c13.4-6.6 26.3-13.6 39.8-19.3c3.7-1.6 9.1 0.5 13.6 1.4C250.2 76.3 271.5 80.3 294.2 84.6z"/></g><polygon fill="#0B4F78" points="167,185.9 134,178.7 134,244.9 149.4,236.3 166,250"/></g></svg>