<svg xmlns="http://www.w3.org/2000/svg" xmlns:xlink="http://www.w3.org/1999/xlink" version="1.1" x="0px" y="0px" viewBox="0 0 400 364" enable-background="new 0 0 400 364" xml:space="preserve"><g><g><rect x="73" y="205" fill="#0B4F78" width="72" height="27"/><path fill="#0B4F78" d="M254 315.1c0 6.7-4.8 11.9-11.5 11.9H48.8c-6.7 0-12.8-5.3-12.8-11.9V109h73V37h133.5 c6.7 0 11.5 5 11.5 11.7v22.4l37-36V24.5C291 11.1 280.1 0 266.7 0H97.2L0 97.1v242.1C0 352.7 11.2 364 24.5 364h242.2 c13.3 0 24.3-11.3 24.3-24.7V216.2l-37 36V315.1z"/><rect x="73" y="159" fill="#0B4F78" width="86" height="23"/><rect x="73" y="255" fill="#0B4F78" width="145" height="22"/><path fill="#0B4F78" d="M232.6 206.7L232.6 206.7l-27.3 8.7l-6.5-6.5l9.8-28.4L308.8 80.4l-15.7-15.7l-92.8 92 c-4.5 0.3-8.5 3.1-10.1 7.6l-23.5 68.1c-1.4 4.1-0.4 8.5 2.6 11.6c2.2 2.2 5.1 3.4 8.1 3.4c1.1 0 2.3-0.2 3.4-0.5l67.3-21.2 c4.1-1.3 6.9-4.7 7.7-8.7l95.2-94.4l-17.2-17.2L232.6 206.7z"/><polygon fill="#0B4F78" points="228.6,201.4 329.2,101 312.5,84.3 211.9,184.7 226.5,188"/><polygon fill="#0B4F78" points="299.7,52.2 362.7,115.2 377.1,101.7 314.1,38.6"/><path fill="#0B4F78" d="M393.7 51.3l-30.2-30.2c-8.3-8.3-21.8-8.4-30-0.2l-9.3 9.4l60.4 60.4l9.3-9.4 C402.1 73.1 402.1 59.6 393.7 51.3z"/></g></g></svg>