<svg xmlns="http://www.w3.org/2000/svg" xmlns:xlink="http://www.w3.org/1999/xlink" version="1.1" x="0px" y="0px" width="391.3px" height="400px" viewBox="0 0 391.3 400" enable-background="new 0 0 391.3 400" xml:space="preserve"><g><g><path fill="#0B4F78" d="M195.7 86.5c71.3 0 129.2 57.4 129.2 128c0 70.6-58 128-129.2 128c-71.3 0-129.2-57.4-129.2-128 C66.4 143.9 124.4 86.5 195.7 86.5 M195.7 46.6c-93.6 0-169.4 75.1-169.4 167.8s75.9 167.8 169.4 167.8 c93.6 0 169.4-75.1 169.4-167.8S289.2 46.6 195.7 46.6L195.7 46.6z"/><path fill="#0B4F78" d="M195.7 0c-17.3 0-31.3 13.2-31.3 28.2H227C227 14.1 213 0 195.7 0L195.7 0z"/><path fill="#0B4F78" d="M368.2 27.5c-27.2-26.9-66-32-93.2-5.1l98.3 97.4C400.5 92.8 395.3 54.4 368.2 27.5L368.2 27.5z"/><path fill="#0B4F78" d="M23.1 27.5C-4 54.4-9.2 92.8 18 119.7l98.3-97.4C89.1-4.6 50.3 0.6 23.1 27.5L23.1 27.5z"/><g><path fill="#0B4F78" d="M195.7 190.1c-13.6 0-24.6 10.9-24.6 24.4c0 13.5 11 24.4 24.6 24.4c13.6 0 24.6-10.9 24.6-24.4 C220.3 201 209.2 190.1 195.7 190.1z"/></g><g><path fill="#0B4F78" d="M195.2 226.7C195.2 226.7 195.2 226.7 195.2 226.7c-8.7 0-15.2-6.8-14.8-14.7l4.9-95.4 c0.2-3.6 3.1-10 10.2-10c7.1 0 10 6.4 10.2 10l4.3 95.5C210.5 219.9 203.8 226.7 195.2 226.7z"/></g><g><path fill="#0B4F78" d="M187 204.9C187.1 204.9 187.1 204.8 187 204.9c7-6.9 17.2-7.4 22.4-1.4l53.1 60.5 c2.4 2.7 4.6 9.5-1.1 15.2c-5.7 5.7-12.7 3.5-15.4 1.1l-60.6-53.2C179.5 221.8 180.1 211.8 187 204.9z"/></g><g><path fill="#0B4F78" d="M288.3 328.7l19.7 57.1c1.2 3.2 0.7 10.1-6.4 13.2c-7.1 3.1-12.6-1.3-14.2-4.4l-29-53.1 C254.9 334.7 285.7 321.5 288.3 328.7z"/></g><g><path fill="#0B4F78" d="M103 328.7l-19.7 57.1c-1.2 3.2-0.7 10.1 6.4 13.2c7.1 3.1 12.6-1.3 14.2-4.4l29-53.1 C136.4 334.7 105.6 321.5 103 328.7z"/></g><g><path fill="#0B4F78" d="M195.7 99.8c-0.9 0-1.7-0.8-1.7-1.7V74.8c0-0.9 0.8-1.7 1.7-1.7s1.7 0.8 1.7 1.7v23.3 C197.4 99 196.6 99.8 195.7 99.8z"/></g><g><path fill="#0B4F78" d="M195.7 356.1c-1.1 0-1.9-0.9-1.9-1.9v-23.3c0-1.1 0.9-1.9 1.9-1.9s1.9 0.9 1.9 1.9v23.3 C197.6 355.2 196.7 356.1 195.7 356.1z"/></g><g><path fill="#0B4F78" d="M336.7 216.4h-23.5c-1.1 0-1.9-0.9-1.9-1.9s0.9-1.9 1.9-1.9h23.5c1.1 0 1.9 0.9 1.9 1.9 S337.8 216.4 336.7 216.4z"/></g><g><path fill="#0B4F78" d="M78.1 216.4H54.6c-1.1 0-1.9-0.9-1.9-1.9s0.9-1.9 1.9-1.9h23.5c1.1 0 1.9 0.9 1.9 1.9 S79.2 216.4 78.1 216.4z"/></g></g></g></svg>