<svg xmlns="http://www.w3.org/2000/svg" xmlns:xlink="http://www.w3.org/1999/xlink" version="1.1" x="0px" y="0px" width="402.2px" height="365px" viewBox="0 0 402.2 365" enable-background="new 0 0 402.2 365" xml:space="preserve"><g><g><rect x="238.7" y="201" fill="#0B4F78" width="161" height="160.8"/><polygon fill="#0B4F78" stroke="#FFFFFF" stroke-width="4.3452" stroke-linejoin="round" stroke-miterlimit="10" points="400,201.1 238.9,201.1 190.5,159.8 351.5,159.8"/><polygon fill="#0B4F78" stroke="#FFFFFF" stroke-width="4.3452" stroke-miterlimit="10" points="237.2,360.3 190.5,320.6 190.5,159.8 237.2,199.5"/><g><path fill="#FFFFFF" d="M359.2 298c0 2.8-0.7 5.8-2.1 9c-1.4 3.2-3.5 6.4-6.4 9.5c-2.9 3.1-6.7 5.6-11.2 7.6 c-4.6 1.9-9.9 2.9-15.9 2.9c-4.6 0-8.8-0.4-12.5-1.3c-3.8-0.9-7.2-2.2-10.3-4.1c-3.1-1.8-5.9-4.3-8.5-7.3 c-2.3-2.7-4.3-5.8-5.9-9.2c-1.6-3.4-2.8-7-3.7-10.8c-0.8-3.8-1.2-7.9-1.2-12.2c0-7 1-13.3 3.1-18.8c2-5.5 5-10.3 8.8-14.2 c3.8-3.9 8.3-6.9 13.4-9c5.1-2.1 10.6-3.1 16.3-3.1c7.1 0 13.3 1.4 18.8 4.2c5.5 2.8 9.7 6.3 12.7 10.4c2.9 4.1 4.4 8.1 4.4 11.7 c0 2-0.7 3.8-2.1 5.3c-1.4 1.5-3.2 2.3-5.2 2.3c-2.3 0-4-0.5-5.1-1.6c-1.1-1.1-2.4-2.9-3.8-5.5c-2.3-4.3-5-7.5-8.1-9.7 c-3.1-2.1-6.9-3.2-11.5-3.2c-7.3 0-13 2.8-17.3 8.3c-4.3 5.5-6.4 13.3-6.4 23.5c0 6.8 1 12.4 2.9 16.9c1.9 4.5 4.6 7.9 8.1 10.1 c3.5 2.2 7.6 3.3 12.2 3.3c5.1 0 9.4-1.3 12.9-3.8c3.5-2.5 6.2-6.2 7.9-11.1c0.8-2.3 1.7-4.2 2.8-5.6c1.1-1.4 2.9-2.2 5.3-2.2 c2.1 0 3.9 0.7 5.4 2.2C358.5 294 359.2 295.8 359.2 298z"/></g></g><rect x="50.5" y="201" fill="#0B4F78" width="161" height="160.8"/><rect x="211.4" y="201" fill="#FFFFFF" width="4.9" height="160.8"/><rect x="399.2" y="200.9" fill="#FFFFFF" width="2.9" height="160.8"/><polygon fill="#0B4F78" stroke="#FFFFFF" stroke-width="4.3452" stroke-linejoin="round" stroke-miterlimit="10" points="211.7,201.1 50.6,201.1 2.2,159.8 163.2,159.8"/><polygon fill="#0B4F78" stroke="#FFFFFF" stroke-width="4.3452" stroke-linejoin="round" stroke-miterlimit="10" points="48.9,360.3 2.2,320.6 2.2,159.8 48.9,199.5"/><g><path fill="#FFFFFF" d="M135.2 325.5h-26.6c-3.8 0-6.6-0.9-8.2-2.6c-1.6-1.7-2.5-4.5-2.5-8.2v-65.5c0-3.8 0.8-6.6 2.5-8.3 c1.7-1.7 4.4-2.5 8.2-2.5h28.2c4.2 0 7.8 0.3 10.8 0.8c3.1 0.5 5.8 1.5 8.2 3c2.1 1.2 3.9 2.8 5.5 4.7c1.6 1.9 2.8 4 3.6 6.2 c0.8 2.3 1.2 4.7 1.2 7.2c0 8.7-4.4 15.1-13.1 19.1c11.5 3.6 17.2 10.7 17.2 21.3c0 4.9-1.2 9.3-3.7 13.2 c-2.5 3.9-5.9 6.8-10.1 8.6c-2.7 1.1-5.7 1.9-9.2 2.3C143.8 325.3 139.8 325.5 135.2 325.5z M115.5 251.6v22.5h16.2 c4.4 0 7.8-0.4 10.2-1.2c2.4-0.8 4.2-2.4 5.5-4.8c1-1.7 1.5-3.5 1.5-5.6c0-4.4-1.6-7.3-4.7-8.8c-3.1-1.4-7.9-2.2-14.3-2.2H115.5z M133.9 286.8h-18.4v25.4h19c11.9 0 17.9-4.3 17.9-12.9c0-4.4-1.5-7.6-4.6-9.6C144.7 287.8 140 286.8 133.9 286.8z"/></g><rect x="138.6" y="43.4" fill="#0B4F78" width="161" height="160.8"/><rect x="299.5" y="43.1" fill="#FFFFFF" width="2.5" height="161.8"/><rect x="136.8" y="202.4" fill="#FFFFFF" width="165.2" height="2.5"/><rect x="48.1" y="358.6" fill="#FFFFFF" width="168.3" height="4.2"/><rect x="239.3" y="360.6" fill="#FFFFFF" width="162.8" height="4.4"/><polygon fill="#0B4F78" stroke="#FFFFFF" stroke-width="4.3452" stroke-linecap="square" stroke-linejoin="round" stroke-miterlimit="10" points="299.8,43.5 138.7,43.5 90.3,2.2 251.4,2.2"/><polygon fill="#0B4F78" stroke="#FFFFFF" stroke-width="4.3452" stroke-linejoin="round" stroke-miterlimit="10" points="137,202.7 90.3,162.9 90.3,2.2 137,41.9"/><g><path fill="#FFFFFF" d="M241.9 158l-4.2-10.9h-35.4l-4.2 11.2c-1.6 4.4-3 7.3-4.2 8.8c-1.1 1.5-3 2.3-5.6 2.3 c-2.2 0-4.2-0.8-5.9-2.4c-1.7-1.6-2.6-3.5-2.6-5.5c0-1.2 0.2-2.4 0.6-3.7c0.4-1.3 1-3 2-5.3l22.3-56.6c0.6-1.6 1.4-3.6 2.3-5.9 c0.9-2.3 1.8-4.2 2.9-5.7c1-1.5 2.3-2.7 4-3.7c1.6-0.9 3.7-1.4 6.1-1.4c2.5 0 4.5 0.5 6.2 1.4c1.6 0.9 3 2.1 4 3.6 c1 1.5 1.9 3 2.6 4.7c0.7 1.7 1.6 3.9 2.6 6.7l22.8 56.2c1.8 4.3 2.7 7.4 2.7 9.3c0 2-0.8 3.9-2.5 5.6c-1.7 1.7-3.7 2.5-6.1 2.5 c-1.4 0-2.6-0.2-3.6-0.7c-1-0.5-1.8-1.2-2.5-2c-0.7-0.9-1.4-2.2-2.2-3.9C243.1 160.9 242.4 159.4 241.9 158z M206.9 133.8h26 l-13.1-36L206.9 133.8z"/></g></g></svg>