<svg xmlns="http://www.w3.org/2000/svg" xmlns:xlink="http://www.w3.org/1999/xlink" version="1.1" x="0px" y="0px" width="379.5px" height="400px" viewBox="0 0 379.5 400" enable-background="new 0 0 379.5 400" xml:space="preserve"><g><path fill="#0B4F78" d="M366.6 195.1c-4-4.4-8.7-8.4-14.1-11.7c-4-2.5-4-2.5-4-2.5c-5-2.1-8.5-8.3-7.9-13.8c0 0 0-0.2 0-5.4 c0-17.3-4.6-33.8-12.8-48.7c-9.9-17.9-25-33.4-43.8-45.5c-15.3-9.8-32.9-17.2-52.2-21.7c0.1-1.2 0.2-2.4 0.2-3.5 C232 18.9 213.1 0 189.7 0c-23.4 0-42.3 18.9-42.3 42.3c0 1.2 0.1 2.4 0.2 3.6c-5.9 1.4-11.7 3-17.4 4.9c-17.3 6-33 14.4-46.2 24.9 c-15.5 12.2-27.7 27-35.5 43.5c-6.2 13.2-9.6 27.6-9.6 42.5c0 5.2 0 5.4 0 5.4c0.7 5.4-2.4 11.4-6.9 13.3c0 0 0 0-3.7 2.1 c-6.3 3.7-11.8 8.2-16.2 13.4C4.5 204.8 0 215.6 0 227.2c0 8.2 2.3 13.7 2.3 13.7c2.1 5 8.3 9.2 13.8 9.2h1.3c5.5 0 14.4 0 19.9 0 h149.9c5.5 0 14.4 0 19.9 0H341c5.5 0 14.4 0 19.9 0h2.4c5.5 0 11.7-4.1 13.8-9.2c0 0 2.3-5.6 2.3-13.7 C379.5 215.2 374.7 204.1 366.6 195.1z"/><path fill="#0B4F78" d="M325.7 261.4H309c-4.1 0-10.8 0-14.9 0h-214c-4.1 0-10.8 0-14.9 0H53.8c-4.1 0-6.5 3.2-5.3 7.1l2.8 9.1 c1.2 3.9 3.2 10.3 4.4 14.3l4.2 13.6c1.2 3.9 3.2 10.3 4.4 14.3l17.5 56.4c1.2 3.9 2.8 8.6 3.5 10.5c0 0 0 0 1 1.6 c1.6 2.5 3.7 4.7 6.1 6.5c1.7 1.3 3.6 2.4 5.5 3.3c2.8 1.2 2.8 1.2 2.8 1.2c3.2 0.4 9.2 0.7 13.3 0.7h5.7c4.1 0 10.8 0 14.9 0h47.3 c4.1 0 10.8 0 14.9 0h13.7c4.1 0 10.8 0 14.9 0h16.2c4.1 0 10.8 0 14.9 0h8.6c4.1 0 10.8-0.6 14.8-1.4c0 0 2.4-0.5 6.5-3.5 c4.1-3 5.2-5.2 5.2-5.2c1.9-3.6 4.5-9.8 5.7-13.7l7.6-24.4c1.2-3.9 3.2-10.3 4.4-14.3l4.7-15.2c1.2-3.9 3.2-10.3 4.4-14.3l7.3-23.7 c1.2-3.9 3.2-10.3 4.4-14.3l0.5-1.5C332.2 264.6 329.8 261.4 325.7 261.4z"/></g></svg>