<?xml version="1.0"?>
<svg width="400" height="92.5" xmlns="http://www.w3.org/2000/svg">

 <g>
  <title>background</title>
  <rect fill="none" id="canvas_background" height="402" width="582" y="-1" x="-1"/>
 </g>
 <g>
  <title>Layer 1</title>
  <g id="svg_1">
   <path id="svg_2" d="m59.099998,0l-16.599998,37.299999c-4.299999,9.299999 -9.299999,19.700001 -13.1,30.700001l-0.299999,0c-0.800001,-11 -1.5,-21.400002 -2.4,-31.200001l-2.900002,-36.799999l-23.799999,0l11.3,92l26.999999,0l46.600002,-92l-25.800003,0z" fill="#ffffff"/>
   <path id="svg_3" d="m92.199997,0l-43.199997,92l24.699997,0l9,-22l23.900002,0l1.099998,22l24.300003,0l-9.699997,-92l-30.100006,0zm-3,51l7,-16.200001c2.300003,-5 4.900002,-12.799999 7.200005,-17.799999l0.299995,0c0.5,5 0.800003,12.700001 1.200005,17.799999l0.900002,16.200001l-16.600006,0z" fill="#ffffff"/>
   <polygon id="svg_4" points="182,53 159.3,53 163.9,29 150.6,29 138.7,92 152.1,92 157.1,64 179.7,64 174.8,92 188.1,92 200,29 186.6,29" fill="#ffffff"/>
   <path id="svg_5" d="m226.600006,44.599998c-16.399994,0 -26.399994,14.400002 -26.399994,28.099998c0,11.800003 6.699997,19.200005 19.599991,19.200005c5,0 11.600006,-0.900002 16.900009,-3.599998l-0.900009,-9.600006c-3.599991,1.800003 -7.799988,2.900002 -12.699997,2.900002c-3.899994,0 -6.899994,-1.199997 -8.699997,-3.5c-0.899994,-1.299995 -1.399994,-3.299995 -1.399994,-4.599998c18.099991,0.5 29.399994,-3.699997 29.399994,-15.299999c-0.100006,-8.5 -6.700012,-13.600002 -15.800003,-13.600002zm3.899994,13.600002c0,4.099998 -5.5,5.599998 -15.899994,5.5c0.899994,-4.299999 4.599991,-9.400002 10.799988,-9.400002c3.100006,0 5.100006,1.600002 5.100006,3.900002l0,0z" fill="#ffffff"/>
   <path id="svg_6" d="m246.300003,76.199997c0,9.400002 5.599991,16.300003 13.699997,16.300003c5.299988,0 11,-2.5 15.200012,-9.5l0.299988,0c-0.299988,1 -0.600006,5 -0.600006,9l12.300018,0c-0.200012,-8 0.599976,-15.099998 1.799988,-20.900002l4.799988,-24c-3.799988,-1.199997 -9.599976,-2.399998 -15,-2.399998c-22.399994,0 -32.499985,16.200001 -32.499985,31.499996zm30.300003,-10.699997c-2,11.099998 -6.899994,15.699997 -10.899994,15.699997c-3.700012,0 -5.5,-3 -5.5,-7.5c0,-8.399994 6.299988,-18.999996 14.899994,-18.999996c1.300018,0 2.600006,0.200001 3.600006,0.399998l-2.100006,10.400002z" fill="#ffffff"/>
   <polygon id="svg_7" points="296.5,92 309.8,92 322.4,26 309.1,26" fill="#ffffff"/>
   <path id="svg_8" d="m342.299988,55l9.600006,0l1.899994,-9l-9.600006,0l2.300018,-12.5l-13.700012,3.900002l-1.700012,8.599998l-5.799988,0l-1.799988,9l5.699982,0l-3.5,18.300003c-0.600006,3.5 -0.899994,6.099998 -0.899994,8.599998c0,5.599998 3.799988,9.900002 11.799988,9.900002c2.900024,0 6.200012,-0.300003 7.900024,-1l1.599976,-10.400002c-1.199982,0.199997 -2.5,0.199997 -3.699982,0.199997c-2.899994,0 -3.800018,-1.599998 -3.800018,-3.799995c0,-1.600006 0.400024,-4.300003 0.700012,-6.100006l3,-15.699997z" fill="#ffffff"/>
   <path id="svg_9" d="m388.600006,44.599998c-6,0 -10.699982,2.700001 -14.399994,6.900002l-0.200012,0.299999l5,-25.799999l-13.299988,0l-12.399994,66l13.299988,0l3.899994,-21.300003c1.800018,-9.199997 6.5,-15.099998 11.100006,-15.099998c3.300018,0 4.600006,2 4.600006,5c0,1.900002 -0.299988,4.400002 -0.600006,6.099998l-4.700012,25.300003l13.299988,0l4.899994,-26.5c0.5,-2.599998 0.800018,-6.299999 0.800018,-8.400002c0.100006,-7.799999 -4.299988,-12.5 -11.299988,-12.5z" fill="#ffffff"/>
  </g>
 </g>
</svg>