<svg xmlns="http://www.w3.org/2000/svg" xmlns:xlink="http://www.w3.org/1999/xlink" version="1.1" x="0px" y="0px" viewBox="0 0 400 92.5" enable-background="new 0 0 400 92.5" xml:space="preserve"><g><path fill="#184171" d="M59.1 0L42.5 37.3C38.2 46.6 33.2 57 29.4 68h-0.3c-0.8-11-1.5-21.4-2.4-31.2L23.8 0H0l11.3 92h27L84.9 0 H59.1z"/><path fill="#184171" d="M92.2 0L49 92h24.7l9-22h23.9l1.1 22H132l-9.7-92H92.2z M89.2 51l7-16.2c2.3-5 4.9-12.8 7.2-17.8h0.3 c0.5 5 0.8 12.7 1.2 17.8l0.9 16.2H89.2z"/><polygon fill="#56769B" points="182,53 159.3,53 163.9,29 150.6,29 138.7,92 152.1,92 157.1,64 179.7,64 174.8,92 188.1,92 200,29 186.6,29"/><path fill="#56769B" d="M226.6 44.6c-16.4 0-26.4 14.4-26.4 28.1c0 11.8 6.7 19.2 19.6 19.2c5 0 11.6-0.9 16.9-3.6l-0.9-9.6 c-3.6 1.8-7.8 2.9-12.7 2.9c-3.9 0-6.9-1.2-8.7-3.5c-0.9-1.3-1.4-3.3-1.4-4.6c18.1 0.5 29.4-3.7 29.4-15.3 C242.3 49.7 235.7 44.6 226.6 44.6z M230.5 58.2c0 4.1-5.5 5.6-15.9 5.5c0.9-4.3 4.6-9.4 10.8-9.4 C228.5 54.3 230.5 55.9 230.5 58.2L230.5 58.2z"/><path fill="#56769B" d="M246.3 76.2c0 9.4 5.6 16.3 13.7 16.3c5.3 0 11-2.5 15.2-9.5h0.3c-0.3 1-0.6 5-0.6 9h12.3 c-0.2-8 0.6-15.1 1.8-20.9l4.8-24c-3.8-1.2-9.6-2.4-15-2.4C256.4 44.7 246.3 60.9 246.3 76.2z M276.6 65.5 c-2 11.1-6.9 15.7-10.9 15.7c-3.7 0-5.5-3-5.5-7.5c0-8.4 6.3-19 14.9-19c1.3 0 2.6 0.2 3.6 0.4L276.6 65.5z"/><polygon fill="#56769B" points="296.5,92 309.8,92 322.4,26 309.1,26"/><path fill="#56769B" d="M342.3 55h9.6l1.9-9h-9.6l2.3-12.5l-13.7 3.9l-1.7 8.6h-5.8l-1.8 9h5.7l-3.5 18.3c-0.6 3.5-0.9 6.1-0.9 8.6 c0 5.6 3.8 9.9 11.8 9.9c2.9 0 6.2-0.3 7.9-1l1.6-10.4c-1.2 0.2-2.5 0.2-3.7 0.2c-2.9 0-3.8-1.6-3.8-3.8c0-1.6 0.4-4.3 0.7-6.1 L342.3 55z"/><path fill="#56769B" d="M388.6 44.6c-6 0-10.7 2.7-14.4 6.9l-0.2 0.3l5-25.8h-13.3l-12.4 66h13.3l3.9-21.3 c1.8-9.2 6.5-15.1 11.1-15.1c3.3 0 4.6 2 4.6 5c0 1.9-0.3 4.4-0.6 6.1L380.9 92h13.3l4.9-26.5c0.5-2.6 0.8-6.3 0.8-8.4 C400 49.3 395.6 44.6 388.6 44.6z"/></g></svg>